  0
SECTION
  2
HEADER
  9
$ACADVER
  1
AC1014
  9
$HANDSEED
  5
FFFF
  9
$MEASUREMENT
 70
     1
  0
ENDSEC
  0
SECTION
  2
TABLES
  0
TABLE
  2
VPORT
  5
8
330
0
100
AcDbSymbolTable
 70
     4
  0
VPORT
  5
2E
330
8
100
AcDbSymbolTableRecord
100
AcDbViewportTableRecord
  2
*ACTIVE
 70
     0
 10
0.0
 20
0.0
 11
1.0
 21
1.0
 12
210.0
 22
148.5
 13
0.0
 23
0.0
 14
10.0
 24
10.0
 15
10.0
 25
10.0
 16
0.0
 26
0.0
 36
1.0
 17
0.0
 27
0.0
 37
0.0
 40
341.0
 41
1.24
 42
50.0
 43
0.0
 44
0.0
 50
0.0
 51
0.0
 71
     0
 72
   100
 73
     1
 74
     3
 75
     0
 76
     0
 77
     0
 78
     0
  0
ENDTAB
  0
TABLE
  2
LTYPE
  5
5
330
0
100
AcDbSymbolTable
 70
     1
  0
LTYPE
  5
14
330
5
100
AcDbSymbolTableRecord
100
AcDbLinetypeTableRecord
  2
BYBLOCK
 70
     0
  3

 72
    65
 73
     0
 40
0.0
  0
LTYPE
  5
15
330
5
100
AcDbSymbolTableRecord
100
AcDbLinetypeTableRecord
  2
BYLAYER
 70
     0
  3

 72
    65
 73
     0
 40
0.0
  0
LTYPE
  5
16
330
5
100
AcDbSymbolTableRecord
100
AcDbLinetypeTableRecord
  2
CONTINUOUS
 70
     0
  3
Solid line
 72
    65
 73
     0
 40
0.0
  0
ENDTAB
  0
TABLE
  2
LAYER
  5
2
100
AcDbSymbolTable
 70
6
  0
LAYER
  5
50
100
AcDbSymbolTableRecord
100
AcDbLayerTableRecord
  2
0
 70
0
  6
CONTINUOUS
  0
LAYER
  5
51
100
AcDbSymbolTableRecord
100
AcDbLayerTableRecord
  2
rose
 70
0
  6
CONTINUOUS
  0
LAYER
  5
52
100
AcDbSymbolTableRecord
100
AcDbLayerTableRecord
  2
uros_logo
 70
0
  6
CONTINUOUS
  0
LAYER
  5
53
100
AcDbSymbolTableRecord
100
AcDbLayerTableRecord
  2
GMO_detective
 70
0
  6
CONTINUOUS
  0
LAYER
  5
54
100
AcDbSymbolTableRecord
100
AcDbLayerTableRecord
  2
grapes
 70
0
  6
CONTINUOUS
  0
LAYER
  5
55
100
AcDbSymbolTableRecord
100
AcDbLayerTableRecord
  2
outer
 70
0
  6
CONTINUOUS
  0
ENDTAB
  0
TABLE
  2
STYLE
  5
3
330
0
100
AcDbSymbolTable
 70
     1
  0
STYLE
  5
11
330
3
100
AcDbSymbolTableRecord
100
AcDbTextStyleTableRecord
  2
STANDARD
 70
     0
 40
0.0
 41
1.0
 50
0.0
 71
     0
 42
2.5
  3
txt
  4

  0
ENDTAB
  0
TABLE
  2
VIEW
  5
6
330
0
100
AcDbSymbolTable
 70
     0
  0
ENDTAB
  0
TABLE
  2
UCS
  5
7
330
0
100
AcDbSymbolTable
 70
     0
  0
ENDTAB
  0
TABLE
  2
APPID
  5
9
330
0
100
AcDbSymbolTable
 70
     2
  0
APPID
  5
12
330
9
100
AcDbSymbolTableRecord
100
AcDbRegAppTableRecord
  2
ACAD
 70
     0
  0
ENDTAB
  0
TABLE
  2
DIMSTYLE
  5
A
330
0
100
AcDbSymbolTable
 70
     1
  0
DIMSTYLE
105
27
330
A
100
AcDbSymbolTableRecord
100
AcDbDimStyleTableRecord
  2
ISO-25
 70
     0
  3

  4

  5

  6

  7

 40
1.0
 41
2.5
 42
0.625
 43
3.75
 44
1.25
 45
0.0
 46
0.0
 47
0.0
 48
0.0
140
2.5
141
2.5
142
0.0
143
0.03937007874016
144
1.0
145
0.0
146
1.0
147
0.625
 71
     0
 72
     0
 73
     0
 74
     0
 75
     0
 76
     0
 77
     1
 78
     8
170
     0
171
     3
172
     1
173
     0
174
     0
175
     0
176
     0
177
     0
178
     0
270
     2
271
     2
272
     2
273
     2
274
     3
340
11
275
     0
280
     0
281
     0
282
     0
283
     0
284
     8
285
     0
286
     0
287
     3
288
     0
  0
ENDTAB
  0
TABLE
  2
BLOCK_RECORD
  5
1
330
0
100
AcDbSymbolTable
 70
     1
  0
BLOCK_RECORD
  5
1F
330
1
100
AcDbSymbolTableRecord
100
AcDbBlockTableRecord
  2
*MODEL_SPACE
  0
BLOCK_RECORD
  5
1B
330
1
100
AcDbSymbolTableRecord
100
AcDbBlockTableRecord
  2
*PAPER_SPACE
  0
ENDTAB
  0
ENDSEC
  0
SECTION
  2
BLOCKS
  0
BLOCK
  5
20
330
1F
100
AcDbEntity
  8
0
100
AcDbBlockBegin
  2
*MODEL_SPACE
 70
     0
 10
0.0
 20
0.0
 30
0.0
  3
*MODEL_SPACE
  1

  0
ENDBLK
  5
21
330
1F
100
AcDbEntity
  8
0
100
AcDbBlockEnd
  0
BLOCK
  5
1C
330
1B
100
AcDbEntity
 67
     1
  8
0
100
AcDbBlockBegin
  2
*PAPER_SPACE
  1

  0
ENDBLK
  5
1D
330
1B
100
AcDbEntity
 67
     1
  8
0
100
AcDbBlockEnd
  0
ENDSEC
  0
SECTION
  2
ENTITIES
  0
LWPOLYLINE
  5
100
100
AcDbEntity
  8
0
 62
1
100
AcDbPolyline
 90
440
 70
1
 10
40.584693
 20
0.677514
 30
0.0
 10
40.587339
 20
0.769007
 30
0.0
 10
40.579534
 20
0.897992
 30
0.0
 10
40.562230
 20
1.058514
 30
0.0
 10
40.536301
 20
1.244596
 30
0.0
 10
40.502670
 20
1.450336
 30
0.0
 10
40.462242
 20
1.669781
 30
0.0
 10
40.415921
 20
1.896979
 30
0.0
 10
40.364610
 20
2.126002
 30
0.0
 10
40.313951
 20
2.352591
 30
0.0
 10
40.269501
 20
2.572857
 30
0.0
 10
40.232030
 20
2.781322
 30
0.0
 10
40.202312
 20
2.972510
 30
0.0
 10
40.181119
 20
3.141023
 30
0.0
 10
40.169213
 20
3.281384
 30
0.0
 10
40.167361
 20
3.388091
 30
0.0
 10
40.176357
 20
3.455797
 30
0.0
 10
40.223199
 20
3.558429
 30
0.0
 10
40.308789
 20
3.641720
 30
0.0
 10
40.459268
 20
3.710618
 30
0.0
 10
40.700766
 20
3.770122
 30
0.0
 10
41.059417
 20
3.825209
 30
0.0
 10
41.561352
 20
3.881009
 30
0.0
 10
42.232698
 20
3.942419
 30
0.0
 10
43.099594
 20
4.014412
 30
0.0
 10
43.575177
 20
4.056428
 30
0.0
 10
44.054539
 20
4.105217
 30
0.0
 10
44.525293
 20
4.159033
 30
0.0
 10
44.975061
 20
4.216315
 30
0.0
 10
45.391459
 20
4.275318
 30
0.0
 10
45.762109
 20
4.334425
 30
0.0
 10
46.074624
 20
4.391919
 30
0.0
 10
46.316625
 20
4.446212
 30
0.0
 10
46.876621
 20
4.614169
 30
0.0
 10
47.487393
 20
4.843457
 30
0.0
 10
48.152793
 20
5.136086
 30
0.0
 10
48.876674
 20
5.494094
 30
0.0
 10
49.662889
 20
5.919438
 30
0.0
 10
50.515292
 20
6.414129
 30
0.0
 10
51.437732
 20
6.980179
 30
0.0
 10
52.434063
 20
7.619571
 30
0.0
 10
53.406686
 20
8.247612
 30
0.0
 10
54.285841
 20
8.795696
 30
0.0
 10
55.104964
 20
9.281788
 30
0.0
 10
55.897500
 20
9.723960
 30
0.0
 10
56.696888
 20
10.140255
 30
0.0
 10
57.536567
 20
10.548666
 30
0.0
 10
58.449977
 20
10.967263
 30
0.0
 10
59.470559
 20
11.414091
 30
0.0
 10
60.504323
 20
11.869810
 30
0.0
 10
61.332947
 20
12.263853
 30
0.0
 10
61.977184
 20
12.611913
 30
0.0
 10
62.457768
 20
12.929757
 30
0.0
 10
62.795450
 20
13.233154
 30
0.0
 10
63.010966
 20
13.537822
 30
0.0
 10
63.125065
 20
13.859529
 30
0.0
 10
63.158487
 20
14.213991
 30
0.0
 10
63.135548
 20
14.486856
 30
0.0
 10
63.066169
 20
14.783295
 30
0.0
 10
62.949451
 20
15.104975
 30
0.0
 10
62.784496
 20
15.453669
 30
0.0
 10
62.570411
 20
15.831044
 30
0.0
 10
62.306304
 20
16.238846
 30
0.0
 10
61.991278
 20
16.678769
 30
0.0
 10
61.624441
 20
17.152505
 30
0.0
 10
61.263857
 20
17.583935
 30
0.0
 10
60.896761
 20
17.983165
 30
0.0
 10
60.516528
 20
18.355671
 30
0.0
 10
60.116531
 20
18.706985
 30
0.0
 10
59.690142
 20
19.042609
 30
0.0
 10
59.230730
 20
19.368073
 30
0.0
 10
58.731673
 20
19.688880
 30
0.0
 10
58.186341
 20
20.010507
 30
0.0
 10
57.632269
 20
20.324303
 30
0.0
 10
57.226893
 20
20.568963
 30
0.0
 10
56.954359
 20
20.778354
 30
0.0
 10
56.798818
 20
20.986317
 30
0.0
 10
56.744420
 20
21.226717
 30
0.0
 10
56.775300
 20
21.533369
 30
0.0
 10
56.875608
 20
21.940166
 30
0.0
 10
57.029495
 20
22.480948
 30
0.0
 10
57.300077
 20
23.367249
 30
0.0
 10
57.607377
 20
24.247861
 30
0.0
 10
57.949007
 20
25.117573
 30
0.0
 10
58.322575
 20
25.971224
 30
0.0
 10
58.725694
 20
26.803630
 30
0.0
 10
59.155972
 20
27.609577
 30
0.0
 10
59.611024
 20
28.383880
 30
0.0
 10
60.088456
 20
29.121379
 30
0.0
 10
60.319213
 20
29.451579
 30
0.0
 10
60.540809
 20
29.744922
 30
0.0
 10
60.770020
 20
30.018422
 30
0.0
 10
61.023618
 20
30.289091
 30
0.0
 10
61.318377
 20
30.573835
 30
0.0
 10
61.671066
 20
30.889721
 30
0.0
 10
62.098461
 20
31.253708
 30
0.0
 10
62.617335
 20
31.682757
 30
0.0
 10
63.081086
 20
32.061507
 30
0.0
 10
63.418504
 20
32.347601
 30
0.0
 10
63.641442
 20
32.570910
 30
0.0
 10
63.761753
 20
32.761383
 30
0.0
 10
63.791291
 20
32.948920
 30
0.0
 10
63.741912
 20
33.163391
 30
0.0
 10
63.625474
 20
33.434721
 30
0.0
 10
63.453831
 20
33.792808
 30
0.0
 10
62.969294
 20
34.660456
 30
0.0
 10
62.390905
 20
35.409422
 30
0.0
 10
61.708867
 20
36.045131
 30
0.0
 10
60.913387
 20
36.573052
 30
0.0
 10
59.994669
 20
36.998623
 30
0.0
 10
58.942919
 20
37.327291
 30
0.0
 10
57.748347
 20
37.564511
 30
0.0
 10
56.401152
 20
37.715731
 30
0.0
 10
56.268895
 20
37.725918
 30
0.0
 10
56.136638
 20
37.736104
 30
0.0
 10
56.004378
 20
37.746290
 30
0.0
 10
55.872121
 20
37.756503
 30
0.0
 10
55.739864
 20
37.766716
 30
0.0
 10
55.607606
 20
37.776903
 30
0.0
 10
55.475349
 20
37.787089
 30
0.0
 10
55.343092
 20
37.797276
 30
0.0
 10
55.332720
 20
38.037345
 30
0.0
 10
55.322349
 20
38.277425
 30
0.0
 10
55.311977
 20
38.517495
 30
0.0
 10
55.301632
 20
38.757565
 30
0.0
 10
55.291260
 20
38.997645
 30
0.0
 10
55.280888
 20
39.237715
 30
0.0
 10
55.270517
 20
39.477795
 30
0.0
 10
55.260145
 20
39.717864
 30
0.0
 10
55.216327
 20
40.607526
 30
0.0
 10
55.163546
 20
41.336894
 30
0.0
 10
55.092505
 20
41.946656
 30
0.0
 10
54.993895
 20
42.477484
 30
0.0
 10
54.858420
 20
42.970056
 30
0.0
 10
54.676773
 20
43.465054
 30
0.0
 10
54.439646
 20
44.003145
 30
0.0
 10
54.137735
 20
44.625013
 30
0.0
 10
53.820450
 20
45.244485
 30
0.0
 10
53.524349
 20
45.784404
 30
0.0
 10
53.244235
 20
46.252063
 30
0.0
 10
52.974913
 20
46.654743
 30
0.0
 10
52.711187
 20
46.999754
 30
0.0
 10
52.447858
 20
47.294354
 30
0.0
 10
52.179735
 20
47.545854
 30
0.0
 10
51.901615
 20
47.761534
 30
0.0
 10
51.739883
 20
47.870542
 30
0.0
 10
51.592193
 20
47.957344
 30
0.0
 10
51.447985
 20
48.024943
 30
0.0
 10
51.296691
 20
48.076243
 30
0.0
 10
51.127741
 20
48.114144
 30
0.0
 10
50.930576
 20
48.141642
 30
0.0
 10
50.694626
 20
48.161645
 30
0.0
 10
50.409326
 20
48.177149
 30
0.0
 10
50.027800
 20
48.198237
 30
0.0
 10
49.732043
 20
48.232836
 30
0.0
 10
49.503287
 20
48.296836
 30
0.0
 10
49.322767
 20
48.406088
 30
0.0
 10
49.171714
 20
48.576376
 30
0.0
 10
49.031358
 20
48.823526
 30
0.0
 10
48.882937
 20
49.163357
 30
0.0
 10
48.707677
 20
49.611688
 30
0.0
 10
48.327818
 20
50.498338
 30
0.0
 10
47.897857
 20
51.302328
 30
0.0
 10
47.410748
 20
52.031246
 30
0.0
 10
46.859441
 20
52.692668
 30
0.0
 10
46.236888
 20
53.294187
 30
0.0
 10
45.536041
 20
53.843377
 30
0.0
 10
44.749850
 20
54.347826
 30
0.0
 10
43.871267
 20
54.815115
 30
0.0
 10
43.195940
 20
55.133935
 30
0.0
 10
42.604572
 20
55.379566
 30
0.0
 10
42.038650
 20
55.561636
 30
0.0
 10
41.439644
 20
55.689734
 30
0.0
 10
40.749034
 20
55.773536
 30
0.0
 10
39.908297
 20
55.822537
 30
0.0
 10
38.858912
 20
55.846429
 30
0.0
 10
37.542351
 20
55.854419
 30
0.0
 10
37.121031
 20
55.855477
 30
0.0
 10
36.699714
 20
55.856536
 30
0.0
 10
36.278397
 20
55.857594
 30
0.0
 10
35.857080
 20
55.858652
 30
0.0
 10
35.435763
 20
55.859711
 30
0.0
 10
35.014446
 20
55.860769
 30
0.0
 10
34.593129
 20
55.861827
 30
0.0
 10
34.171812
 20
55.862886
 30
0.0
 10
34.031233
 20
55.919586
 30
0.0
 10
33.890652
 20
55.976185
 30
0.0
 10
33.750076
 20
56.032886
 30
0.0
 10
33.609495
 20
56.089485
 30
0.0
 10
33.468917
 20
56.146085
 30
0.0
 10
33.328339
 20
56.202685
 30
0.0
 10
33.187760
 20
56.259284
 30
0.0
 10
33.047182
 20
56.315884
 30
0.0
 10
32.543968
 20
56.505275
 30
0.0
 10
32.050775
 20
56.663276
 30
0.0
 10
31.563727
 20
56.790525
 30
0.0
 10
31.078963
 20
56.887725
 30
0.0
 10
30.592611
 20
56.955424
 30
0.0
 10
30.100804
 20
56.994326
 30
0.0
 10
29.599678
 20
57.005121
 30
0.0
 10
29.085363
 20
56.988531
 30
0.0
 10
28.659958
 20
56.957231
 30
0.0
 10
28.292650
 20
56.910630
 30
0.0
 10
27.959783
 20
56.839632
 30
0.0
 10
27.637700
 20
56.735262
 30
0.0
 10
27.302746
 20
56.588439
 30
0.0
 10
26.931266
 20
56.390142
 30
0.0
 10
26.499601
 20
56.131300
 30
0.0
 10
25.984096
 20
55.802891
 30
0.0
 10
25.481023
 20
55.484730
 30
0.0
 10
25.046212
 20
55.232090
 30
0.0
 10
24.651499
 20
55.035521
 30
0.0
 10
24.268716
 20
54.885542
 30
0.0
 10
23.869703
 20
54.772691
 30
0.0
 10
23.426288
 20
54.687490
 30
0.0
 10
22.910311
 20
54.620490
 30
0.0
 10
22.293607
 20
54.562192
 30
0.0
 10
21.720670
 20
54.507291
 30
0.0
 10
21.207268
 20
54.443592
 30
0.0
 10
20.744691
 20
54.368892
 30
0.0
 10
20.324227
 20
54.281191
 30
0.0
 10
19.937168
 20
54.178461
 30
0.0
 10
19.574805
 20
54.058642
 30
0.0
 10
19.228429
 20
53.919672
 30
0.0
 10
18.889328
 20
53.759502
 30
0.0
 10
18.752512
 20
53.697301
 30
0.0
 10
18.587624
 20
53.634002
 30
0.0
 10
18.400934
 20
53.571502
 30
0.0
 10
18.198716
 20
53.511502
 30
0.0
 10
17.987240
 20
53.455802
 30
0.0
 10
17.772782
 20
53.406100
 30
0.0
 10
17.561615
 20
53.364100
 30
0.0
 10
17.360008
 20
53.331702
 30
0.0
 10
16.861673
 20
53.245202
 30
0.0
 10
16.404831
 20
53.126452
 30
0.0
 10
15.976798
 20
52.968310
 30
0.0
 10
15.564887
 20
52.763621
 30
0.0
 10
15.156421
 20
52.505210
 30
0.0
 10
14.738713
 20
52.185932
 30
0.0
 10
14.299081
 20
51.798622
 30
0.0
 10
13.824840
 20
51.336123
 30
0.0
 10
13.202749
 20
50.665761
 30
0.0
 10
12.598218
 20
49.933993
 30
0.0
 10
12.012555
 20
49.142884
 30
0.0
 10
11.447056
 20
48.294482
 30
0.0
 10
10.903023
 20
47.390834
 30
0.0
 10
10.381757
 20
46.434003
 30
0.0
 10
9.884560
 20
45.426034
 30
0.0
 10
9.412731
 20
44.368995
 30
0.0
 10
9.318820
 20
44.152124
 30
0.0
 10
9.225671
 20
43.945265
 30
0.0
 10
9.135702
 20
43.753264
 30
0.0
 10
9.051361
 20
43.580973
 30
0.0
 10
8.975071
 20
43.433243
 30
0.0
 10
8.909282
 20
43.314935
 30
0.0
 10
8.856421
 20
43.230935
 30
0.0
 10
8.818922
 20
43.186035
 30
0.0
 10
8.769640
 20
43.165345
 30
0.0
 10
8.690702
 20
43.159338
 30
0.0
 10
8.582863
 20
43.167329
 30
0.0
 10
8.446875
 20
43.189633
 30
0.0
 10
8.283493
 20
43.225934
 30
0.0
 10
8.093469
 20
43.276133
 30
0.0
 10
7.877553
 20
43.340033
 30
0.0
 10
7.636502
 20
43.417434
 30
0.0
 10
6.549612
 20
43.721014
 30
0.0
 10
5.491994
 20
43.905363
 30
0.0
 10
4.485106
 20
43.972964
 30
0.0
 10
3.550410
 20
43.926365
 30
0.0
 10
2.709369
 20
43.767933
 30
0.0
 10
1.983445
 20
43.500193
 30
0.0
 10
1.394094
 20
43.125633
 30
0.0
 10
0.962783
 20
42.646724
 30
0.0
 10
0.872158
 20
42.475195
 30
0.0
 10
0.818540
 20
42.285034
 30
0.0
 10
0.804068
 20
42.063186
 30
0.0
 10
0.830902
 20
41.796616
 30
0.0
 10
0.901180
 20
41.472255
 30
0.0
 10
1.017044
 20
41.077055
 30
0.0
 10
1.180641
 20
40.597974
 30
0.0
 10
1.394115
 20
40.021955
 30
0.0
 10
1.634010
 20
39.362886
 30
0.0
 10
1.807693
 20
38.802644
 30
0.0
 10
1.915955
 20
38.310877
 30
0.0
 10
1.959587
 20
37.857175
 30
0.0
 10
1.939373
 20
37.411185
 30
0.0
 10
1.856114
 20
36.942526
 30
0.0
 10
1.710596
 20
36.420797
 30
0.0
 10
1.503607
 20
35.815648
 30
0.0
 10
1.189092
 20
34.927685
 30
0.0
 10
0.936182
 20
34.166452
 30
0.0
 10
0.737771
 20
33.500047
 30
0.0
 10
0.586747
 20
32.896506
 30
0.0
 10
0.476006
 20
32.323868
 30
0.0
 10
0.398432
 20
31.750225
 30
0.0
 10
0.346923
 20
31.143615
 30
0.0
 10
0.314369
 20
30.472076
 30
0.0
 10
0.299579
 20
29.774847
 30
0.0
 10
0.309263
 20
29.141911
 30
0.0
 10
0.345942
 20
28.556467
 30
0.0
 10
0.412133
 20
28.001715
 30
0.0
 10
0.510362
 20
27.460801
 30
0.0
 10
0.643146
 20
26.916924
 30
0.0
 10
0.813013
 20
26.353282
 30
0.0
 10
1.022481
 20
25.753049
 30
0.0
 10
1.095432
 20
25.552892
 30
0.0
 10
1.163491
 20
25.361730
 30
0.0
 10
1.225165
 20
25.184063
 30
0.0
 10
1.278968
 20
25.024360
 30
0.0
 10
1.323405
 20
24.887147
 30
0.0
 10
1.356994
 20
24.776948
 30
0.0
 10
1.378240
 20
24.698235
 30
0.0
 10
1.385648
 20
24.655531
 30
0.0
 10
1.357706
 20
24.619151
 30
0.0
 10
1.277624
 20
24.558429
 30
0.0
 10
1.151021
 20
24.476752
 30
0.0
 10
0.983505
 20
24.377242
 30
0.0
 10
0.780697
 20
24.263180
 30
0.0
 10
0.548210
 20
24.137821
 30
0.0
 10
0.291657
 20
24.004392
 30
0.0
 10
0.016657
 20
23.866147
 30
0.0
 10
-0.573271
 20
23.563596
 30
0.0
 10
-1.096516
 20
23.271020
 30
0.0
 10
-1.560468
 20
22.982889
 30
0.0
 10
-1.972514
 20
22.693620
 30
0.0
 10
-2.340044
 20
22.397657
 30
0.0
 10
-2.670442
 20
22.089497
 30
0.0
 10
-2.971101
 20
21.763557
 30
0.0
 10
-3.249411
 20
21.414333
 30
0.0
 10
-3.604916
 20
20.898899
 30
0.0
 10
-3.897921
 20
20.397037
 30
0.0
 10
-4.125807
 20
19.917691
 30
0.0
 10
-4.285954
 20
19.469858
 30
0.0
 10
-4.375737
 20
19.062453
 30
0.0
 10
-4.392538
 20
18.704471
 30
0.0
 10
-4.333735
 20
18.404884
 30
0.0
 10
-4.196710
 20
18.172633
 30
0.0
 10
-4.103182
 20
18.079023
 30
0.0
 10
-3.995071
 20
17.995124
 30
0.0
 10
-3.858723
 20
17.915220
 30
0.0
 10
-3.680484
 20
17.833622
 30
0.0
 10
-3.446698
 20
17.744722
 30
0.0
 10
-3.143710
 20
17.642937
 30
0.0
 10
-2.757866
 20
17.522552
 30
0.0
 10
-2.275509
 20
17.377930
 30
0.0
 10
-1.571403
 20
17.139276
 30
0.0
 10
-0.947278
 20
16.856595
 30
0.0
 10
-0.384586
 20
16.512664
 30
0.0
 10
0.135222
 20
16.090362
 30
0.0
 10
0.630702
 20
15.572494
 30
0.0
 10
1.120401
 20
14.941833
 30
0.0
 10
1.622868
 20
14.181262
 30
0.0
 10
2.156660
 20
13.273583
 30
0.0
 10
2.341273
 20
12.953331
 30
0.0
 10
2.552796
 20
12.599610
 30
0.0
 10
2.783791
 20
12.224087
 30
0.0
 10
3.026816
 20
11.838456
 30
0.0
 10
3.274431
 20
11.454361
 30
0.0
 10
3.519200
 20
11.083495
 30
0.0
 10
3.753682
 20
10.737499
 30
0.0
 10
3.970439
 20
10.428069
 30
0.0
 10
4.969825
 20
9.088563
 30
0.0
 10
5.891303
 20
7.997052
 30
0.0
 10
6.780781
 20
7.123768
 30
0.0
 10
7.684182
 20
6.438894
 30
0.0
 10
8.647411
 20
5.912691
 30
0.0
 10
9.716383
 20
5.515366
 30
0.0
 10
10.937014
 20
5.217075
 30
0.0
 10
12.355215
 20
4.988105
 30
0.0
 10
13.023949
 20
4.896109
 30
0.0
 10
13.566432
 20
4.811496
 30
0.0
 10
14.018102
 20
4.723918
 30
0.0
 10
14.414403
 20
4.623059
 30
0.0
 10
14.790775
 20
4.498573
 30
0.0
 10
15.182660
 20
4.340140
 30
0.0
 10
15.625498
 20
4.137417
 30
0.0
 10
16.154733
 20
3.880057
 30
0.0
 10
16.814911
 20
3.571817
 30
0.0
 10
17.443651
 20
3.316653
 30
0.0
 10
18.057569
 20
3.110887
 30
0.0
 10
18.673278
 20
2.950840
 30
0.0
 10
19.307394
 20
2.832757
 30
0.0
 10
19.976527
 20
2.753064
 30
0.0
 10
20.697291
 20
2.707979
 30
0.0
 10
21.486302
 20
2.693692
 30
0.0
 10
22.393879
 20
2.715652
 30
0.0
 10
23.212145
 20
2.789259
 30
0.0
 10
23.974922
 20
2.926022
 30
0.0
 10
24.716033
 20
3.137477
 30
0.0
 10
25.469302
 20
3.435133
 30
0.0
 10
26.268547
 20
3.830500
 30
0.0
 10
27.147586
 20
4.335113
 30
0.0
 10
28.140247
 20
4.960482
 30
0.0
 10
28.305543
 20
5.067956
 30
0.0
 10
28.470839
 20
5.175403
 30
0.0
 10
28.636137
 20
5.282877
 30
0.0
 10
28.801433
 20
5.390324
 30
0.0
 10
28.966729
 20
5.497798
 30
0.0
 10
29.132024
 20
5.605272
 30
0.0
 10
29.297323
 20
5.712719
 30
0.0
 10
29.462619
 20
5.820193
 30
0.0
 10
29.611394
 20
5.809874
 30
0.0
 10
29.760169
 20
5.799555
 30
0.0
 10
29.908947
 20
5.789237
 30
0.0
 10
30.057722
 20
5.778918
 30
0.0
 10
30.206500
 20
5.768599
 30
0.0
 10
30.355275
 20
5.758280
 30
0.0
 10
30.504053
 20
5.747962
 30
0.0
 10
30.652828
 20
5.737643
 30
0.0
 10
32.326272
 20
5.588973
 30
0.0
 10
33.712567
 20
5.381487
 30
0.0
 10
34.848150
 20
5.095817
 30
0.0
 10
35.769471
 20
4.712594
 30
0.0
 10
36.512977
 20
4.212479
 30
0.0
 10
37.115110
 20
3.576156
 30
0.0
 10
37.612317
 20
2.784285
 30
0.0
 10
38.041045
 20
1.817524
 30
0.0
 10
38.229550
 20
1.343100
 30
0.0
 10
38.396637
 20
0.975250
 30
0.0
 10
38.556496
 20
0.701300
 30
0.0
 10
38.723313
 20
0.508578
 30
0.0
 10
38.911276
 20
0.384436
 30
0.0
 10
39.134571
 20
0.316252
 30
0.0
 10
39.407388
 20
0.291382
 30
0.0
 10
39.743914
 20
0.297467
 30
0.0
 10
40.001427
 20
0.309902
 30
0.0
 10
40.197507
 20
0.324190
 30
0.0
 10
40.341094
 20
0.344563
 30
0.0
 10
40.441128
 20
0.374884
 30
0.0
 10
40.506546
 20
0.419175
 30
0.0
 10
40.546297
 20
0.481485
 30
0.0
 10
40.569316
 20
0.565781
 30
0.0
 10
40.584556
 20
0.676191
 30
0.0
 10
40.584556
 20
0.676165
 30
0.0
 10
40.584556
 20
0.676165
 30
0.0
 10
40.584556
 20
0.676139
 30
0.0
 10
40.584556
 20
0.676139
 30
0.0
 10
40.584556
 20
0.676112
 30
0.0
 10
40.584556
 20
0.676112
 30
0.0
 10
40.584556
 20
0.676086
 30
0.0
  0
LWPOLYLINE
  5
101
100
AcDbEntity
  8
rose
 62
7
100
AcDbPolyline
 90
384
 70
1
 10
38.181783
 20
1.754924
 30
0.0
 10
37.782352
 20
2.681653
 30
0.0
 10
37.323183
 20
3.448177
 30
0.0
 10
36.777324
 20
4.070768
 30
0.0
 10
36.117824
 20
4.565565
 30
0.0
 10
35.317732
 20
4.948841
 30
0.0
 10
34.350101
 20
5.236787
 30
0.0
 10
33.187977
 20
5.445622
 30
0.0
 10
31.804413
 20
5.591540
 30
0.0
 10
31.521227
 20
5.614029
 30
0.0
 10
31.238041
 20
5.636519
 30
0.0
 10
30.954855
 20
5.659009
 30
0.0
 10
30.671669
 20
5.681498
 30
0.0
 10
30.388483
 20
5.703988
 30
0.0
 10
30.105297
 20
5.726477
 30
0.0
 10
29.822110
 20
5.748967
 30
0.0
 10
29.538924
 20
5.771457
 30
0.0
 10
29.316534
 20
5.622337
 30
0.0
 10
29.094141
 20
5.473192
 30
0.0
 10
28.871751
 20
5.324073
 30
0.0
 10
28.649358
 20
5.174927
 30
0.0
 10
28.426968
 20
5.025808
 30
0.0
 10
28.204578
 20
4.876689
 30
0.0
 10
27.982185
 20
4.727543
 30
0.0
 10
27.759795
 20
4.578424
 30
0.0
 10
27.374620
 20
4.330510
 30
0.0
 10
26.961582
 20
4.083283
 30
0.0
 10
26.533555
 20
3.843306
 30
0.0
 10
26.103426
 20
3.617114
 30
0.0
 10
25.684067
 20
3.411242
 30
0.0
 10
25.288367
 20
3.232251
 30
0.0
 10
24.929200
 20
3.086704
 30
0.0
 10
24.619447
 20
2.981161
 30
0.0
 10
23.513968
 20
2.729463
 30
0.0
 10
22.335617
 20
2.599103
 30
0.0
 10
21.120426
 20
2.585345
 30
0.0
 10
19.904434
 20
2.683929
 30
0.0
 10
18.723673
 20
2.890092
 30
0.0
 10
17.614175
 20
3.199284
 30
0.0
 10
16.611973
 20
3.606901
 30
0.0
 10
15.753104
 20
4.108366
 30
0.0
 10
15.539202
 20
4.236212
 30
0.0
 10
15.270628
 20
4.356042
 30
0.0
 10
14.945760
 20
4.468252
 30
0.0
 10
14.562974
 20
4.573238
 30
0.0
 10
14.120649
 20
4.671399
 30
0.0
 10
13.617160
 20
4.763130
 30
0.0
 10
13.050886
 20
4.848855
 30
0.0
 10
12.420204
 20
4.928944
 30
0.0
 10
11.402040
 20
5.066263
 30
0.0
 10
10.516184
 20
5.230278
 30
0.0
 10
9.737174
 20
5.431546
 30
0.0
 10
9.039555
 20
5.680625
 30
0.0
 10
8.397869
 20
5.988150
 30
0.0
 10
7.786658
 20
6.364679
 30
0.0
 10
7.180466
 20
6.820767
 30
0.0
 10
6.553835
 20
7.366999
 30
0.0
 10
6.051045
 20
7.875237
 30
0.0
 10
5.487604
 20
8.521985
 30
0.0
 10
4.886064
 20
9.275862
 30
0.0
 10
4.268971
 20
10.105621
 30
0.0
 10
3.658871
 20
10.979937
 30
0.0
 10
3.078317
 20
11.867455
 30
0.0
 10
2.549854
 20
12.736928
 30
0.0
 10
2.096036
 20
13.557004
 30
0.0
 10
1.638452
 20
14.368402
 30
0.0
 10
1.164502
 20
15.070579
 30
0.0
 10
0.664513
 20
15.671606
 30
0.0
 10
0.128827
 20
16.179500
 30
0.0
 10
-0.452227
 20
16.602331
 30
0.0
 10
-1.088308
 20
16.948194
 30
0.0
 10
-1.789089
 20
17.225081
 30
0.0
 10
-2.564233
 20
17.441086
 30
0.0
 10
-3.134058
 20
17.594068
 30
0.0
 10
-3.583154
 20
17.766630
 30
0.0
 10
-3.916836
 20
17.966707
 30
0.0
 10
-4.140412
 20
18.202319
 30
0.0
 10
-4.259194
 20
18.481428
 30
0.0
 10
-4.278482
 20
18.812051
 30
0.0
 10
-4.203610
 20
19.202153
 30
0.0
 10
-4.039881
 20
19.659696
 30
0.0
 10
-3.745174
 20
20.286679
 30
0.0
 10
-3.403195
 20
20.868313
 30
0.0
 10
-3.011911
 20
21.406581
 30
0.0
 10
-2.569292
 20
21.903627
 30
0.0
 10
-2.073307
 20
22.361462
 30
0.0
 10
-1.521923
 20
22.782202
 30
0.0
 10
-0.913109
 20
23.167859
 30
0.0
 10
-0.244833
 20
23.520548
 30
0.0
 10
0.112151
 20
23.692713
 30
0.0
 10
0.447544
 20
23.854558
 30
0.0
 10
0.753845
 20
24.002434
 30
0.0
 10
1.023537
 20
24.132741
 30
0.0
 10
1.249115
 20
24.241829
 30
0.0
 10
1.423066
 20
24.326045
 30
0.0
 10
1.537884
 20
24.381820
 30
0.0
 10
1.586057
 20
24.405368
 30
0.0
 10
1.587115
 20
24.440398
 30
0.0
 10
1.566954
 20
24.528769
 30
0.0
 10
1.527512
 20
24.664606
 30
0.0
 10
1.470741
 20
24.841930
 30
0.0
 10
1.398602
 20
25.054867
 30
0.0
 10
1.313041
 20
25.297489
 30
0.0
 10
1.216016
 20
25.563872
 30
0.0
 10
1.109481
 20
25.848114
 30
0.0
 10
0.757639
 20
26.941848
 30
0.0
 10
0.521292
 20
28.064924
 30
0.0
 10
0.400308
 20
29.214353
 30
0.0
 10
0.394567
 20
30.387172
 30
0.0
 10
0.503924
 20
31.580389
 30
0.0
 10
0.728257
 20
32.791043
 30
0.0
 10
1.067429
 20
34.016143
 30
0.0
 10
1.521316
 20
35.252707
 30
0.0
 10
1.792897
 20
35.949466
 30
0.0
 10
1.986572
 20
36.553364
 30
0.0
 10
2.102243
 20
37.096749
 30
0.0
 10
2.139816
 20
37.611975
 30
0.0
 10
2.099195
 20
38.131391
 30
0.0
 10
1.980283
 20
38.687355
 30
0.0
 10
1.782991
 20
39.312211
 30
0.0
 10
1.507216
 20
40.038314
 30
0.0
 10
1.248605
 20
40.710827
 30
0.0
 10
1.068415
 20
41.257054
 30
0.0
 10
0.968199
 20
41.699543
 30
0.0
 10
0.949520
 20
42.060842
 30
0.0
 10
1.013914
 20
42.363493
 30
0.0
 10
1.162940
 20
42.630042
 30
0.0
 10
1.398152
 20
42.883037
 30
0.0
 10
1.721105
 20
43.145025
 30
0.0
 10
2.288250
 20
43.458032
 30
0.0
 10
2.997145
 20
43.670894
 30
0.0
 10
3.820574
 20
43.784575
 30
0.0
 10
4.731311
 20
43.800027
 30
0.0
 10
5.702142
 20
43.718220
 30
0.0
 10
6.705843
 20
43.540108
 30
0.0
 10
7.715197
 20
43.266656
 30
0.0
 10
8.702984
 20
42.898819
 30
0.0
 10
8.771940
 20
42.896438
 30
0.0
 10
8.853979
 20
42.938951
 30
0.0
 10
8.946043
 20
43.022290
 30
0.0
 10
9.045074
 20
43.142320
 30
0.0
 10
9.148010
 20
43.294922
 30
0.0
 10
9.251793
 20
43.475963
 30
0.0
 10
9.353364
 20
43.681316
 30
0.0
 10
9.449662
 20
43.906855
 30
0.0
 10
10.279191
 20
45.794530
 30
0.0
 10
11.207468
 20
47.537705
 30
0.0
 10
12.206400
 20
49.103339
 30
0.0
 10
13.247889
 20
50.458400
 30
0.0
 10
14.303846
 20
51.569848
 30
0.0
 10
15.346172
 20
52.404642
 30
0.0
 10
16.346776
 20
52.929745
 30
0.0
 10
17.277561
 20
53.112122
 30
0.0
 10
17.504814
 20
53.123605
 30
0.0
 10
17.753263
 20
53.156646
 30
0.0
 10
18.015452
 20
53.209086
 30
0.0
 10
18.283914
 20
53.278772
 30
0.0
 10
18.551191
 20
53.363553
 30
0.0
 10
18.809818
 20
53.461279
 30
0.0
 10
19.052333
 20
53.569795
 30
0.0
 10
19.271278
 20
53.686953
 30
0.0
 10
19.543256
 20
53.832521
 30
0.0
 10
19.835274
 20
53.958635
 30
0.0
 10
20.153367
 20
54.066664
 30
0.0
 10
20.503571
 20
54.157977
 30
0.0
 10
20.891924
 20
54.233939
 30
0.0
 10
21.324462
 20
54.295918
 30
0.0
 10
21.807223
 20
54.345284
 30
0.0
 10
22.346246
 20
54.383402
 30
0.0
 10
23.004489
 20
54.426704
 30
0.0
 10
23.541059
 20
54.479811
 30
0.0
 10
23.991049
 20
54.554439
 30
0.0
 10
24.389540
 20
54.662315
 30
0.0
 10
24.771625
 20
54.815152
 30
0.0
 10
25.172389
 20
55.024673
 30
0.0
 10
25.626919
 20
55.302596
 30
0.0
 10
26.170305
 20
55.660643
 30
0.0
 10
26.722047
 20
56.025530
 30
0.0
 10
27.173307
 20
56.304364
 30
0.0
 10
27.560159
 20
56.508635
 30
0.0
 10
27.918688
 20
56.649833
 30
0.0
 10
28.284974
 20
56.739447
 30
0.0
 10
28.695100
 20
56.788969
 30
0.0
 10
29.185142
 20
56.809898
 30
0.0
 10
29.791183
 20
56.813708
 30
0.0
 10
30.301810
 20
56.805559
 30
0.0
 10
30.761646
 20
56.781270
 30
0.0
 10
31.181140
 20
56.738773
 30
0.0
 10
31.570744
 20
56.676051
 30
0.0
 10
31.940912
 20
56.591066
 30
0.0
 10
32.302092
 20
56.481794
 30
0.0
 10
32.664737
 20
56.346195
 30
0.0
 10
33.039303
 20
56.182243
 30
0.0
 10
33.468015
 20
55.990616
 30
0.0
 10
33.851303
 20
55.844764
 30
0.0
 10
34.226234
 20
55.740365
 30
0.0
 10
34.629863
 20
55.673108
 30
0.0
 10
35.099255
 20
55.638667
 30
0.0
 10
35.671475
 20
55.632741
 30
0.0
 10
36.383582
 20
55.650997
 30
0.0
 10
37.272640
 20
55.689113
 30
0.0
 10
38.527371
 20
55.727498
 30
0.0
 10
39.637636
 20
55.713317
 30
0.0
 10
40.630622
 20
55.641287
 30
0.0
 10
41.533513
 20
55.506119
 30
0.0
 10
42.373488
 20
55.302535
 30
0.0
 10
43.177736
 20
55.025247
 30
0.0
 10
43.973439
 20
54.668977
 30
0.0
 10
44.787778
 20
54.228436
 30
0.0
 10
45.489249
 20
53.784584
 30
0.0
 10
46.124673
 20
53.306088
 30
0.0
 10
46.697736
 20
52.788515
 30
0.0
 10
47.212134
 20
52.227427
 30
0.0
 10
47.671556
 20
51.618391
 30
0.0
 10
48.079694
 20
50.956967
 30
0.0
 10
48.440242
 20
50.238721
 30
0.0
 10
48.756887
 20
49.459217
 30
0.0
 10
48.940701
 20
48.961948
 30
0.0
 10
49.091775
 20
48.587685
 30
0.0
 10
49.226551
 20
48.320572
 30
0.0
 10
49.361470
 20
48.144756
 30
0.0
 10
49.512973
 20
48.044387
 30
0.0
 10
49.697502
 20
48.003607
 30
0.0
 10
49.931494
 20
48.006570
 30
0.0
 10
50.231396
 20
48.037412
 30
0.0
 10
50.775247
 20
48.049372
 30
0.0
 10
51.288602
 20
47.950219
 30
0.0
 10
51.778296
 20
47.734068
 30
0.0
 10
52.251164
 20
47.395023
 30
0.0
 10
52.714047
 20
46.927184
 30
0.0
 10
53.173782
 20
46.324657
 30
0.0
 10
53.637205
 20
45.581548
 30
0.0
 10
54.111155
 20
44.691961
 30
0.0
 10
54.450909
 20
43.999763
 30
0.0
 10
54.714074
 20
43.424327
 30
0.0
 10
54.911319
 20
42.923478
 30
0.0
 10
55.053307
 20
42.455036
 30
0.0
 10
55.150700
 20
41.976821
 30
0.0
 10
55.214166
 20
41.446654
 30
0.0
 10
55.254377
 20
40.822359
 30
0.0
 10
55.282005
 20
40.061754
 30
0.0
 10
55.290974
 20
39.758293
 30
0.0
 10
55.299944
 20
39.454829
 30
0.0
 10
55.308913
 20
39.151365
 30
0.0
 10
55.317882
 20
38.847904
 30
0.0
 10
55.326852
 20
38.544443
 30
0.0
 10
55.335821
 20
38.240979
 30
0.0
 10
55.344791
 20
37.937518
 30
0.0
 10
55.353760
 20
37.634054
 30
0.0
 10
55.594494
 20
37.612544
 30
0.0
 10
55.835225
 20
37.591033
 30
0.0
 10
56.075958
 20
37.569522
 30
0.0
 10
56.316690
 20
37.548012
 30
0.0
 10
56.557423
 20
37.526501
 30
0.0
 10
56.798154
 20
37.504991
 30
0.0
 10
57.038888
 20
37.483480
 30
0.0
 10
57.279619
 20
37.461969
 30
0.0
 10
58.405701
 20
37.312694
 30
0.0
 10
59.429485
 20
37.075019
 30
0.0
 10
60.351388
 20
36.748695
 30
0.0
 10
61.171829
 20
36.333469
 30
0.0
 10
61.891229
 20
35.829091
 30
0.0
 10
62.510004
 20
35.235313
 30
0.0
 10
63.028574
 20
34.551871
 30
0.0
 10
63.447357
 20
33.778547
 30
0.0
 10
63.509550
 20
33.640620
 30
0.0
 10
63.571745
 20
33.502692
 30
0.0
 10
63.633938
 20
33.364792
 30
0.0
 10
63.696131
 20
33.226864
 30
0.0
 10
63.758324
 20
33.088937
 30
0.0
 10
63.820520
 20
32.951010
 30
0.0
 10
63.882712
 20
32.813083
 30
0.0
 10
63.944905
 20
32.675182
 30
0.0
 10
63.843512
 20
32.588213
 30
0.0
 10
63.742121
 20
32.501271
 30
0.0
 10
63.640727
 20
32.414329
 30
0.0
 10
63.539336
 20
32.327361
 30
0.0
 10
63.437943
 20
32.240419
 30
0.0
 10
63.336552
 20
32.153477
 30
0.0
 10
63.235161
 20
32.066508
 30
0.0
 10
63.133767
 20
31.979566
 30
0.0
 10
62.952496
 20
31.825817
 30
0.0
 10
62.747955
 20
31.655293
 30
0.0
 10
62.527152
 20
31.473656
 30
0.0
 10
62.297105
 20
31.286570
 30
0.0
 10
62.064816
 20
31.099694
 30
0.0
 10
61.837301
 20
30.918746
 30
0.0
 10
61.621568
 20
30.749333
 30
0.0
 10
61.424628
 20
30.597171
 30
0.0
 10
60.942851
 20
30.134124
 30
0.0
 10
60.402866
 20
29.454463
 30
0.0
 10
59.829786
 20
28.602902
 30
0.0
 10
59.248727
 20
27.624182
 30
0.0
 10
58.684805
 20
26.563097
 30
0.0
 10
58.163137
 20
25.464336
 30
0.0
 10
57.708837
 20
24.372665
 30
0.0
 10
57.347019
 20
23.332826
 30
0.0
 10
57.215426
 20
22.898830
 30
0.0
 10
57.092659
 20
22.482191
 30
0.0
 10
56.981410
 20
22.092883
 30
0.0
 10
56.884361
 20
21.740882
 30
0.0
 10
56.804203
 20
21.436108
 30
0.0
 10
56.743621
 20
21.188564
 30
0.0
 10
56.705299
 20
21.008171
 30
0.0
 10
56.691937
 20
20.904905
 30
0.0
 10
56.721642
 20
20.830583
 30
0.0
 10
56.806777
 20
20.733164
 30
0.0
 10
56.941373
 20
20.616773
 30
0.0
 10
57.119459
 20
20.485540
 30
0.0
 10
57.335068
 20
20.343644
 30
0.0
 10
57.582228
 20
20.195186
 30
0.0
 10
57.854969
 20
20.044348
 30
0.0
 10
58.147325
 20
19.895228
 30
0.0
 10
58.767617
 20
19.563706
 30
0.0
 10
59.361683
 20
19.188553
 30
0.0
 10
59.930796
 20
18.768633
 30
0.0
 10
60.476229
 20
18.302755
 30
0.0
 10
60.999255
 20
17.789754
 30
0.0
 10
61.501148
 20
17.228494
 30
0.0
 10
61.983182
 20
16.617756
 30
0.0
 10
62.446626
 20
15.956430
 30
0.0
 10
62.924757
 20
15.161093
 30
0.0
 10
63.199320
 20
14.488126
 30
0.0
 10
63.250861
 20
13.907021
 30
0.0
 10
63.059922
 20
13.387327
 30
0.0
 10
62.607051
 20
12.898536
 30
0.0
 10
61.872787
 20
12.410194
 30
0.0
 10
60.837682
 20
11.891796
 30
0.0
 10
59.482275
 20
11.312915
 30
0.0
 10
58.445087
 20
10.882438
 30
0.0
 10
57.535037
 20
10.482309
 30
0.0
 10
56.704217
 20
10.086254
 30
0.0
 10
55.904715
 20
9.668054
 30
0.0
 10
55.088624
 20
9.201487
 30
0.0
 10
54.208035
 20
8.660309
 30
0.0
 10
53.215041
 20
8.018271
 30
0.0
 10
52.061728
 20
7.249128
 30
0.0
 10
50.776149
 20
6.411457
 30
0.0
 10
49.617214
 20
5.722270
 30
0.0
 10
48.549340
 20
5.168127
 30
0.0
 10
47.536947
 20
4.735587
 30
0.0
 10
46.544444
 20
4.411260
 30
0.0
 10
45.536255
 20
4.181682
 30
0.0
 10
44.476795
 20
4.033409
 30
0.0
 10
43.330480
 20
3.953029
 30
0.0
 10
42.792741
 20
3.925459
 30
0.0
 10
42.279003
 20
3.890005
 30
0.0
 10
41.801366
 20
3.848095
 30
0.0
 10
41.371945
 20
3.801237
 30
0.0
 10
41.002843
 20
3.750887
 30
0.0
 10
40.706171
 20
3.698553
 30
0.0
 10
40.494034
 20
3.645662
 30
0.0
 10
40.378541
 20
3.593725
 30
0.0
 10
40.310458
 20
3.522658
 30
0.0
 10
40.258528
 20
3.432540
 30
0.0
 10
40.222762
 20
3.323479
 30
0.0
 10
40.203183
 20
3.195633
 30
0.0
 10
40.199770
 20
3.049080
 30
0.0
 10
40.212549
 20
2.883980
 30
0.0
 10
40.241539
 20
2.700439
 30
0.0
 10
40.286746
 20
2.498588
 30
0.0
 10
40.489160
 20
1.699547
 30
0.0
 10
40.629744
 20
1.110029
 30
0.0
 10
40.701732
 20
0.698311
 30
0.0
 10
40.698345
 20
0.432616
 30
0.0
 10
40.612845
 20
0.281248
 30
0.0
 10
40.438450
 20
0.212430
 30
0.0
 10
40.168398
 20
0.194438
 30
0.0
 10
39.795926
 20
0.194438
 30
0.0
 10
39.458489
 20
0.198407
 30
0.0
 10
39.195959
 20
0.221955
 30
0.0
 10
38.990270
 20
0.282650
 30
0.0
 10
38.823347
 20
0.397876
 30
0.0
 10
38.677125
 20
0.585069
 30
0.0
 10
38.533533
 20
0.861638
 30
0.0
 10
38.374502
 20
1.245098
 30
0.0
 10
38.181965
 20
1.752834
 30
0.0
 10
38.181952
 20
1.752834
 30
0.0
 10
38.181939
 20
1.752834
 30
0.0
 10
38.181925
 20
1.752834
 30
0.0
 10
38.181910
 20
1.752834
 30
0.0
 10
38.181896
 20
1.752834
 30
0.0
 10
38.181883
 20
1.752834
 30
0.0
 10
38.181870
 20
1.752834
 30
0.0
  0
LWPOLYLINE
  5
102
100
AcDbEntity
  8
rose
 62
7
100
AcDbPolyline
 90
112
 70
1
 10
25.230928
 20
5.235887
 30
0.0
 10
25.880988
 20
5.377624
 30
0.0
 10
26.346678
 20
5.712957
 30
0.0
 10
26.628130
 20
6.107027
 30
0.0
 10
26.725476
 20
6.425083
 30
0.0
 10
26.638838
 20
6.649317
 30
0.0
 10
26.368348
 20
6.855745
 30
0.0
 10
25.914135
 20
7.050029
 30
0.0
 10
25.276328
 20
7.237830
 30
0.0
 10
24.588359
 20
7.436585
 30
0.0
 10
23.887866
 20
7.685611
 30
0.0
 10
23.167113
 20
7.988955
 30
0.0
 10
22.418358
 20
8.350508
 30
0.0
 10
21.633871
 20
8.774238
 30
0.0
 10
20.805911
 20
9.264141
 30
0.0
 10
19.926743
 20
9.824158
 30
0.0
 10
18.988629
 20
10.458258
 30
0.0
 10
17.391057
 20
11.577868
 30
0.0
 10
15.996367
 20
12.582518
 30
0.0
 10
14.790346
 20
13.483688
 30
0.0
 10
13.758786
 20
14.292890
 30
0.0
 10
12.887474
 20
15.021552
 30
0.0
 10
12.162196
 20
15.681184
 30
0.0
 10
11.568738
 20
16.283296
 30
0.0
 10
11.092893
 20
16.839345
 30
0.0
 10
10.624541
 20
17.471355
 30
0.0
 10
10.134173
 20
18.196128
 30
0.0
 10
9.643554
 20
18.975537
 30
0.0
 10
9.174445
 20
19.771350
 30
0.0
 10
8.748614
 20
20.545415
 30
0.0
 10
8.387823
 20
21.259525
 30
0.0
 10
8.113839
 20
21.875528
 30
0.0
 10
7.948424
 20
22.355244
 30
0.0
 10
7.892227
 20
22.533626
 30
0.0
 10
7.818530
 20
22.672718
 30
0.0
 10
7.713736
 20
22.777254
 30
0.0
 10
7.564241
 20
22.851973
 30
0.0
 10
7.356448
 20
22.901609
 30
0.0
 10
7.076755
 20
22.930924
 30
0.0
 10
6.711561
 20
22.944683
 30
0.0
 10
6.247265
 20
22.947593
 30
0.0
 10
5.176089
 20
22.893856
 30
0.0
 10
4.102884
 20
22.742144
 30
0.0
 10
3.048215
 20
22.500077
 30
0.0
 10
2.032657
 20
22.175142
 30
0.0
 10
1.076782
 20
21.774960
 30
0.0
 10
0.201157
 20
21.307045
 30
0.0
 10
-0.573641
 20
20.778989
 30
0.0
 10
-1.227043
 20
20.198335
 30
0.0
 10
-1.505461
 20
19.886524
 30
0.0
 10
-1.711971
 20
19.602255
 30
0.0
 10
-1.846035
 20
19.349869
 30
0.0
 10
-1.907120
 20
19.133705
 30
0.0
 10
-1.894684
 20
18.958048
 30
0.0
 10
-1.808197
 20
18.827212
 30
0.0
 10
-1.647122
 20
18.745561
 30
0.0
 10
-1.410923
 20
18.717383
 30
0.0
 10
-1.310910
 20
18.701244
 30
0.0
 10
-1.155915
 20
18.655312
 30
0.0
 10
-0.953739
 20
18.582657
 30
0.0
 10
-0.712190
 20
18.486561
 30
0.0
 10
-0.439066
 20
18.370197
 30
0.0
 10
-0.142175
 20
18.236794
 30
0.0
 10
0.170682
 20
18.089606
 30
0.0
 10
0.491698
 20
17.931809
 30
0.0
 10
1.092514
 20
17.598725
 30
0.0
 10
1.633298
 20
17.225001
 30
0.0
 10
2.131403
 20
16.789524
 30
0.0
 10
2.604184
 20
16.271205
 30
0.0
 10
3.068998
 20
15.648879
 30
0.0
 10
3.543200
 20
14.901457
 30
0.0
 10
4.044144
 20
14.007854
 30
0.0
 10
4.589188
 20
12.946902
 30
0.0
 10
5.017805
 20
12.177943
 30
0.0
 10
5.543664
 20
11.383188
 30
0.0
 10
6.140363
 20
10.592111
 30
0.0
 10
6.781493
 20
9.834238
 30
0.0
 10
7.440655
 20
9.139072
 30
0.0
 10
8.091447
 20
8.536087
 30
0.0
 10
8.707463
 20
8.054836
 30
0.0
 10
9.262305
 20
7.724795
 30
0.0
 10
9.507703
 20
7.626344
 30
0.0
 10
9.827672
 20
7.526093
 30
0.0
 10
10.208701
 20
7.426848
 30
0.0
 10
10.637273
 20
7.331413
 30
0.0
 10
11.099881
 20
7.242539
 30
0.0
 10
11.583007
 20
7.163085
 30
0.0
 10
12.073142
 20
7.095775
 30
0.0
 10
12.556774
 20
7.043441
 30
0.0
 10
13.180466
 20
6.978168
 30
0.0
 10
13.739038
 20
6.901968
 30
0.0
 10
14.245829
 20
6.811348
 30
0.0
 10
14.714173
 20
6.702842
 30
0.0
 10
15.157405
 20
6.572932
 30
0.0
 10
15.588866
 20
6.418124
 30
0.0
 10
16.021889
 20
6.234980
 30
0.0
 10
16.469812
 20
6.019953
 30
0.0
 10
17.761505
 20
5.421783
 30
0.0
 10
18.984708
 20
4.967626
 30
0.0
 10
20.145583
 20
4.656900
 30
0.0
 10
21.250297
 20
4.489101
 30
0.0
 10
22.305018
 20
4.551490
 30
0.0
 10
23.315914
 20
4.814247
 30
0.0
 10
24.289147
 20
5.101135
 30
0.0
 10
25.230888
 20
5.235940
 30
0.0
 10
25.230894
 20
5.235940
 30
0.0
 10
25.230899
 20
5.235940
 30
0.0
 10
25.230904
 20
5.235940
 30
0.0
 10
25.230910
 20
5.235940
 30
0.0
 10
25.230915
 20
5.235940
 30
0.0
 10
25.230920
 20
5.235940
 30
0.0
 10
25.230925
 20
5.235940
 30
0.0
  0
LWPOLYLINE
  5
103
100
AcDbEntity
  8
rose
 62
7
100
AcDbPolyline
 90
72
 70
1
 10
45.192961
 20
6.158753
 30
0.0
 10
45.841635
 20
6.354730
 30
0.0
 10
46.528961
 20
6.618784
 30
0.0
 10
47.256147
 20
6.951577
 30
0.0
 10
48.024407
 20
7.353770
 30
0.0
 10
48.834952
 20
7.826025
 30
0.0
 10
49.688995
 20
8.369056
 30
0.0
 10
50.587742
 20
8.983471
 30
0.0
 10
51.532408
 20
9.670011
 30
0.0
 10
52.336677
 20
10.230928
 30
0.0
 10
53.236157
 20
10.788617
 30
0.0
 10
54.203000
 20
11.329610
 30
0.0
 10
55.209361
 20
11.840467
 30
0.0
 10
56.227390
 20
12.307721
 30
0.0
 10
57.229243
 20
12.717905
 30
0.0
 10
58.187068
 20
13.057603
 30
0.0
 10
59.073025
 20
13.313349
 30
0.0
 10
59.423082
 20
13.403678
 30
0.0
 10
59.758521
 20
13.496309
 30
0.0
 10
60.071367
 20
13.588648
 30
0.0
 10
60.353640
 20
13.678051
 30
0.0
 10
60.597372
 20
13.761871
 30
0.0
 10
60.794581
 20
13.837515
 30
0.0
 10
60.937295
 20
13.902365
 30
0.0
 10
61.017535
 20
13.953747
 30
0.0
 10
61.107046
 20
14.093685
 30
0.0
 10
61.137341
 20
14.282544
 30
0.0
 10
61.110838
 20
14.513975
 30
0.0
 10
61.029952
 20
14.781575
 30
0.0
 10
60.897099
 20
15.078940
 30
0.0
 10
60.714698
 20
15.399721
 30
0.0
 10
60.485159
 20
15.737461
 30
0.0
 10
60.210905
 20
16.085838
 30
0.0
 10
59.245176
 20
16.965895
 30
0.0
 10
58.056782
 20
17.615023
 30
0.0
 10
56.697682
 20
18.031081
 30
0.0
 10
55.219831
 20
18.211950
 30
0.0
 10
53.675186
 20
18.155461
 30
0.0
 10
52.115705
 20
17.859525
 30
0.0
 10
50.593344
 20
17.321945
 30
0.0
 10
49.160059
 20
16.540604
 30
0.0
 10
48.713778
 20
16.238873
 30
0.0
 10
48.354924
 20
15.966643
 30
0.0
 10
48.057758
 20
15.687508
 30
0.0
 10
47.796540
 20
15.365034
 30
0.0
 10
47.545532
 20
14.962841
 30
0.0
 10
47.278996
 20
14.444469
 30
0.0
 10
46.971196
 20
13.773539
 30
0.0
 10
46.596390
 20
12.913617
 30
0.0
 10
46.230953
 20
12.190141
 30
0.0
 10
45.766832
 20
11.479602
 30
0.0
 10
45.210447
 20
10.788114
 30
0.0
 10
44.568222
 20
10.121814
 30
0.0
 10
43.846571
 20
9.486840
 30
0.0
 10
43.051919
 20
8.889279
 30
0.0
 10
42.190682
 20
8.335295
 30
0.0
 10
41.269281
 20
7.830999
 30
0.0
 10
40.845152
 20
7.610681
 30
0.0
 10
40.462162
 20
7.397823
 30
0.0
 10
40.126562
 20
7.196740
 30
0.0
 10
39.844601
 20
7.011770
 30
0.0
 10
39.622526
 20
6.847226
 30
0.0
 10
39.466591
 20
6.707473
 30
0.0
 10
39.383038
 20
6.596824
 30
0.0
 10
39.378117
 20
6.519619
 30
0.0
 10
39.672413
 20
6.241753
 30
0.0
 10
40.153055
 20
6.026515
 30
0.0
 10
40.788663
 20
5.875808
 30
0.0
 10
41.547861
 20
5.791618
 30
0.0
 10
42.399266
 20
5.775743
 30
0.0
 10
43.311504
 20
5.830379
 30
0.0
 10
44.253193
 20
5.957379
 30
0.0
  0
LWPOLYLINE
  5
104
100
AcDbEntity
  8
rose
 62
7
100
AcDbPolyline
 90
72
 70
1
 10
36.204123
 20
8.687296
 30
0.0
 10
36.927282
 20
8.857185
 30
0.0
 10
37.753092
 20
9.112931
 30
0.0
 10
38.640842
 20
9.436834
 30
0.0
 10
39.549831
 20
9.811167
 30
0.0
 10
40.439347
 20
10.218307
 30
0.0
 10
41.268691
 20
10.640529
 30
0.0
 10
41.997155
 20
11.060132
 30
0.0
 10
42.584030
 20
11.459467
 30
0.0
 10
42.886996
 20
11.723019
 30
0.0
 10
43.198876
 20
12.049673
 30
0.0
 10
43.500967
 20
12.412364
 30
0.0
 10
43.774554
 20
12.783945
 30
0.0
 10
44.000934
 20
13.137269
 30
0.0
 10
44.161393
 20
13.445244
 30
0.0
 10
44.237228
 20
13.680723
 30
0.0
 10
44.209730
 20
13.816587
 30
0.0
 10
44.159234
 20
13.826641
 30
0.0
 10
44.047771
 20
13.826641
 30
0.0
 10
43.882380
 20
13.814999
 30
0.0
 10
43.670102
 20
13.793833
 30
0.0
 10
43.417983
 20
13.763749
 30
0.0
 10
43.133064
 20
13.725544
 30
0.0
 10
42.822382
 20
13.680009
 30
0.0
 10
42.492982
 20
13.627965
 30
0.0
 10
41.797609
 20
13.543378
 30
0.0
 10
41.093381
 20
13.520624
 30
0.0
 10
40.359078
 20
13.563751
 30
0.0
 10
39.573469
 20
13.676490
 30
0.0
 10
38.715339
 20
13.862704
 30
0.0
 10
37.763453
 20
14.126229
 30
0.0
 10
36.696592
 20
14.470954
 30
0.0
 10
35.493532
 20
14.900717
 30
0.0
 10
34.871145
 20
15.127332
 30
0.0
 10
34.369686
 20
15.296771
 30
0.0
 10
33.961881
 20
15.412712
 30
0.0
 10
33.620455
 20
15.478752
 30
0.0
 10
33.318136
 20
15.498595
 30
0.0
 10
33.027648
 20
15.475841
 30
0.0
 10
32.721721
 20
15.414061
 30
0.0
 10
32.373074
 20
15.316933
 30
0.0
 10
32.135251
 20
15.235891
 30
0.0
 10
31.882553
 20
15.132148
 30
0.0
 10
31.622711
 20
15.009963
 30
0.0
 10
31.363464
 20
14.873623
 30
0.0
 10
31.112544
 20
14.727441
 30
0.0
 10
30.877689
 20
14.575676
 30
0.0
 10
30.666634
 20
14.422588
 30
0.0
 10
30.487114
 20
14.272517
 30
0.0
 10
30.264084
 20
14.054500
 30
0.0
 10
30.079883
 20
13.836722
 30
0.0
 10
29.928380
 20
13.603888
 30
0.0
 10
29.803447
 20
13.340707
 30
0.0
 10
29.698950
 20
13.031912
 30
0.0
 10
29.608756
 20
12.662236
 30
0.0
 10
29.526738
 20
12.216387
 30
0.0
 10
29.446765
 20
11.679045
 30
0.0
 10
29.391507
 20
11.292912
 30
0.0
 10
29.333663
 20
10.916304
 30
0.0
 10
29.274955
 20
10.558641
 30
0.0
 10
29.217093
 20
10.229288
 30
0.0
 10
29.161798
 20
9.937690
 30
0.0
 10
29.110781
 20
9.693268
 30
0.0
 10
29.065762
 20
9.505441
 30
0.0
 10
29.028456
 20
9.383627
 30
0.0
 10
29.117798
 20
9.090124
 30
0.0
 10
29.579493
 20
8.841945
 30
0.0
 10
30.342736
 20
8.645942
 30
0.0
 10
31.336728
 20
8.508941
 30
0.0
 10
32.490665
 20
8.437847
 30
0.0
 10
33.733744
 20
8.440493
 30
0.0
 10
34.995166
 20
8.521747
 30
0.0
  0
LWPOLYLINE
  5
105
100
AcDbEntity
  8
rose
 62
7
100
AcDbPolyline
 90
72
 70
1
 10
27.165874
 20
10.430000
 30
0.0
 10
27.358552
 20
11.139110
 30
0.0
 10
27.491492
 20
11.940030
 30
0.0
 10
27.565149
 20
12.803841
 30
0.0
 10
27.579992
 20
13.701678
 30
0.0
 10
27.536471
 20
14.604674
 30
0.0
 10
27.435048
 20
15.483911
 30
0.0
 10
27.276185
 20
16.310549
 30
0.0
 10
27.060340
 20
17.055668
 30
0.0
 10
26.834783
 20
17.624707
 30
0.0
 10
26.566154
 20
18.164642
 30
0.0
 10
26.248645
 20
18.682696
 30
0.0
 10
25.876448
 20
19.186066
 30
0.0
 10
25.443751
 20
19.681974
 30
0.0
 10
24.944752
 20
20.177618
 30
0.0
 10
24.373639
 20
20.680220
 30
0.0
 10
23.724603
 20
21.197004
 30
0.0
 10
22.556118
 20
22.113653
 30
0.0
 10
21.261920
 20
23.173177
 30
0.0
 10
19.890054
 20
24.333242
 30
0.0
 10
18.488575
 20
25.551516
 30
0.0
 10
17.105527
 20
26.785691
 30
0.0
 10
15.788960
 20
27.993460
 30
0.0
 10
14.586924
 20
29.132491
 30
0.0
 10
13.547469
 20
30.160450
 30
0.0
 10
12.982840
 20
30.731818
 30
0.0
 10
12.450438
 20
31.264847
 30
0.0
 10
11.962316
 20
31.747844
 30
0.0
 10
11.530532
 20
32.169219
 30
0.0
 10
11.167143
 20
32.517252
 30
0.0
 10
10.884206
 20
32.780301
 30
0.0
 10
10.693775
 20
32.946671
 30
0.0
 10
10.607909
 20
33.004720
 30
0.0
 10
10.486688
 20
32.822026
 30
0.0
 10
10.348427
 20
32.323921
 30
0.0
 10
10.203674
 20
31.585469
 30
0.0
 10
10.062971
 20
30.681653
 30
0.0
 10
9.936868
 20
29.687508
 30
0.0
 10
9.835906
 20
28.678043
 30
0.0
 10
9.770636
 20
27.728269
 30
0.0
 10
9.751586
 20
26.913246
 30
0.0
 10
9.792750
 20
26.093462
 30
0.0
 10
9.896104
 20
25.213775
 30
0.0
 10
10.056108
 20
24.296253
 30
0.0
 10
10.267229
 20
23.362857
 30
0.0
 10
10.523936
 20
22.435625
 30
0.0
 10
10.820690
 20
21.536597
 30
0.0
 10
11.151959
 20
20.687735
 30
0.0
 10
11.512205
 20
19.911077
 30
0.0
 10
11.996847
 20
19.115554
 30
0.0
 10
12.673442
 20
18.242562
 30
0.0
 10
13.520550
 20
17.311864
 30
0.0
 10
14.516741
 20
16.343225
 30
0.0
 10
15.640577
 20
15.356435
 30
0.0
 10
16.870624
 20
14.371233
 30
0.0
 10
18.185450
 20
13.407409
 30
0.0
 10
19.563611
 20
12.484754
 30
0.0
 10
20.810808
 20
11.702302
 30
0.0
 10
21.926397
 20
11.031954
 30
0.0
 10
22.916044
 20
10.470905
 30
0.0
 10
23.785422
 20
10.016324
 30
0.0
 10
24.540207
 20
9.665434
 30
0.0
 10
25.186063
 20
9.415403
 30
0.0
 10
25.728662
 20
9.263426
 30
0.0
 10
26.173678
 20
9.206673
 30
0.0
 10
26.331237
 20
9.216198
 30
0.0
 10
26.470989
 20
9.256521
 30
0.0
 10
26.597047
 20
9.332747
 30
0.0
 10
26.713522
 20
9.449984
 30
0.0
 10
26.824528
 20
9.613232
 30
0.0
 10
26.934179
 20
9.827624
 30
0.0
 10
27.046587
 20
10.098213
 30
0.0
  0
LWPOLYLINE
  5
106
100
AcDbEntity
  8
rose
 62
7
100
AcDbPolyline
 90
64
 70
1
 10
44.124071
 20
15.802231
 30
0.0
 10
44.665282
 20
16.076472
 30
0.0
 10
45.196194
 20
16.421250
 30
0.0
 10
45.709795
 20
16.829343
 30
0.0
 10
46.199071
 20
17.293502
 30
0.0
 10
46.657009
 20
17.806502
 30
0.0
 10
47.076593
 20
18.361095
 30
0.0
 10
47.450814
 20
18.950058
 30
0.0
 10
47.772658
 20
19.566166
 30
0.0
 10
48.243590
 20
20.698609
 30
0.0
 10
48.701621
 20
22.021261
 30
0.0
 10
49.123065
 20
23.434082
 30
0.0
 10
49.484234
 20
24.837062
 30
0.0
 10
49.761449
 20
26.130159
 30
0.0
 10
49.931020
 20
27.213337
 30
0.0
 10
49.969260
 20
27.986581
 30
0.0
 10
49.852489
 20
28.349881
 30
0.0
 10
49.766846
 20
28.364433
 30
0.0
 10
49.618505
 20
28.345912
 30
0.0
 10
49.415609
 20
28.297070
 30
0.0
 10
49.166298
 20
28.220658
 30
0.0
 10
48.878714
 20
28.119296
 30
0.0
 10
48.560995
 20
27.995736
 30
0.0
 10
48.221283
 20
27.852676
 30
0.0
 10
47.867721
 20
27.692762
 30
0.0
 10
47.474460
 20
27.521629
 30
0.0
 10
47.020975
 20
27.346369
 30
0.0
 10
46.523381
 20
27.171929
 30
0.0
 10
45.997800
 20
27.003284
 30
0.0
 10
45.460344
 20
26.845381
 30
0.0
 10
44.927137
 20
26.703141
 30
0.0
 10
44.414295
 20
26.581538
 30
0.0
 10
43.937940
 20
26.485521
 30
0.0
 10
43.443330
 20
26.388895
 30
0.0
 10
42.878188
 20
26.265520
 30
0.0
 10
42.262294
 20
26.120476
 30
0.0
 10
41.615433
 20
25.958842
 30
0.0
 10
40.957393
 20
25.785698
 30
0.0
 10
40.307960
 20
25.606126
 30
0.0
 10
39.686917
 20
25.425177
 30
0.0
 10
39.114052
 20
25.247933
 30
0.0
 10
38.015569
 20
24.880189
 30
0.0
 10
37.164426
 20
24.538903
 30
0.0
 10
36.523912
 20
24.180631
 30
0.0
 10
36.057306
 20
23.762007
 30
0.0
 10
35.727897
 20
23.239614
 30
0.0
 10
35.498967
 20
22.570059
 30
0.0
 10
35.333800
 20
21.709926
 30
0.0
 10
35.195683
 20
20.615794
 30
0.0
 10
35.078030
 20
19.491580
 30
0.0
 10
35.022434
 20
18.624991
 30
0.0
 10
35.049977
 20
17.968824
 30
0.0
 10
35.181739
 20
17.475985
 30
0.0
 10
35.438811
 20
17.099271
 30
0.0
 10
35.842274
 20
16.791534
 30
0.0
 10
36.413213
 20
16.505652
 30
0.0
 10
37.172712
 20
16.194449
 30
0.0
 10
38.273204
 20
15.788790
 30
0.0
 10
39.265733
 20
15.487404
 30
0.0
 10
40.171197
 20
15.289072
 30
0.0
 10
41.010500
 20
15.192631
 30
0.0
 10
41.804539
 20
15.196865
 30
0.0
 10
42.574214
 20
15.300687
 30
0.0
 10
43.340426
 20
15.502855
 30
0.0
  0
LWPOLYLINE
  5
107
100
AcDbEntity
  8
rose
 62
7
100
AcDbPolyline
 90
64
 70
1
 10
32.019144
 20
16.709249
 30
0.0
 10
32.662999
 20
16.937373
 30
0.0
 10
33.152933
 20
17.170920
 30
0.0
 10
33.507454
 20
17.453310
 30
0.0
 10
33.745065
 20
17.828039
 30
0.0
 10
33.884276
 20
18.338606
 30
0.0
 10
33.943587
 20
19.028454
 30
0.0
 10
33.941471
 20
19.941107
 30
0.0
 10
33.896505
 20
21.119984
 30
0.0
 10
33.862456
 20
21.794381
 30
0.0
 10
33.823358
 20
22.322383
 30
0.0
 10
33.770743
 20
22.730555
 30
0.0
 10
33.696136
 20
23.045462
 30
0.0
 10
33.591062
 20
23.293615
 30
0.0
 10
33.447049
 20
23.501604
 30
0.0
 10
33.255626
 20
23.695967
 30
0.0
 10
33.008315
 20
23.903268
 30
0.0
 10
32.196145
 20
24.423677
 30
0.0
 10
31.209834
 20
24.845846
 30
0.0
 10
30.097798
 20
25.163795
 30
0.0
 10
28.908459
 20
25.371440
 30
0.0
 10
27.690234
 20
25.462854
 30
0.0
 10
26.491542
 20
25.431951
 30
0.0
 10
25.360804
 20
25.272724
 30
0.0
 10
24.346437
 20
24.979196
 30
0.0
 10
23.958285
 20
24.815101
 30
0.0
 10
23.627929
 20
24.647752
 30
0.0
 10
23.363576
 20
24.484848
 30
0.0
 10
23.173433
 20
24.334195
 30
0.0
 10
23.065719
 20
24.203491
 30
0.0
 10
23.048627
 20
24.100568
 30
0.0
 10
23.130386
 20
24.033099
 30
0.0
 10
23.319200
 20
24.009022
 30
0.0
 10
23.405759
 20
23.969863
 30
0.0
 10
23.564702
 20
23.857654
 30
0.0
 10
23.786960
 20
23.680251
 30
0.0
 10
24.063460
 20
23.445539
 30
0.0
 10
24.385137
 20
23.161376
 30
0.0
 10
24.742918
 20
22.835595
 30
0.0
 10
25.127735
 20
22.476132
 30
0.0
 10
25.530518
 20
22.090793
 30
0.0
 10
26.184460
 20
21.427430
 30
0.0
 10
26.772653
 20
20.764358
 30
0.0
 10
27.301391
 20
20.091761
 30
0.0
 10
27.776951
 20
19.399849
 30
0.0
 10
28.205621
 20
18.678780
 30
0.0
 10
28.593679
 20
17.918765
 30
0.0
 10
28.947417
 20
17.109934
 30
0.0
 10
29.273116
 20
16.242524
 30
0.0
 10
29.321839
 20
16.123647
 30
0.0
 10
29.377079
 20
16.029535
 30
0.0
 10
29.439901
 20
15.959685
 30
0.0
 10
29.511368
 20
15.913647
 30
0.0
 10
29.592537
 20
15.890893
 30
0.0
 10
29.684477
 20
15.891025
 30
0.0
 10
29.788246
 20
15.913515
 30
0.0
 10
29.904907
 20
15.957886
 30
0.0
 10
30.031216
 20
16.010379
 30
0.0
 10
30.214286
 20
16.080864
 30
0.0
 10
30.445447
 20
16.166271
 30
0.0
 10
30.716026
 20
16.263532
 30
0.0
 10
31.017352
 20
16.369551
 30
0.0
 10
31.340755
 20
16.481258
 30
0.0
 10
31.677559
 20
16.595558
 30
0.0
  0
LWPOLYLINE
  5
108
100
AcDbEntity
  8
rose
 62
7
100
AcDbPolyline
 90
88
 70
1
 10
52.709327
 20
20.303375
 30
0.0
 10
53.219621
 20
20.410584
 30
0.0
 10
53.631950
 20
20.524698
 30
0.0
 10
53.955641
 20
20.653101
 30
0.0
 10
54.200024
 20
20.803066
 30
0.0
 10
54.374426
 20
20.981925
 30
0.0
 10
54.488181
 20
21.197057
 30
0.0
 10
54.550615
 20
21.455714
 30
0.0
 10
54.571067
 20
21.765276
 30
0.0
 10
54.621015
 20
22.243802
 30
0.0
 10
54.754593
 20
22.898010
 30
0.0
 10
54.956377
 20
23.678716
 30
0.0
 10
55.210959
 20
24.536627
 30
0.0
 10
55.502921
 20
25.422558
 30
0.0
 10
55.816844
 20
26.287242
 30
0.0
 10
56.137315
 20
27.081495
 30
0.0
 10
56.448918
 20
27.756050
 30
0.0
 10
56.839839
 20
28.466562
 30
0.0
 10
57.283363
 20
29.158288
 30
0.0
 10
57.771096
 20
29.821810
 30
0.0
 10
58.294645
 20
30.447735
 30
0.0
 10
58.845621
 20
31.026617
 30
0.0
 10
59.415632
 20
31.549089
 30
0.0
 10
59.996278
 20
32.005707
 30
0.0
 10
60.579176
 20
32.387104
 30
0.0
 10
61.008603
 20
32.653063
 30
0.0
 10
61.328838
 20
32.889256
 30
0.0
 10
61.542852
 20
33.105844
 30
0.0
 10
61.653617
 20
33.312986
 30
0.0
 10
61.664095
 20
33.520869
 30
0.0
 10
61.577264
 20
33.739653
 30
0.0
 10
61.396093
 20
33.979498
 30
0.0
 10
61.123551
 20
34.250564
 30
0.0
 10
60.589431
 20
34.683977
 30
0.0
 10
60.008891
 20
35.053045
 30
0.0
 10
59.389530
 20
35.355461
 30
0.0
 10
58.738955
 20
35.588984
 30
0.0
 10
58.064765
 20
35.751335
 30
0.0
 10
57.374565
 20
35.840238
 30
0.0
 10
56.675957
 20
35.853414
 30
0.0
 10
55.976544
 20
35.788605
 30
0.0
 10
55.606855
 20
35.727761
 30
0.0
 10
55.313813
 20
35.661401
 30
0.0
 10
55.082911
 20
35.578065
 30
0.0
 10
54.899640
 20
35.466284
 30
0.0
 10
54.749489
 20
35.314596
 30
0.0
 10
54.617951
 20
35.111536
 30
0.0
 10
54.490515
 20
34.845638
 30
0.0
 10
54.352672
 20
34.505437
 30
0.0
 10
54.243119
 20
34.235138
 30
0.0
 10
54.095436
 20
33.889037
 30
0.0
 10
53.916112
 20
33.481473
 30
0.0
 10
53.711629
 20
33.026734
 30
0.0
 10
53.488472
 20
32.539080
 30
0.0
 10
53.253122
 20
32.032800
 30
0.0
 10
53.012066
 20
31.522234
 30
0.0
 10
52.771785
 20
31.021616
 30
0.0
 10
52.444802
 20
30.329836
 30
0.0
 10
52.177599
 20
29.720951
 30
0.0
 10
51.962065
 20
29.167284
 30
0.0
 10
51.790088
 20
28.641160
 30
0.0
 10
51.653560
 20
28.114957
 30
0.0
 10
51.544372
 20
27.560999
 30
0.0
 10
51.454409
 20
26.951611
 30
0.0
 10
51.375563
 20
26.259117
 30
0.0
 10
51.281437
 20
25.389511
 30
0.0
 10
51.180798
 20
24.557476
 30
0.0
 10
51.073964
 20
23.765050
 30
0.0
 10
50.961255
 20
23.014215
 30
0.0
 10
50.842988
 20
22.307011
 30
0.0
 10
50.719486
 20
21.645473
 30
0.0
 10
50.591068
 20
21.031561
 30
0.0
 10
50.458054
 20
20.467337
 30
0.0
 10
50.406487
 20
20.248606
 30
0.0
 10
50.376285
 20
20.079696
 30
0.0
 10
50.369670
 20
19.956374
 30
0.0
 10
50.388905
 20
19.874326
 30
0.0
 10
50.436194
 20
19.829347
 30
0.0
 10
50.513781
 20
19.817176
 30
0.0
 10
50.623895
 20
19.833580
 30
0.0
 10
50.768768
 20
19.874168
 30
0.0
 10
50.898440
 20
19.911289
 30
0.0
 10
51.076287
 20
19.956638
 30
0.0
 10
51.294349
 20
20.008496
 30
0.0
 10
51.544666
 20
20.065064
 30
0.0
 10
51.819282
 20
20.124622
 30
0.0
 10
52.110236
 20
20.185370
 30
0.0
 10
52.409573
 20
20.245563
 30
0.0
  0
LWPOLYLINE
  5
109
100
AcDbEntity
  8
rose
 62
7
100
AcDbPolyline
 90
88
 70
1
 10
6.447335
 20
24.799041
 30
0.0
 10
6.566387
 20
24.799041
 30
0.0
 10
6.685436
 20
24.799041
 30
0.0
 10
6.804488
 20
24.799041
 30
0.0
 10
6.923540
 20
24.799041
 30
0.0
 10
7.042592
 20
24.799041
 30
0.0
 10
7.161641
 20
24.799041
 30
0.0
 10
7.280693
 20
24.799041
 30
0.0
 10
7.399745
 20
24.799041
 30
0.0
 10
7.421493
 20
25.157022
 30
0.0
 10
7.443242
 20
25.515003
 30
0.0
 10
7.464991
 20
25.872984
 30
0.0
 10
7.486740
 20
26.230966
 30
0.0
 10
7.508488
 20
26.588947
 30
0.0
 10
7.530237
 20
26.946928
 30
0.0
 10
7.551986
 20
27.304935
 30
0.0
 10
7.573735
 20
27.662917
 30
0.0
 10
7.620016
 20
28.299901
 30
0.0
 10
7.685092
 20
29.013455
 30
0.0
 10
7.765973
 20
29.779397
 30
0.0
 10
7.859670
 20
30.573571
 30
0.0
 10
7.963193
 20
31.371871
 30
0.0
 10
8.073554
 20
32.150090
 30
0.0
 10
8.187764
 20
32.884150
 30
0.0
 10
8.302834
 20
33.549894
 30
0.0
 10
8.589078
 20
35.366748
 30
0.0
 10
8.722703
 20
36.910911
 30
0.0
 10
8.696642
 20
38.206991
 30
0.0
 10
8.503803
 20
39.279603
 30
0.0
 10
8.137120
 20
40.153366
 30
0.0
 10
7.589517
 20
40.852887
 30
0.0
 10
6.853920
 20
41.402783
 30
0.0
 10
5.923254
 20
41.827670
 30
0.0
 10
5.643875
 20
41.920901
 30
0.0
 10
5.353751
 20
42.004499
 30
0.0
 10
5.061345
 20
42.076875
 30
0.0
 10
4.775111
 20
42.136444
 30
0.0
 10
4.503508
 20
42.181613
 30
0.0
 10
4.254993
 20
42.210797
 30
0.0
 10
4.038027
 20
42.222412
 30
0.0
 10
3.861063
 20
42.214872
 30
0.0
 10
3.634209
 20
42.183592
 30
0.0
 10
3.459751
 20
42.142407
 30
0.0
 10
3.331989
 20
42.082675
 30
0.0
 10
3.245227
 20
41.995746
 30
0.0
 10
3.193763
 20
41.872980
 30
0.0
 10
3.171908
 20
41.705731
 30
0.0
 10
3.174025
 20
41.485352
 30
0.0
 10
3.194265
 20
41.203200
 30
0.0
 10
3.319098
 20
39.710636
 30
0.0
 10
3.402535
 20
38.517032
 30
0.0
 10
3.441632
 20
37.556920
 30
0.0
 10
3.433430
 20
36.764832
 30
0.0
 10
3.375015
 20
36.075299
 30
0.0
 10
3.263430
 20
35.422853
 30
0.0
 10
3.095732
 20
34.742027
 30
0.0
 10
2.868981
 20
33.967354
 30
0.0
 10
2.571058
 20
32.889759
 30
0.0
 10
2.358288
 20
31.884316
 30
0.0
 10
2.230669
 20
30.942955
 30
0.0
 10
2.188201
 20
30.057660
 30
0.0
 10
2.230888
 20
29.220412
 30
0.0
 10
2.358730
 20
28.423170
 30
0.0
 10
2.571727
 20
27.657890
 30
0.0
 10
2.869881
 20
26.916554
 30
0.0
 10
3.182719
 20
26.271685
 30
0.0
 10
3.468815
 20
25.742889
 30
0.0
 10
3.734089
 20
25.323736
 30
0.0
 10
3.984470
 20
25.007744
 30
0.0
 10
4.225875
 20
24.788537
 30
0.0
 10
4.464231
 20
24.659606
 30
0.0
 10
4.705456
 20
24.614521
 30
0.0
 10
4.955480
 20
24.646853
 30
0.0
 10
5.083308
 20
24.676036
 30
0.0
 10
5.240137
 20
24.703421
 30
0.0
 10
5.419847
 20
24.728291
 30
0.0
 10
5.616324
 20
24.750252
 30
0.0
 10
5.823442
 20
24.768508
 30
0.0
 10
6.035082
 20
24.782531
 30
0.0
 10
6.245130
 20
24.791791
 30
0.0
 10
6.447459
 20
24.795496
 30
0.0
 10
6.447459
 20
24.795443
 30
0.0
 10
6.447459
 20
24.795390
 30
0.0
 10
6.447459
 20
24.795363
 30
0.0
 10
6.447459
 20
24.795310
 30
0.0
 10
6.447459
 20
24.795257
 30
0.0
 10
6.447459
 20
24.795205
 30
0.0
 10
6.447459
 20
24.795152
 30
0.0
  0
LWPOLYLINE
  5
10a
100
AcDbEntity
  8
rose
 62
7
100
AcDbPolyline
 90
88
 70
1
 10
23.089709
 20
26.167492
 30
0.0
 10
23.697417
 20
26.437288
 30
0.0
 10
24.262318
 20
26.657659
 30
0.0
 10
24.807688
 20
26.833475
 30
0.0
 10
25.356814
 20
26.969708
 30
0.0
 10
25.932976
 20
27.071256
 30
0.0
 10
26.559450
 20
27.143037
 30
0.0
 10
27.259524
 20
27.189974
 30
0.0
 10
28.056475
 20
27.216988
 30
0.0
 10
28.392340
 20
27.228365
 30
0.0
 10
28.710519
 20
27.246886
 30
0.0
 10
29.003704
 20
27.271492
 30
0.0
 10
29.264583
 20
27.301205
 30
0.0
 10
29.485849
 20
27.335098
 30
0.0
 10
29.660186
 20
27.372219
 30
0.0
 10
29.780288
 20
27.411615
 30
0.0
 10
29.838845
 20
27.452282
 30
0.0
 10
29.781891
 20
27.577403
 30
0.0
 10
29.534262
 20
27.758960
 30
0.0
 10
29.146547
 20
27.974437
 30
0.0
 10
28.669326
 20
28.201264
 30
0.0
 10
28.153191
 20
28.416979
 30
0.0
 10
27.648718
 20
28.598986
 30
0.0
 10
27.206493
 20
28.724742
 30
0.0
 10
26.877106
 20
28.771759
 30
0.0
 10
26.455097
 20
28.838566
 30
0.0
 10
25.904962
 20
29.022875
 30
0.0
 10
25.270417
 20
29.300608
 30
0.0
 10
24.595166
 20
29.647794
 30
0.0
 10
23.922924
 20
30.040435
 30
0.0
 10
23.297393
 20
30.454535
 30
0.0
 10
22.762290
 20
30.866067
 30
0.0
 10
22.361319
 20
31.251062
 30
0.0
 10
22.178651
 20
31.467915
 30
0.0
 10
21.987465
 20
31.710961
 30
0.0
 10
21.793436
 20
31.971920
 30
0.0
 10
21.602232
 20
32.242588
 30
0.0
 10
21.419522
 20
32.514739
 30
0.0
 10
21.250974
 20
32.780116
 30
0.0
 10
21.102260
 20
33.030491
 30
0.0
 10
20.979049
 20
33.257662
 30
0.0
 10
20.675156
 20
33.932111
 30
0.0
 10
20.361869
 20
34.766660
 30
0.0
 10
20.053175
 20
35.709986
 30
0.0
 10
19.763064
 20
36.710807
 30
0.0
 10
19.505530
 20
37.717824
 30
0.0
 10
19.294559
 20
38.679740
 30
0.0
 10
19.144146
 20
39.545258
 30
0.0
 10
19.068279
 20
40.263086
 30
0.0
 10
19.048488
 20
40.558631
 30
0.0
 10
19.022692
 20
40.834387
 30
0.0
 10
18.991963
 20
41.084313
 30
0.0
 10
18.957406
 20
41.302374
 30
0.0
 10
18.920102
 20
41.482529
 30
0.0
 10
18.881142
 20
41.618742
 30
0.0
 10
18.841619
 20
41.704975
 30
0.0
 10
18.802619
 20
41.735187
 30
0.0
 10
18.669370
 20
41.634595
 30
0.0
 10
18.483267
 20
41.351928
 30
0.0
 10
18.257186
 20
40.917027
 30
0.0
 10
18.003998
 20
40.359738
 30
0.0
 10
17.736587
 20
39.709908
 30
0.0
 10
17.467820
 20
38.997383
 30
0.0
 10
17.210582
 20
38.252010
 30
0.0
 10
16.977741
 20
37.503628
 30
0.0
 10
16.714631
 20
36.384753
 30
0.0
 10
16.559392
 20
35.219311
 30
0.0
 10
16.509717
 20
34.033182
 30
0.0
 10
16.563292
 20
32.852215
 30
0.0
 10
16.717809
 20
31.702309
 30
0.0
 10
16.970954
 20
30.609369
 30
0.0
 10
17.320424
 20
29.599190
 30
0.0
 10
17.763900
 20
28.697728
 30
0.0
 10
18.087226
 20
28.243465
 30
0.0
 10
18.554443
 20
27.712843
 30
0.0
 10
19.114171
 20
27.150631
 30
0.0
 10
19.715032
 20
26.601726
 30
0.0
 10
20.305648
 20
26.110924
 30
0.0
 10
20.834637
 20
25.723045
 30
0.0
 10
21.250620
 20
25.482989
 30
0.0
 10
21.502217
 20
25.435522
 30
0.0
 10
21.558505
 20
25.460393
 30
0.0
 10
21.668426
 20
25.510373
 30
0.0
 10
21.825469
 20
25.582366
 30
0.0
 10
22.023129
 20
25.673383
 30
0.0
 10
22.254893
 20
25.780407
 30
0.0
 10
22.514251
 20
25.900448
 30
0.0
 10
22.794696
 20
26.030491
 30
0.0
  0
LWPOLYLINE
  5
10b
100
AcDbEntity
  8
rose
 62
7
100
AcDbPolyline
 90
80
 70
1
 10
37.989483
 20
26.651865
 30
0.0
 10
38.436156
 20
26.726371
 30
0.0
 10
38.949328
 20
26.905970
 30
0.0
 10
39.510869
 20
27.124728
 30
0.0
 10
40.102649
 20
27.316762
 30
0.0
 10
40.706539
 20
27.467151
 30
0.0
 10
41.304410
 20
27.601771
 30
0.0
 10
41.878135
 20
27.715860
 30
0.0
 10
42.409582
 20
27.804707
 30
0.0
 10
43.288023
 20
27.938612
 30
0.0
 10
43.958101
 20
28.065030
 30
0.0
 10
44.460722
 20
28.213541
 30
0.0
 10
44.836784
 20
28.413698
 30
0.0
 10
45.127194
 20
28.695003
 30
0.0
 10
45.372857
 20
29.087036
 30
0.0
 10
45.614675
 20
29.619325
 30
0.0
 10
45.893551
 20
30.321423
 30
0.0
 10
46.309100
 20
31.542263
 30
0.0
 10
46.645822
 20
32.849727
 30
0.0
 10
46.899417
 20
34.196827
 30
0.0
 10
47.065584
 20
35.536621
 30
0.0
 10
47.140019
 20
36.822173
 30
0.0
 10
47.118429
 20
38.006532
 30
0.0
 10
46.996493
 20
39.042751
 30
0.0
 10
46.769920
 20
39.883882
 30
0.0
 10
46.645854
 20
40.187092
 30
0.0
 10
46.542751
 20
40.397735
 30
0.0
 10
46.460513
 20
40.515771
 30
0.0
 10
46.399040
 20
40.541171
 30
0.0
 10
46.358228
 20
40.473871
 30
0.0
 10
46.337988
 20
40.313841
 30
0.0
 10
46.338199
 20
40.061037
 30
0.0
 10
46.358757
 20
39.715422
 30
0.0
 10
46.344920
 20
39.279945
 30
0.0
 10
46.256660
 20
38.700036
 30
0.0
 10
46.105990
 20
38.016911
 30
0.0
 10
45.904926
 20
37.271787
 30
0.0
 10
45.665480
 20
36.505879
 30
0.0
 10
45.399672
 20
35.760405
 30
0.0
 10
45.119513
 20
35.076582
 30
0.0
 10
44.837023
 20
34.495621
 30
0.0
 10
44.405392
 20
33.785691
 30
0.0
 10
43.884936
 20
33.077163
 30
0.0
 10
43.287522
 20
32.381336
 30
0.0
 10
42.625024
 20
31.709427
 30
0.0
 10
41.909308
 20
31.072760
 30
0.0
 10
41.152251
 20
30.482580
 30
0.0
 10
40.365719
 20
29.950160
 30
0.0
 10
39.561584
 20
29.486795
 30
0.0
 10
38.834692
 20
29.084284
 30
0.0
 10
38.178589
 20
28.678916
 30
0.0
 10
37.597794
 20
28.274580
 30
0.0
 10
37.096814
 20
27.875165
 30
0.0
 10
36.680167
 20
27.484561
 30
0.0
 10
36.352364
 20
27.106630
 30
0.0
 10
36.117917
 20
26.745262
 30
0.0
 10
35.981344
 20
26.404373
 30
0.0
 10
35.954574
 20
26.295206
 30
0.0
 10
35.933063
 20
26.193395
 30
0.0
 10
35.917029
 20
26.101108
 30
0.0
 10
35.906684
 20
26.020595
 30
0.0
 10
35.902266
 20
25.954106
 30
0.0
 10
35.904118
 20
25.903861
 30
0.0
 10
35.912214
 20
25.872085
 30
0.0
 10
35.926898
 20
25.860972
 30
0.0
 10
35.984784
 20
25.877112
 30
0.0
 10
36.116721
 20
25.923361
 30
0.0
 10
36.314251
 20
25.996518
 30
0.0
 10
36.568909
 20
26.093276
 30
0.0
 10
36.872236
 20
26.241046
 30
0.0
 10
37.215771
 20
26.426334
 30
0.0
 10
37.591048
 20
26.584740
 30
0.0
 10
37.989608
 20
26.651865
 30
0.0
 10
37.989613
 20
26.651865
 30
0.0
 10
37.989616
 20
26.651865
 30
0.0
 10
37.989621
 20
26.651865
 30
0.0
 10
37.989624
 20
26.651865
 30
0.0
 10
37.989629
 20
26.651865
 30
0.0
 10
37.989632
 20
26.651865
 30
0.0
 10
37.989637
 20
26.651865
 30
0.0
  0
LWPOLYLINE
  5
10c
100
AcDbEntity
  8
rose
 62
7
100
AcDbPolyline
 90
104
 70
1
 10
34.565763
 20
27.382326
 30
0.0
 10
34.897005
 20
27.868418
 30
0.0
 10
35.251123
 20
28.317628
 30
0.0
 10
35.648234
 20
28.747443
 30
0.0
 10
36.108461
 20
29.175327
 30
0.0
 10
36.651922
 20
29.618716
 30
0.0
 10
37.298744
 20
30.095125
 30
0.0
 10
38.069038
 20
30.621963
 30
0.0
 10
38.982933
 20
31.216746
 30
0.0
 10
39.894425
 20
31.828357
 30
0.0
 10
40.695048
 20
32.431395
 30
0.0
 10
41.399877
 20
33.042582
 30
0.0
 10
42.023987
 20
33.678693
 30
0.0
 10
42.582453
 20
34.356450
 30
0.0
 10
43.090352
 20
35.092650
 30
0.0
 10
43.562760
 20
35.904003
 30
0.0
 10
44.014751
 20
36.807271
 30
0.0
 10
44.269849
 20
37.364870
 30
0.0
 10
44.465193
 20
37.833016
 30
0.0
 10
44.607055
 20
38.245078
 30
0.0
 10
44.701704
 20
38.634428
 30
0.0
 10
44.755415
 20
39.034441
 30
0.0
 10
44.774464
 20
39.478483
 30
0.0
 10
44.765098
 20
39.999926
 30
0.0
 10
44.733618
 20
40.632142
 30
0.0
 10
44.691523
 20
41.229079
 30
0.0
 10
44.635159
 20
41.747692
 30
0.0
 10
44.557493
 20
42.212625
 30
0.0
 10
44.451496
 20
42.648531
 30
0.0
 10
44.310142
 20
43.080059
 30
0.0
 10
44.126397
 20
43.531858
 30
0.0
 10
43.893236
 20
44.028579
 30
0.0
 10
43.603628
 20
44.594869
 30
0.0
 10
43.191447
 20
45.331874
 30
0.0
 10
42.780012
 20
45.980870
 30
0.0
 10
42.383635
 20
46.526870
 30
0.0
 10
42.016626
 20
46.954883
 30
0.0
 10
41.693300
 20
47.249917
 30
0.0
 10
41.427963
 20
47.396989
 30
0.0
 10
41.234928
 20
47.381087
 30
0.0
 10
41.128510
 20
47.187256
 30
0.0
 10
41.126129
 20
47.066387
 30
0.0
 10
41.152706
 20
46.883081
 30
0.0
 10
41.205488
 20
46.646392
 30
0.0
 10
41.281846
 20
46.365379
 30
0.0
 10
41.379142
 20
46.049096
 30
0.0
 10
41.494749
 20
45.706601
 30
0.0
 10
41.626030
 20
45.346950
 30
0.0
 10
41.770352
 20
44.979198
 30
0.0
 10
42.093927
 20
44.045600
 30
0.0
 10
42.347405
 20
43.027232
 30
0.0
 10
42.528679
 20
41.957231
 30
0.0
 10
42.635642
 20
40.868738
 30
0.0
 10
42.666188
 20
39.794892
 30
0.0
 10
42.618209
 20
38.768836
 30
0.0
 10
42.489595
 20
37.823705
 30
0.0
 10
42.278243
 20
36.992638
 30
0.0
 10
41.959955
 20
36.167501
 30
0.0
 10
41.564477
 20
35.432385
 30
0.0
 10
41.052516
 20
34.753245
 30
0.0
 10
40.384787
 20
34.095994
 30
0.0
 10
39.522000
 20
33.426625
 30
0.0
 10
38.424863
 20
32.711059
 30
0.0
 10
37.054089
 20
31.915246
 30
0.0
 10
35.370384
 20
31.005132
 30
0.0
 10
34.880781
 20
30.739782
 30
0.0
 10
34.393591
 20
30.462975
 30
0.0
 10
33.921653
 20
30.182860
 30
0.0
 10
33.477804
 20
29.907615
 30
0.0
 10
33.074884
 20
29.645386
 30
0.0
 10
32.725734
 20
29.404271
 30
0.0
 10
32.443191
 20
29.192499
 30
0.0
 10
32.240095
 20
29.018139
 30
0.0
 10
32.143675
 20
28.925481
 30
0.0
 10
32.047253
 20
28.832824
 30
0.0
 10
31.950834
 20
28.740141
 30
0.0
 10
31.854414
 20
28.647484
 30
0.0
 10
31.757995
 20
28.554827
 30
0.0
 10
31.661573
 20
28.462143
 30
0.0
 10
31.565153
 20
28.369486
 30
0.0
 10
31.468734
 20
28.276803
 30
0.0
 10
31.586651
 20
28.158878
 30
0.0
 10
31.704567
 20
28.040980
 30
0.0
 10
31.822487
 20
27.923055
 30
0.0
 10
31.940404
 20
27.805130
 30
0.0
 10
32.058321
 20
27.687232
 30
0.0
 10
32.176237
 20
27.569307
 30
0.0
 10
32.294157
 20
27.451382
 30
0.0
 10
32.412074
 20
27.333458
 30
0.0
 10
32.607445
 20
27.143963
 30
0.0
 10
32.801059
 20
26.967195
 30
0.0
 10
32.987868
 20
26.806990
 30
0.0
 10
33.162826
 20
26.667237
 30
0.0
 10
33.320880
 20
26.551799
 30
0.0
 10
33.456982
 20
26.464566
 30
0.0
 10
33.566083
 20
26.409374
 30
0.0
 10
33.643135
 20
26.390059
 30
0.0
 10
33.713889
 20
26.410432
 30
0.0
 10
33.804943
 20
26.468482
 30
0.0
 10
33.912509
 20
26.560239
 30
0.0
 10
34.032810
 20
26.681630
 30
0.0
 10
34.162056
 20
26.828633
 30
0.0
 10
34.296467
 20
26.997119
 30
0.0
 10
34.432257
 20
27.183068
 30
0.0
  0
LWPOLYLINE
  5
10d
100
AcDbEntity
  8
rose
 62
7
100
AcDbPolyline
 90
72
 70
1
 10
48.468430
 20
29.686449
 30
0.0
 10
48.925294
 20
29.979317
 30
0.0
 10
49.428548
 20
30.401591
 30
0.0
 10
49.960982
 20
30.932504
 30
0.0
 10
50.505383
 20
31.551338
 30
0.0
 10
51.044543
 20
32.237376
 30
0.0
 10
51.561247
 20
32.969875
 30
0.0
 10
52.038286
 20
33.728117
 30
0.0
 10
52.458449
 20
34.491387
 30
0.0
 10
52.760400
 20
35.093399
 30
0.0
 10
52.988282
 20
35.591389
 30
0.0
 10
53.152440
 20
36.042933
 30
0.0
 10
53.263208
 20
36.505612
 30
0.0
 10
53.330928
 20
37.037006
 30
0.0
 10
53.365941
 20
37.694697
 30
0.0
 10
53.378588
 20
38.536270
 30
0.0
 10
53.379117
 20
39.619302
 30
0.0
 10
53.373217
 20
40.589502
 30
0.0
 10
53.356627
 20
41.377944
 30
0.0
 10
53.325414
 20
42.014865
 30
0.0
 10
53.275633
 20
42.530501
 30
0.0
 10
53.203338
 20
42.955088
 30
0.0
 10
53.104588
 20
43.318866
 30
0.0
 10
52.975437
 20
43.652067
 30
0.0
 10
52.811946
 20
43.984931
 30
0.0
 10
52.500349
 20
44.536346
 30
0.0
 10
52.201912
 20
44.986164
 30
0.0
 10
51.909053
 20
45.339970
 30
0.0
 10
51.614190
 20
45.603360
 30
0.0
 10
51.309740
 20
45.781920
 30
0.0
 10
50.988123
 20
45.881241
 30
0.0
 10
50.641754
 20
45.906906
 30
0.0
 10
50.263056
 20
45.864522
 30
0.0
 10
49.841594
 20
45.730061
 30
0.0
 10
49.355459
 20
45.487655
 30
0.0
 10
48.841900
 20
45.166766
 30
0.0
 10
48.338176
 20
44.796850
 30
0.0
 10
47.881540
 20
44.407364
 30
0.0
 10
47.509247
 20
44.027772
 30
0.0
 10
47.258552
 20
43.687534
 30
0.0
 10
47.166707
 20
43.416103
 30
0.0
 10
47.179778
 20
43.314136
 30
0.0
 10
47.217256
 20
43.175393
 30
0.0
 10
47.276504
 20
43.006031
 30
0.0
 10
47.354897
 20
42.812203
 30
0.0
 10
47.449811
 20
42.600068
 30
0.0
 10
47.558611
 20
42.375780
 30
0.0
 10
47.678673
 20
42.145492
 30
0.0
 10
47.807372
 20
41.915363
 30
0.0
 10
48.278446
 20
40.902676
 30
0.0
 10
48.630525
 20
39.719873
 30
0.0
 10
48.862294
 20
38.405672
 30
0.0
 10
48.972440
 20
36.998787
 30
0.0
 10
48.959661
 20
35.537938
 30
0.0
 10
48.822615
 20
34.061836
 30
0.0
 10
48.560003
 20
32.609221
 30
0.0
 10
48.170507
 20
31.218783
 30
0.0
 10
48.042774
 20
30.833444
 30
0.0
 10
47.927506
 20
30.473981
 30
0.0
 10
47.826951
 20
30.148200
 30
0.0
 10
47.743348
 20
29.864038
 30
0.0
 10
47.678946
 20
29.629299
 30
0.0
 10
47.635988
 20
29.451923
 30
0.0
 10
47.616726
 20
29.339713
 30
0.0
 10
47.623394
 20
29.300555
 30
0.0
 10
47.658459
 20
29.308492
 30
0.0
 10
47.720618
 20
29.330982
 30
0.0
 10
47.806403
 20
29.366674
 30
0.0
 10
47.912348
 20
29.413876
 30
0.0
 10
48.034988
 20
29.471052
 30
0.0
 10
48.170851
 20
29.536589
 30
0.0
 10
48.316472
 20
29.608900
 30
0.0
  0
LWPOLYLINE
  5
10e
100
AcDbEntity
  8
rose
 62
7
100
AcDbPolyline
 90
96
 70
1
 10
31.765514
 20
30.588890
 30
0.0
 10
31.933424
 20
30.639055
 30
0.0
 10
32.220052
 20
30.821221
 30
0.0
 10
32.593244
 20
31.076067
 30
0.0
 10
33.020835
 20
31.344302
 30
0.0
 10
33.486300
 20
31.609626
 30
0.0
 10
33.985622
 20
31.890163
 30
0.0
 10
34.505403
 20
32.178215
 30
0.0
 10
35.032244
 20
32.466029
 30
0.0
 10
36.178692
 20
33.103701
 30
0.0
 10
37.131062
 20
33.673931
 30
0.0
 10
37.916646
 20
34.200240
 30
0.0
 10
38.562727
 20
34.706017
 30
0.0
 10
39.096592
 20
35.214800
 30
0.0
 10
39.545527
 20
35.750002
 30
0.0
 10
39.936814
 20
36.335096
 30
0.0
 10
40.297742
 20
36.993543
 30
0.0
 10
40.666526
 20
37.844403
 30
0.0
 10
40.928752
 20
38.723883
 30
0.0
 10
41.084422
 20
39.630671
 30
0.0
 10
41.133545
 20
40.563454
 30
0.0
 10
41.076122
 20
41.520917
 30
0.0
 10
40.912160
 20
42.501749
 30
0.0
 10
40.641666
 20
43.504633
 30
0.0
 10
40.264643
 20
44.528261
 30
0.0
 10
39.921507
 20
45.292147
 30
0.0
 10
39.570035
 20
45.947578
 30
0.0
 10
39.201669
 20
46.503385
 30
0.0
 10
38.807861
 20
46.968393
 30
0.0
 10
38.380051
 20
47.351430
 30
0.0
 10
37.909690
 20
47.661321
 30
0.0
 10
37.388226
 20
47.906893
 30
0.0
 10
36.807103
 20
48.096978
 30
0.0
 10
36.223980
 20
48.206666
 30
0.0
 10
35.536537
 20
48.257736
 30
0.0
 10
34.777022
 20
48.253423
 30
0.0
 10
33.977690
 20
48.196996
 30
0.0
 10
33.170785
 20
48.091692
 30
0.0
 10
32.388563
 20
47.940755
 30
0.0
 10
31.663271
 20
47.747432
 30
0.0
 10
31.027163
 20
47.514969
 30
0.0
 10
30.581488
 20
47.292076
 30
0.0
 10
30.101296
 20
47.001019
 30
0.0
 10
29.615545
 20
46.665382
 30
0.0
 10
29.153186
 20
46.308755
 30
0.0
 10
28.743174
 20
45.954721
 30
0.0
 10
28.414459
 20
45.626866
 30
0.0
 10
28.195998
 20
45.348776
 30
0.0
 10
28.116744
 20
45.144038
 30
0.0
 10
28.156165
 20
45.108396
 30
0.0
 10
28.269142
 20
45.080909
 30
0.0
 10
28.447757
 20
45.061753
 30
0.0
 10
28.684088
 20
45.051143
 30
0.0
 10
28.970211
 20
45.049291
 30
0.0
 10
29.298207
 20
45.056329
 30
0.0
 10
29.660151
 20
45.072469
 30
0.0
 10
30.048125
 20
45.097895
 30
0.0
 10
31.688068
 20
45.097853
 30
0.0
 10
33.213523
 20
44.856812
 30
0.0
 10
34.593145
 20
44.396109
 30
0.0
 10
35.795586
 20
43.737080
 30
0.0
 10
36.789498
 20
42.901066
 30
0.0
 10
37.543539
 20
41.909402
 30
0.0
 10
38.026358
 20
40.783426
 30
0.0
 10
38.206611
 20
39.544478
 30
0.0
 10
38.204494
 20
38.871238
 30
0.0
 10
38.130509
 20
38.299997
 30
0.0
 10
37.916416
 20
37.745412
 30
0.0
 10
37.493853
 20
37.122133
 30
0.0
 10
36.794451
 20
36.344817
 30
0.0
 10
35.749842
 20
35.328116
 30
0.0
 10
34.291665
 20
33.986695
 30
0.0
 10
32.351550
 20
32.235180
 30
0.0
 10
32.032386
 20
31.940461
 30
0.0
 10
31.734632
 20
31.651536
 30
0.0
 10
31.464807
 20
31.375681
 30
0.0
 10
31.229426
 20
31.120253
 30
0.0
 10
31.035010
 20
30.892579
 30
0.0
 10
30.888071
 20
30.699962
 30
0.0
 10
30.795131
 20
30.549732
 30
0.0
 10
30.762701
 20
30.449243
 30
0.0
 10
30.770798
 20
30.296261
 30
0.0
 10
30.799441
 20
30.190189
 30
0.0
 10
30.855107
 20
30.131902
 30
0.0
 10
30.944272
 20
30.122377
 30
0.0
 10
31.093713
 20
30.218182
 30
0.0
 10
31.303152
 20
30.401697
 30
0.0
 10
31.538483
 20
30.562220
 30
0.0
 10
31.765602
 20
30.588996
 30
0.0
 10
31.765604
 20
30.588996
 30
0.0
 10
31.765609
 20
30.588996
 30
0.0
 10
31.765612
 20
30.588996
 30
0.0
 10
31.765615
 20
30.588996
 30
0.0
 10
31.765620
 20
30.588996
 30
0.0
 10
31.765623
 20
30.588996
 30
0.0
 10
31.765628
 20
30.588996
 30
0.0
  0
LWPOLYLINE
  5
10f
100
AcDbEntity
  8
rose
 62
7
100
AcDbPolyline
 90
56
 70
1
 10
29.021185
 20
30.784073
 30
0.0
 10
29.056700
 20
30.825480
 30
0.0
 10
29.140525
 20
30.881757
 30
0.0
 10
29.238572
 20
30.950469
 30
0.0
 10
29.316756
 20
31.029077
 30
0.0
 10
29.367967
 20
31.115093
 30
0.0
 10
29.406672
 20
31.206004
 30
0.0
 10
29.431146
 20
31.299349
 30
0.0
 10
29.439692
 20
31.392588
 30
0.0
 10
29.419663
 20
31.512682
 30
0.0
 10
29.356261
 20
31.621797
 30
0.0
 10
29.244501
 20
31.722338
 30
0.0
 10
29.079407
 20
31.816609
 30
0.0
 10
28.855993
 20
31.907017
 30
0.0
 10
28.569285
 20
31.995944
 30
0.0
 10
28.214296
 20
32.085717
 30
0.0
 10
27.786052
 20
32.178744
 30
0.0
 10
27.430918
 20
32.256743
 30
0.0
 10
27.055242
 20
32.349004
 30
0.0
 10
26.670421
 20
32.452085
 30
0.0
 10
26.287848
 20
32.562602
 30
0.0
 10
25.918919
 20
32.677113
 30
0.0
 10
25.575024
 20
32.792207
 30
0.0
 10
25.267562
 20
32.904496
 30
0.0
 10
25.007924
 20
33.010541
 30
0.0
 10
24.607697
 20
33.174345
 30
0.0
 10
24.300008
 20
33.272029
 30
0.0
 10
24.082878
 20
33.301874
 30
0.0
 10
23.954319
 20
33.262080
 30
0.0
 10
23.912348
 20
33.150903
 30
0.0
 10
23.954986
 20
32.966567
 30
0.0
 10
24.080245
 20
32.707382
 30
0.0
 10
24.286144
 20
32.371520
 30
0.0
 10
24.449063
 20
32.169140
 30
0.0
 10
24.673057
 20
31.963374
 30
0.0
 10
24.953817
 20
31.756681
 30
0.0
 10
25.287044
 20
31.551470
 30
0.0
 10
25.668424
 20
31.350202
 30
0.0
 10
26.093657
 20
31.155336
 30
0.0
 10
26.558436
 20
30.969334
 30
0.0
 10
27.058454
 20
30.794603
 30
0.0
 10
27.290033
 20
30.732215
 30
0.0
 10
27.543004
 20
30.687183
 30
0.0
 10
27.808640
 20
30.659560
 30
0.0
 10
28.078205
 20
30.649506
 30
0.0
 10
28.376647
 20
30.656914
 30
0.0
 10
28.684006
 20
30.681785
 30
0.0
 10
28.924210
 20
30.724251
 30
0.0
 10
29.021183
 20
30.784338
 30
0.0
 10
29.021183
 20
30.784338
 30
0.0
 10
29.021183
 20
30.784338
 30
0.0
 10
29.021183
 20
30.784311
 30
0.0
 10
29.021183
 20
30.784311
 30
0.0
 10
29.021183
 20
30.784311
 30
0.0
 10
29.021183
 20
30.784311
 30
0.0
 10
29.021183
 20
30.784311
 30
0.0
  0
LWPOLYLINE
  5
110
100
AcDbEntity
  8
rose
 62
7
100
AcDbPolyline
 90
144
 70
1
 10
15.389693
 20
37.592893
 30
0.0
 10
15.574357
 20
37.881471
 30
0.0
 10
15.774744
 20
38.576801
 30
0.0
 10
16.007032
 20
39.423288
 30
0.0
 10
16.287403
 20
40.165328
 30
0.0
 10
16.632036
 20
40.786635
 30
0.0
 10
17.057116
 20
41.462378
 30
0.0
 10
17.578821
 20
42.224137
 30
0.0
 10
18.213331
 20
43.103490
 30
0.0
 10
19.157735
 20
44.341036
 30
0.0
 10
20.057987
 20
45.414382
 30
0.0
 10
20.930564
 20
46.337351
 30
0.0
 10
21.791944
 20
47.123777
 30
0.0
 10
22.658602
 20
47.787482
 30
0.0
 10
23.547017
 20
48.342297
 30
0.0
 10
24.473667
 20
48.802045
 30
0.0
 10
25.455028
 20
49.180558
 30
0.0
 10
25.776570
 20
49.299755
 30
0.0
 10
26.105590
 20
49.441275
 30
0.0
 10
26.432808
 20
49.599853
 30
0.0
 10
26.748944
 20
49.770224
 30
0.0
 10
27.044727
 20
49.947124
 30
0.0
 10
27.310871
 20
50.125284
 30
0.0
 10
27.538103
 20
50.299441
 30
0.0
 10
27.717144
 20
50.464329
 30
0.0
 10
27.809174
 20
50.560388
 30
0.0
 10
27.901207
 20
50.656448
 30
0.0
 10
27.993237
 20
50.752508
 30
0.0
 10
28.085270
 20
50.848570
 30
0.0
 10
28.177300
 20
50.944629
 30
0.0
 10
28.269332
 20
51.040689
 30
0.0
 10
28.361362
 20
51.136749
 30
0.0
 10
28.453395
 20
51.232808
 30
0.0
 10
28.374478
 20
51.250800
 30
0.0
 10
28.295563
 20
51.268792
 30
0.0
 10
28.216646
 20
51.286783
 30
0.0
 10
28.137728
 20
51.304775
 30
0.0
 10
28.058814
 20
51.322767
 30
0.0
 10
27.979897
 20
51.340758
 30
0.0
 10
27.900982
 20
51.358750
 30
0.0
 10
27.822065
 20
51.376742
 30
0.0
 10
26.490470
 20
51.674019
 30
0.0
 10
25.318190
 20
51.922053
 30
0.0
 10
24.299759
 20
52.121729
 30
0.0
 10
23.429717
 20
52.273922
 30
0.0
 10
22.702602
 20
52.379520
 30
0.0
 10
22.112949
 20
52.439401
 30
0.0
 10
21.655300
 20
52.454455
 30
0.0
 10
21.324187
 20
52.425550
 30
0.0
 10
20.921790
 20
52.300341
 30
0.0
 10
20.487411
 20
52.074458
 30
0.0
 10
20.030693
 20
51.756860
 30
0.0
 10
19.561290
 20
51.356509
 30
0.0
 10
19.088848
 20
50.882360
 30
0.0
 10
18.623023
 20
50.343375
 30
0.0
 10
18.173456
 20
49.748517
 30
0.0
 10
17.749803
 20
49.106742
 30
0.0
 10
17.583292
 20
48.848537
 30
0.0
 10
17.413189
 20
48.607658
 30
0.0
 10
17.244274
 20
48.389372
 30
0.0
 10
17.081322
 20
48.198951
 30
0.0
 10
16.929113
 20
48.041667
 30
0.0
 10
16.792427
 20
47.922795
 30
0.0
 10
16.676039
 20
47.847606
 30
0.0
 10
16.584731
 20
47.821359
 30
0.0
 10
16.424278
 20
47.835805
 30
0.0
 10
16.312676
 20
47.887523
 30
0.0
 10
16.250846
 20
47.989126
 30
0.0
 10
16.239707
 20
48.153210
 30
0.0
 10
16.280162
 20
48.392375
 30
0.0
 10
16.373134
 20
48.719222
 30
0.0
 10
16.519538
 20
49.146355
 30
0.0
 10
16.720291
 20
49.686372
 30
0.0
 10
16.872381
 20
50.094095
 30
0.0
 10
16.982577
 20
50.413709
 30
0.0
 10
17.051581
 20
50.657901
 30
0.0
 10
17.080084
 20
50.839362
 30
0.0
 10
17.068786
 20
50.970786
 30
0.0
 10
17.018391
 20
51.064859
 30
0.0
 10
16.929592
 20
51.134270
 30
0.0
 10
16.803087
 20
51.191713
 30
0.0
 10
16.684281
 20
51.212668
 30
0.0
 10
16.547245
 20
51.190575
 30
0.0
 10
16.390861
 20
51.124641
 30
0.0
 10
16.214019
 20
51.014067
 30
0.0
 10
16.015605
 20
50.858066
 30
0.0
 10
15.794503
 20
50.655842
 30
0.0
 10
15.549602
 20
50.406605
 30
0.0
 10
15.279788
 20
50.109565
 30
0.0
 10
14.399544
 20
48.997032
 30
0.0
 10
13.581068
 20
47.744111
 30
0.0
 10
12.840585
 20
46.389977
 30
0.0
 10
12.194303
 20
44.973787
 30
0.0
 10
11.658442
 20
43.534716
 30
0.0
 10
11.249217
 20
42.111930
 30
0.0
 10
10.982845
 20
40.744593
 30
0.0
 10
10.875541
 20
39.471876
 30
0.0
 10
10.872710
 20
38.918413
 30
0.0
 10
10.890860
 20
38.438567
 30
0.0
 10
10.936736
 20
38.004000
 30
0.0
 10
11.017106
 20
37.586360
 30
0.0
 10
11.138730
 20
37.157310
 30
0.0
 10
11.308367
 20
36.688500
 30
0.0
 10
11.532781
 20
36.151586
 30
0.0
 10
11.818727
 20
35.518227
 30
0.0
 10
12.034989
 20
35.072481
 30
0.0
 10
12.275403
 20
34.616905
 30
0.0
 10
12.531940
 20
34.164336
 30
0.0
 10
12.796576
 20
33.727562
 30
0.0
 10
13.061287
 20
33.319389
 30
0.0
 10
13.318038
 20
32.952650
 30
0.0
 10
13.558806
 20
32.640151
 30
0.0
 10
13.775566
 20
32.394671
 30
0.0
 10
13.898039
 20
32.268808
 30
0.0
 10
14.020512
 20
32.142946
 30
0.0
 10
14.142985
 20
32.017084
 30
0.0
 10
14.265455
 20
31.891222
 30
0.0
 10
14.387928
 20
31.765359
 30
0.0
 10
14.510401
 20
31.639497
 30
0.0
 10
14.632874
 20
31.513661
 30
0.0
 10
14.755347
 20
31.387799
 30
0.0
 10
14.775958
 20
31.695562
 30
0.0
 10
14.796569
 20
32.003326
 30
0.0
 10
14.817180
 20
32.311062
 30
0.0
 10
14.837791
 20
32.618826
 30
0.0
 10
14.858402
 20
32.926589
 30
0.0
 10
14.879013
 20
33.234352
 30
0.0
 10
14.899624
 20
33.542115
 30
0.0
 10
14.920235
 20
33.849879
 30
0.0
 10
14.959550
 20
34.370605
 30
0.0
 10
15.008254
 20
34.906942
 30
0.0
 10
15.064425
 20
35.443519
 30
0.0
 10
15.126132
 20
35.965000
 30
0.0
 10
15.191447
 20
36.505556
 30
0.0
 10
15.258444
 20
37.033334
 30
0.0
 10
15.325196
 20
37.433908
 30
0.0
 10
15.389776
 20
37.592859
 30
0.0
 10
15.389776
 20
37.592859
 30
0.0
 10
15.389778
 20
37.592859
 30
0.0
 10
15.389778
 20
37.592859
 30
0.0
 10
15.389781
 20
37.592859
 30
0.0
 10
15.389781
 20
37.592859
 30
0.0
 10
15.389783
 20
37.592859
 30
0.0
 10
15.389786
 20
37.592859
 30
0.0
  0
LWPOLYLINE
  5
111
100
AcDbEntity
  8
rose
 62
7
100
AcDbPolyline
 90
88
 70
1
 10
26.625984
 20
34.261491
 30
0.0
 10
26.580844
 20
34.387750
 30
0.0
 10
26.538640
 20
34.569863
 30
0.0
 10
26.500307
 20
34.799177
 30
0.0
 10
26.466777
 20
35.067173
 30
0.0
 10
26.438973
 20
35.365237
 30
0.0
 10
26.417833
 20
35.684793
 30
0.0
 10
26.404286
 20
36.017255
 30
0.0
 10
26.399259
 20
36.354043
 30
0.0
 10
26.404339
 20
36.840630
 30
0.0
 10
26.425109
 20
37.243926
 30
0.0
 10
26.467520
 20
37.583315
 30
0.0
 10
26.537529
 20
37.878175
 30
0.0
 10
26.641087
 20
38.147880
 30
0.0
 10
26.784144
 20
38.411813
 30
0.0
 10
26.972655
 20
38.689350
 30
0.0
 10
27.212565
 20
38.999873
 30
0.0
 10
27.431003
 20
39.254172
 30
0.0
 10
27.660375
 20
39.485322
 30
0.0
 10
27.903183
 20
39.695007
 30
0.0
 10
28.161927
 20
39.884917
 30
0.0
 10
28.439110
 20
40.056743
 30
0.0
 10
28.737229
 20
40.212169
 30
0.0
 10
29.058785
 20
40.352885
 30
0.0
 10
29.406283
 20
40.480581
 30
0.0
 10
30.310386
 20
40.717518
 30
0.0
 10
31.164161
 20
40.803862
 30
0.0
 10
31.963933
 20
40.741085
 30
0.0
 10
32.706015
 20
40.530648
 30
0.0
 10
33.386732
 20
40.174022
 30
0.0
 10
34.002404
 20
39.672671
 30
0.0
 10
34.549351
 20
39.028061
 30
0.0
 10
35.023891
 20
38.241662
 30
0.0
 10
35.193376
 20
37.916023
 30
0.0
 10
35.332610
 20
37.672347
 30
0.0
 10
35.452151
 20
37.504205
 30
0.0
 10
35.562564
 20
37.405158
 30
0.0
 10
35.674406
 20
37.368772
 30
0.0
 10
35.798239
 20
37.388616
 30
0.0
 10
35.944623
 20
37.458241
 30
0.0
 10
36.124121
 20
37.571221
 30
0.0
 10
36.572233
 20
37.971194
 30
0.0
 10
36.848167
 20
38.451487
 30
0.0
 10
36.954960
 20
38.998743
 30
0.0
 10
36.895641
 20
39.599601
 30
0.0
 10
36.673237
 20
40.240699
 30
0.0
 10
36.290785
 20
40.908682
 30
0.0
 10
35.751308
 20
41.590188
 30
0.0
 10
35.057843
 20
42.271857
 30
0.0
 10
34.516347
 20
42.710111
 30
0.0
 10
33.971160
 20
43.070105
 30
0.0
 10
33.410153
 20
43.355434
 30
0.0
 10
32.821193
 20
43.569699
 30
0.0
 10
32.192144
 20
43.716493
 30
0.0
 10
31.510871
 20
43.799416
 30
0.0
 10
30.765241
 20
43.822064
 30
0.0
 10
29.943123
 20
43.788031
 30
0.0
 10
28.990644
 20
43.676805
 30
0.0
 10
28.098266
 20
43.484122
 30
0.0
 10
27.272216
 20
43.213311
 30
0.0
 10
26.518736
 20
42.867702
 30
0.0
 10
25.844055
 20
42.450620
 30
0.0
 10
25.254407
 20
41.965401
 30
0.0
 10
24.756030
 20
41.415372
 30
0.0
 10
24.355158
 20
40.803862
 30
0.0
 10
24.023958
 20
40.141023
 30
0.0
 10
23.740404
 20
39.459462
 30
0.0
 10
23.508211
 20
38.775638
 30
0.0
 10
23.331096
 20
38.106018
 30
0.0
 10
23.212777
 20
37.467063
 30
0.0
 10
23.156966
 20
36.875232
 30
0.0
 10
23.167390
 20
36.346992
 30
0.0
 10
23.247752
 20
35.898803
 30
0.0
 10
23.327707
 20
35.666354
 30
0.0
 10
23.428807
 20
35.462609
 30
0.0
 10
23.559312
 20
35.280496
 30
0.0
 10
23.727473
 20
35.112936
 30
0.0
 10
23.941550
 20
34.952847
 30
0.0
 10
24.209798
 20
34.793171
 30
0.0
 10
24.540469
 20
34.626827
 30
0.0
 10
24.941821
 20
34.446726
 30
0.0
 10
25.532024
 20
34.196271
 30
0.0
 10
25.989150
 20
34.013470
 30
0.0
 10
26.325498
 20
33.896948
 30
0.0
 10
26.553364
 20
33.845381
 30
0.0
 10
26.685050
 20
33.857287
 30
0.0
 10
26.732855
 20
33.931555
 30
0.0
 10
26.709069
 20
34.066705
 30
0.0
  0
LWPOLYLINE
  5
112
100
AcDbEntity
  8
rose
 62
7
100
AcDbPolyline
 90
48
 70
1
 10
31.672283
 20
34.355391
 30
0.0
 10
31.844548
 20
34.479984
 30
0.0
 10
32.023676
 20
34.620742
 30
0.0
 10
32.204426
 20
34.772877
 30
0.0
 10
32.381562
 20
34.931548
 30
0.0
 10
32.549847
 20
35.091893
 30
0.0
 10
32.704044
 20
35.249088
 30
0.0
 10
32.838915
 20
35.398294
 30
0.0
 10
32.949223
 20
35.534673
 30
0.0
 10
33.096683
 20
35.734688
 30
0.0
 10
33.200979
 20
35.891006
 30
0.0
 10
33.261381
 20
36.013148
 30
0.0
 10
33.277150
 20
36.110629
 30
0.0
 10
33.247572
 20
36.192962
 30
0.0
 10
33.171912
 20
36.269662
 30
0.0
 10
33.049436
 20
36.350246
 30
0.0
 10
32.879415
 20
36.444231
 30
0.0
 10
32.542442
 20
36.570398
 30
0.0
 10
32.159330
 20
36.624905
 30
0.0
 10
31.753071
 20
36.613501
 30
0.0
 10
31.346647
 20
36.541929
 30
0.0
 10
30.963044
 20
36.415942
 30
0.0
 10
30.625250
 20
36.241288
 30
0.0
 10
30.356254
 20
36.023716
 30
0.0
 10
30.179036
 20
35.768975
 30
0.0
 10
30.084373
 20
35.482188
 30
0.0
 10
30.038241
 20
35.164093
 30
0.0
 10
30.036653
 20
34.836113
 30
0.0
 10
30.075383
 20
34.519724
 30
0.0
 10
30.150442
 20
34.236329
 30
0.0
 10
30.257773
 20
34.007332
 30
0.0
 10
30.393303
 20
33.854244
 30
0.0
 10
30.552971
 20
33.798444
 30
0.0
 10
30.631643
 20
33.809821
 30
0.0
 10
30.737000
 20
33.842391
 30
0.0
 10
30.864452
 20
33.893905
 30
0.0
 10
31.009404
 20
33.962062
 30
0.0
 10
31.167270
 20
34.044559
 30
0.0
 10
31.333452
 20
34.139148
 30
0.0
 10
31.503362
 20
34.243526
 30
0.0
 10
31.672410
 20
34.355418
 30
0.0
 10
31.672405
 20
34.355418
 30
0.0
 10
31.672397
 20
34.355418
 30
0.0
 10
31.672391
 20
34.355418
 30
0.0
 10
31.672384
 20
34.355418
 30
0.0
 10
31.672378
 20
34.355418
 30
0.0
 10
31.672373
 20
34.355418
 30
0.0
 10
31.672365
 20
34.355418
 30
0.0
  0
LWPOLYLINE
  5
113
100
AcDbEntity
  8
rose
 62
7
100
AcDbPolyline
 90
80
 70
1
 10
29.227624
 20
36.903802
 30
0.0
 10
29.559059
 20
37.230808
 30
0.0
 10
29.885819
 20
37.489129
 30
0.0
 10
30.216766
 20
37.681190
 30
0.0
 10
30.560753
 20
37.809436
 30
0.0
 10
30.926645
 20
37.876293
 30
0.0
 10
31.323300
 20
37.884204
 30
0.0
 10
31.759582
 20
37.835601
 30
0.0
 10
32.244344
 20
37.732916
 30
0.0
 10
32.486099
 20
37.676848
 30
0.0
 10
32.719059
 20
37.631964
 30
0.0
 10
32.937592
 20
37.598714
 30
0.0
 10
33.136069
 20
37.577547
 30
0.0
 10
33.308863
 20
37.568922
 30
0.0
 10
33.450343
 20
37.573287
 30
0.0
 10
33.554880
 20
37.591094
 30
0.0
 10
33.616843
 20
37.622794
 30
0.0
 10
33.636316
 20
37.676948
 30
0.0
 10
33.619065
 20
37.759112
 30
0.0
 10
33.568011
 20
37.865221
 30
0.0
 10
33.486059
 20
37.991218
 30
0.0
 10
33.376117
 20
38.133037
 30
0.0
 10
33.241098
 20
38.286622
 30
0.0
 10
33.083909
 20
38.447907
 30
0.0
 10
32.907461
 20
38.612835
 30
0.0
 10
32.632688
 20
38.850039
 30
0.0
 10
32.392532
 20
39.033395
 30
0.0
 10
32.170559
 20
39.168113
 30
0.0
 10
31.950352
 20
39.259402
 30
0.0
 10
31.715479
 20
39.312478
 30
0.0
 10
31.449520
 20
39.332560
 30
0.0
 10
31.136047
 20
39.324834
 30
0.0
 10
30.758632
 20
39.294526
 30
0.0
 10
30.486386
 20
39.258220
 30
0.0
 10
30.202417
 20
39.201737
 30
0.0
 10
29.914357
 20
39.127685
 30
0.0
 10
29.629838
 20
39.038669
 30
0.0
 10
29.356486
 20
38.937288
 30
0.0
 10
29.101933
 20
38.826150
 30
0.0
 10
28.873812
 20
38.707857
 30
0.0
 10
28.679751
 20
38.585017
 30
0.0
 10
28.451212
 20
38.412855
 30
0.0
 10
28.266985
 20
38.250065
 30
0.0
 10
28.122848
 20
38.088632
 30
0.0
 10
28.014581
 20
37.920550
 30
0.0
 10
27.937963
 20
37.737813
 30
0.0
 10
27.888774
 20
37.532412
 30
0.0
 10
27.862792
 20
37.296335
 30
0.0
 10
27.855807
 20
37.021578
 30
0.0
 10
27.860120
 20
36.812428
 30
0.0
 10
27.871126
 20
36.591289
 30
0.0
 10
27.888060
 20
36.364862
 30
0.0
 10
27.910179
 20
36.139847
 30
0.0
 10
27.936746
 20
35.922944
 30
0.0
 10
27.967022
 20
35.720858
 30
0.0
 10
28.000270
 20
35.540285
 30
0.0
 10
28.035747
 20
35.387928
 30
0.0
 10
28.057787
 20
35.305494
 30
0.0
 10
28.079827
 20
35.223058
 30
0.0
 10
28.101867
 20
35.140624
 30
0.0
 10
28.123907
 20
35.058177
 30
0.0
 10
28.145946
 20
34.975760
 30
0.0
 10
28.167986
 20
34.893316
 30
0.0
 10
28.190026
 20
34.810871
 30
0.0
 10
28.212066
 20
34.728454
 30
0.0
 10
28.237466
 20
34.823466
 30
0.0
 10
28.262866
 20
34.918504
 30
0.0
 10
28.288266
 20
35.013516
 30
0.0
 10
28.313692
 20
35.108549
 30
0.0
 10
28.339092
 20
35.203571
 30
0.0
 10
28.364492
 20
35.298596
 30
0.0
 10
28.389919
 20
35.393621
 30
0.0
 10
28.415319
 20
35.488646
 30
0.0
 10
28.468587
 20
35.654725
 30
0.0
 10
28.542308
 20
35.835505
 30
0.0
 10
28.633150
 20
36.025176
 30
0.0
 10
28.737782
 20
36.217938
 30
0.0
 10
28.852871
 20
36.407989
 30
0.0
 10
28.975084
 20
36.589519
 30
0.0
 10
29.101095
 20
36.756725
 30
0.0
  0
LWPOLYLINE
  5
114
100
AcDbEntity
  8
rose
 62
7
100
AcDbPolyline
 90
48
 70
1
 10
21.766787
 20
40.054962
 30
0.0
 10
21.868691
 20
40.471427
 30
0.0
 10
22.139926
 20
41.278141
 30
0.0
 10
22.528776
 20
42.342395
 30
0.0
 10
22.983529
 20
43.531488
 30
0.0
 10
23.452471
 20
44.712709
 30
0.0
 10
23.883882
 20
45.753355
 30
0.0
 10
24.226054
 20
46.520715
 30
0.0
 10
24.427267
 20
46.882088
 30
0.0
 10
24.545078
 20
47.017277
 30
0.0
 10
24.623056
 20
47.143552
 30
0.0
 10
24.661780
 20
47.258109
 30
0.0
 10
24.661839
 20
47.358137
 30
0.0
 10
24.623813
 20
47.440825
 30
0.0
 10
24.548285
 20
47.503367
 30
0.0
 10
24.435842
 20
47.542951
 30
0.0
 10
24.287067
 20
47.556763
 30
0.0
 10
24.176707
 20
47.525460
 30
0.0
 10
24.011908
 20
47.435742
 30
0.0
 10
23.800700
 20
47.293904
 30
0.0
 10
23.551108
 20
47.106233
 30
0.0
 10
23.271163
 20
46.879022
 30
0.0
 10
22.968897
 20
46.618558
 30
0.0
 10
22.652334
 20
46.331136
 30
0.0
 10
22.329508
 20
46.023042
 30
0.0
 10
21.824786
 20
45.524242
 30
0.0
 10
21.439106
 20
45.120940
 30
0.0
 10
21.153729
 20
44.778125
 30
0.0
 10
20.949908
 20
44.460776
 30
0.0
 10
20.808906
 20
44.133881
 30
0.0
 10
20.711976
 20
43.762422
 30
0.0
 10
20.640377
 20
43.311384
 30
0.0
 10
20.575369
 20
42.745753
 30
0.0
 10
20.526053
 20
42.154412
 30
0.0
 10
20.504781
 20
41.576260
 30
0.0
 10
20.510575
 20
41.022011
 30
0.0
 10
20.542500
 20
40.502362
 30
0.0
 10
20.599586
 20
40.028019
 30
0.0
 10
20.680877
 20
39.609687
 30
0.0
 10
20.785416
 20
39.258069
 30
0.0
 10
20.912247
 20
38.983873
 30
0.0
 10
20.996667
 20
38.929507
 30
0.0
 10
21.115859
 20
38.964493
 30
0.0
 10
21.255641
 20
39.071048
 30
0.0
 10
21.401818
 20
39.231388
 30
0.0
 10
21.540211
 20
39.427733
 30
0.0
 10
21.656628
 20
39.642297
 30
0.0
 10
21.736881
 20
39.857297
 30
0.0
  0
LWPOLYLINE
  5
115
100
AcDbEntity
  8
rose
 62
7
100
AcDbPolyline
 90
64
 70
1
 10
29.785423
 20
48.590349
 30
0.0
 10
30.047800
 20
48.704601
 30
0.0
 10
30.357569
 20
48.817983
 30
0.0
 10
30.703294
 20
48.927526
 30
0.0
 10
31.073558
 20
49.030261
 30
0.0
 10
31.456928
 20
49.123222
 30
0.0
 10
31.841979
 20
49.203441
 30
0.0
 10
32.217282
 20
49.267952
 30
0.0
 10
32.571414
 20
49.313789
 30
0.0
 10
32.904987
 20
49.352714
 30
0.0
 10
33.221368
 20
49.397426
 30
0.0
 10
33.513264
 20
49.446339
 30
0.0
 10
33.773378
 20
49.497880
 30
0.0
 10
33.994416
 20
49.550466
 30
0.0
 10
34.169084
 20
49.602520
 30
0.0
 10
34.290080
 20
49.652463
 30
0.0
 10
34.350114
 20
49.698717
 30
0.0
 10
34.373874
 20
49.855562
 30
0.0
 10
34.262712
 20
50.009513
 30
0.0
 10
34.033178
 20
50.155158
 30
0.0
 10
33.701806
 20
50.287090
 30
0.0
 10
33.285132
 20
50.399895
 30
0.0
 10
32.799693
 20
50.488165
 30
0.0
 10
32.262026
 20
50.546490
 30
0.0
 10
31.688666
 20
50.569456
 30
0.0
 10
31.211358
 20
50.565275
 30
0.0
 10
30.805566
 20
50.542098
 30
0.0
 10
30.448853
 20
50.492928
 30
0.0
 10
30.118769
 20
50.410756
 30
0.0
 10
29.792879
 20
50.288577
 30
0.0
 10
29.448741
 20
50.119386
 30
0.0
 10
29.063907
 20
49.896184
 30
0.0
 10
28.615939
 20
49.611963
 30
0.0
 10
28.302498
 20
49.399871
 30
0.0
 10
27.980921
 20
49.167490
 30
0.0
 10
27.660328
 20
48.922375
 30
0.0
 10
27.349842
 20
48.672076
 30
0.0
 10
27.058589
 20
48.424151
 30
0.0
 10
26.795693
 20
48.186156
 30
0.0
 10
26.570279
 20
47.965642
 30
0.0
 10
26.391470
 20
47.770162
 30
0.0
 10
26.094046
 20
47.372372
 30
0.0
 10
25.770046
 20
46.862956
 30
0.0
 10
25.439952
 20
46.283284
 30
0.0
 10
25.124246
 20
45.674718
 30
0.0
 10
24.843419
 20
45.078631
 30
0.0
 10
24.617952
 20
44.536386
 30
0.0
 10
24.468330
 20
44.089351
 30
0.0
 10
24.415041
 20
43.778895
 30
0.0
 10
24.458607
 20
43.760744
 30
0.0
 10
24.582718
 20
43.834232
 30
0.0
 10
24.778681
 20
43.991281
 30
0.0
 10
25.037806
 20
44.223818
 30
0.0
 10
25.351396
 20
44.523768
 30
0.0
 10
25.710763
 20
44.883061
 30
0.0
 10
26.107212
 20
45.293618
 30
0.0
 10
26.532049
 20
45.747370
 30
0.0
 10
27.001727
 20
46.243519
 30
0.0
 10
27.471251
 20
46.715044
 30
0.0
 10
27.931697
 20
47.154144
 30
0.0
 10
28.374144
 20
47.553021
 30
0.0
 10
28.789667
 20
47.903875
 30
0.0
 10
29.169339
 20
48.198909
 30
0.0
 10
29.504237
 20
48.430324
 30
0.0
  0
LWPOLYLINE
  5
116
100
AcDbEntity
  8
rose
 62
7
100
AcDbPolyline
 90
112
 70
1
 10
46.646309
 20
45.241670
 30
0.0
 10
46.883894
 20
45.507102
 30
0.0
 10
47.066015
 20
45.736708
 30
0.0
 10
47.197769
 20
45.946911
 30
0.0
 10
47.284256
 20
46.154138
 30
0.0
 10
47.330572
 20
46.374814
 30
0.0
 10
47.341816
 20
46.625363
 30
0.0
 10
47.323084
 20
46.922215
 30
0.0
 10
47.279467
 20
47.281789
 30
0.0
 10
47.091703
 20
48.301136
 30
0.0
 10
46.819283
 20
49.250632
 30
0.0
 10
46.465559
 20
50.124911
 30
0.0
 10
46.033891
 20
50.918592
 30
0.0
 10
45.527638
 20
51.626302
 30
0.0
 10
44.950153
 20
52.242664
 30
0.0
 10
44.304795
 20
52.762309
 30
0.0
 10
43.594918
 20
53.179858
 30
0.0
 10
42.941000
 20
53.441361
 30
0.0
 10
42.145729
 20
53.661005
 30
0.0
 10
41.244471
 20
53.835247
 30
0.0
 10
40.272591
 20
53.960545
 30
0.0
 10
39.265455
 20
54.033361
 30
0.0
 10
38.258427
 20
54.050162
 30
0.0
 10
37.286875
 20
54.007392
 30
0.0
 10
36.386162
 20
53.901517
 30
0.0
 10
35.714097
 20
53.794863
 30
0.0
 10
35.187452
 20
53.723793
 30
0.0
 10
34.767690
 20
53.692538
 30
0.0
 10
34.416273
 20
53.705318
 30
0.0
 10
34.094662
 20
53.766365
 30
0.0
 10
33.764314
 20
53.879906
 30
0.0
 10
33.386690
 20
54.050168
 30
0.0
 10
32.923251
 20
54.281376
 30
0.0
 10
32.121987
 20
54.655656
 30
0.0
 10
31.384546
 20
54.928023
 30
0.0
 10
30.691819
 20
55.099060
 30
0.0
 10
30.024691
 20
55.169349
 30
0.0
 10
29.364051
 20
55.139473
 30
0.0
 10
28.690784
 20
55.010009
 30
0.0
 10
27.985784
 20
54.781539
 30
0.0
 10
27.229933
 20
54.454647
 30
0.0
 10
26.876592
 20
54.281133
 30
0.0
 10
26.546956
 20
54.109826
 30
0.0
 10
26.248243
 20
53.945152
 30
0.0
 10
25.987663
 20
53.791532
 30
0.0
 10
25.772430
 20
53.653391
 30
0.0
 10
25.609758
 20
53.535154
 30
0.0
 10
25.506867
 20
53.441245
 30
0.0
 10
25.470966
 20
53.376086
 30
0.0
 10
25.491207
 20
53.324659
 30
0.0
 10
25.549246
 20
53.270107
 30
0.0
 10
25.641000
 20
53.214095
 30
0.0
 10
25.762407
 20
53.158286
 30
0.0
 10
25.909394
 20
53.104343
 30
0.0
 10
26.077888
 20
53.053935
 30
0.0
 10
26.263827
 20
53.008720
 30
0.0
 10
26.463133
 20
52.970366
 30
0.0
 10
26.692146
 20
52.928811
 30
0.0
 10
26.963209
 20
52.874455
 30
0.0
 10
27.266284
 20
52.809603
 30
0.0
 10
27.591335
 20
52.736557
 30
0.0
 10
27.928321
 20
52.657618
 30
0.0
 10
28.267210
 20
52.575092
 30
0.0
 10
28.597958
 20
52.491280
 30
0.0
 10
28.910531
 20
52.408487
 30
0.0
 10
29.232553
 20
52.326688
 30
0.0
 10
29.590386
 20
52.245734
 30
0.0
 10
29.972095
 20
52.167721
 30
0.0
 10
30.365739
 20
52.094760
 30
0.0
 10
30.759383
 20
52.028953
 30
0.0
 10
31.141090
 20
51.972403
 30
0.0
 10
31.498923
 20
51.927218
 30
0.0
 10
31.820942
 20
51.895497
 30
0.0
 10
32.479003
 20
51.829697
 30
0.0
 10
33.084679
 20
51.740586
 30
0.0
 10
33.653959
 20
51.623190
 30
0.0
 10
34.202837
 20
51.472547
 30
0.0
 10
34.747309
 20
51.283690
 30
0.0
 10
35.303365
 20
51.051651
 30
0.0
 10
35.887002
 20
50.771465
 30
0.0
 10
36.514210
 20
50.438167
 30
0.0
 10
36.854263
 20
50.263666
 30
0.0
 10
37.223459
 20
50.099037
 30
0.0
 10
37.616802
 20
49.945857
 30
0.0
 10
38.029301
 20
49.805712
 30
0.0
 10
38.455954
 20
49.680181
 30
0.0
 10
38.891771
 20
49.570847
 30
0.0
 10
39.331754
 20
49.479291
 30
0.0
 10
39.770909
 20
49.407096
 30
0.0
 10
40.765348
 20
49.240269
 30
0.0
 10
41.597126
 20
49.031531
 30
0.0
 10
42.299973
 20
48.756015
 30
0.0
 10
42.907615
 20
48.388848
 30
0.0
 10
43.453776
 20
47.905158
 30
0.0
 10
43.972185
 20
47.280077
 30
0.0
 10
44.496567
 20
46.488735
 30
0.0
 10
45.060648
 20
45.506258
 30
0.0
 10
45.186185
 20
45.280375
 30
0.0
 10
45.306745
 20
45.069646
 30
0.0
 10
45.419444
 20
44.878683
 30
0.0
 10
45.521394
 20
44.712096
 30
0.0
 10
45.609712
 20
44.574502
 30
0.0
 10
45.681511
 20
44.470507
 30
0.0
 10
45.733907
 20
44.404729
 30
0.0
 10
45.764016
 20
44.381790
 30
0.0
 10
45.797775
 20
44.399332
 30
0.0
 10
45.860637
 20
44.449634
 30
0.0
 10
45.948987
 20
44.529157
 30
0.0
 10
46.059199
 20
44.634377
 30
0.0
 10
46.187657
 20
44.761766
 30
0.0
 10
46.330741
 20
44.907797
 30
0.0
 10
46.484829
 20
45.068944
 30
0.0
  0
LWPOLYLINE
  5
117
100
AcDbEntity
  8
uros_logo
 62
1
100
AcDbPolyline
 90
10
 70
1
 10
16.061431
 20
24.689159
 30
0.0
 10
20.215306
 20
24.689159
 30
0.0
 10
20.022402
 20
18.678524
 30
0.0
 10
21.629938
 20
19.749727
 30
0.0
 10
21.154107
 20
24.046437
 30
0.0
 10
25.102218
 20
24.046437
 30
0.0
 10
25.102218
 20
18.261945
 30
0.0
 10
22.800225
 20
15.857690
 30
0.0
 10
17.951895
 20
15.857690
 30
0.0
 10
16.061431
 20
18.000096
 30
0.0
  0
LWPOLYLINE
  5
118
100
AcDbEntity
  8
uros_logo
 62
1
100
AcDbPolyline
 90
10
 70
1
 10
30.889326
 20
24.689159
 30
0.0
 10
33.268480
 20
23.082355
 30
0.0
 10
33.487105
 20
20.309133
 30
0.0
 10
32.149635
 20
18.928473
 30
0.0
 10
34.528789
 20
16.988404
 30
0.0
 10
31.738105
 20
15.869593
 30
0.0
 10
28.818819
 20
18.178629
 30
0.0
 10
29.256069
 20
15.881495
 30
0.0
 10
26.298201
 20
15.881495
 30
0.0
 10
25.552304
 20
24.308289
 30
0.0
  0
LWPOLYLINE
  5
119
100
AcDbEntity
  8
uros_logo
 62
1
100
AcDbPolyline
 90
4
 70
1
 10
28.818819
 20
22.225393
 30
0.0
 10
28.741657
 20
20.535276
 30
0.0
 10
29.526135
 20
20.440057
 30
0.0
 10
30.310613
 20
21.487455
 30
0.0
  0
LWPOLYLINE
  5
11a
100
AcDbEntity
  8
uros_logo
 62
1
100
AcDbPolyline
 90
14
 70
1
 10
53.343361
 20
22.511047
 30
0.0
 10
51.684384
 20
20.618589
 30
0.0
 10
49.742477
 20
21.773109
 30
0.0
 10
49.253788
 20
21.201801
 30
0.0
 10
52.726067
 20
18.845156
 30
0.0
 10
51.041367
 20
15.905301
 30
0.0
 10
46.913215
 20
15.905301
 30
0.0
 10
44.032509
 20
18.023899
 30
0.0
 10
45.279955
 20
19.963968
 30
0.0
 10
47.761995
 20
18.666621
 30
0.0
 10
48.134943
 20
19.202224
 30
0.0
 10
44.495480
 20
21.201801
 30
0.0
 10
47.942037
 20
24.772475
 30
0.0
 10
51.041367
 20
24.772475
 30
0.0
  0
LWPOLYLINE
  5
11b
100
AcDbEntity
  8
uros_logo
 62
1
100
AcDbPolyline
 90
6
 70
1
 10
47.076632
 20
27.393310
 30
0.0
 10
48.077087
 20
28.618118
 30
0.0
 10
49.532894
 20
26.817226
 30
0.0
 10
51.124147
 20
28.453168
 30
0.0
 10
52.090869
 20
26.867249
 30
0.0
 10
49.542714
 20
25.217244
 30
0.0
  0
LWPOLYLINE
  5
11c
100
AcDbEntity
  8
uros_logo
 62
1
100
AcDbPolyline
 90
112
 70
1
 10
45.425767
 20
11.852039
 30
0.0
 10
45.390922
 20
12.029334
 30
0.0
 10
45.229195
 20
12.357300
 30
0.0
 10
44.815441
 20
13.060102
 30
0.0
 10
44.024514
 20
14.361909
 30
0.0
 10
43.688372
 20
14.913586
 30
0.0
 10
43.352228
 20
15.465262
 30
0.0
 10
43.016086
 20
16.016938
 30
0.0
 10
42.679945
 20
16.568614
 30
0.0
 10
42.635028
 20
16.540076
 30
0.0
 10
42.590109
 20
16.511537
 30
0.0
 10
42.545192
 20
16.482998
 30
0.0
 10
42.500276
 20
16.454459
 30
0.0
 10
42.455359
 20
16.425920
 30
0.0
 10
42.410439
 20
16.397382
 30
0.0
 10
42.365523
 20
16.368843
 30
0.0
 10
42.320606
 20
16.340304
 30
0.0
 10
42.277122
 20
16.411321
 30
0.0
 10
42.233635
 20
16.482338
 30
0.0
 10
42.190150
 20
16.553355
 30
0.0
 10
42.146666
 20
16.624372
 30
0.0
 10
42.103179
 20
16.695390
 30
0.0
 10
42.059691
 20
16.766407
 30
0.0
 10
42.016204
 20
16.837421
 30
0.0
 10
41.972716
 20
16.908438
 30
0.0
 10
41.989131
 20
16.921633
 30
0.0
 10
42.005547
 20
16.934828
 30
0.0
 10
42.021929
 20
16.948023
 30
0.0
 10
42.038345
 20
16.961218
 30
0.0
 10
42.080263
 20
16.997320
 30
0.0
 10
42.145888
 20
17.056540
 30
0.0
 10
42.226228
 20
17.130668
 30
0.0
 10
42.312291
 20
17.211494
 30
0.0
 10
43.064446
 20
18.141259
 30
0.0
 10
43.551857
 20
19.224919
 30
0.0
 10
43.755875
 20
20.401458
 30
0.0
 10
43.657840
 20
21.609863
 30
0.0
 10
43.346008
 20
22.559094
 30
0.0
 10
42.845449
 20
23.408648
 30
0.0
 10
42.179840
 20
24.126703
 30
0.0
 10
41.372857
 20
24.681435
 30
0.0
 10
41.120375
 20
24.809197
 30
0.0
 10
40.891855
 20
24.908323
 30
0.0
 10
40.656008
 20
24.991074
 30
0.0
 10
40.381545
 20
25.069699
 30
0.0
 10
39.847556
 20
25.179142
 30
0.0
 10
39.318940
 20
25.221799
 30
0.0
 10
38.788937
 20
25.197770
 30
0.0
 10
38.250774
 20
25.107199
 30
0.0
 10
37.419795
 20
24.828027
 30
0.0
 10
36.652896
 20
24.392019
 30
0.0
 10
35.978739
 20
23.819234
 30
0.0
 10
35.425981
 20
23.129733
 30
0.0
 10
35.089155
 20
22.513383
 30
0.0
 10
34.845064
 20
21.848714
 30
0.0
 10
34.699210
 20
21.154886
 30
0.0
 10
34.657094
 20
20.451070
 30
0.0
 10
34.816624
 20
19.309316
 30
0.0
 10
35.239713
 20
18.261570
 30
0.0
 10
35.901192
 20
17.353216
 30
0.0
 10
36.775895
 20
16.629650
 30
0.0
 10
37.104969
 20
16.438247
 30
0.0
 10
37.433527
 20
16.283311
 30
0.0
 10
37.776929
 20
16.158452
 30
0.0
 10
38.150533
 20
16.057271
 30
0.0
 10
38.411067
 20
16.001634
 30
0.0
 10
38.640230
 20
15.964500
 30
0.0
 10
38.863021
 20
15.942650
 30
0.0
 10
39.104441
 20
15.932874
 30
0.0
 10
39.620286
 20
15.957418
 30
0.0
 10
40.150386
 20
16.045540
 30
0.0
 10
40.667096
 20
16.191055
 30
0.0
 10
41.142761
 20
16.387800
 30
0.0
 10
41.161498
 20
16.397061
 30
0.0
 10
41.180235
 20
16.406322
 30
0.0
 10
41.198972
 20
16.415582
 30
0.0
 10
41.217709
 20
16.424843
 30
0.0
 10
41.260974
 20
16.353687
 30
0.0
 10
41.304240
 20
16.282527
 30
0.0
 10
41.347508
 20
16.211368
 30
0.0
 10
41.390773
 20
16.140212
 30
0.0
 10
41.434042
 20
16.069055
 30
0.0
 10
41.477310
 20
15.997899
 30
0.0
 10
41.520582
 20
15.926743
 30
0.0
 10
41.563850
 20
15.855587
 30
0.0
 10
41.519146
 20
15.826715
 30
0.0
 10
41.474446
 20
15.797843
 30
0.0
 10
41.429745
 20
15.768971
 30
0.0
 10
41.385041
 20
15.740100
 30
0.0
 10
41.340334
 20
15.711228
 30
0.0
 10
41.295623
 20
15.682356
 30
0.0
 10
41.250916
 20
15.653485
 30
0.0
 10
41.206209
 20
15.624613
 30
0.0
 10
41.542998
 20
15.073124
 30
0.0
 10
41.879783
 20
14.521633
 30
0.0
 10
42.216572
 20
13.970141
 30
0.0
 10
42.553361
 20
13.418652
 30
0.0
 10
43.307197
 20
12.186673
 30
0.0
 10
43.725676
 20
11.514449
 30
0.0
 10
43.926731
 20
11.217480
 30
0.0
 10
44.028303
 20
11.111272
 30
0.0
 10
44.434069
 20
10.934334
 30
0.0
 10
44.849920
 20
10.979306
 30
0.0
 10
45.198222
 20
11.217431
 30
0.0
 10
45.401331
 20
11.619952
 30
0.0
 10
45.412939
 20
11.681890
 30
0.0
 10
45.421376
 20
11.746270
 30
0.0
 10
45.425823
 20
11.805481
 30
0.0
 10
45.425555
 20
11.851906
 30
0.0
 10
45.425601
 20
11.851915
 30
0.0
 10
45.425646
 20
11.851924
 30
0.0
 10
45.425695
 20
11.851936
 30
0.0
  0
LWPOLYLINE
  5
11d
100
AcDbEntity
  8
uros_logo
 62
1
100
AcDbPolyline
 90
40
 70
1
 10
42.723567
 20
19.416513
 30
0.0
 10
42.598290
 20
19.083953
 30
0.0
 10
42.448757
 20
18.777305
 30
0.0
 10
42.267551
 20
18.483059
 30
0.0
 10
42.047252
 20
18.187705
 30
0.0
 10
41.844562
 20
17.952785
 30
0.0
 10
41.639341
 20
17.751307
 30
0.0
 10
41.414795
 20
17.568244
 30
0.0
 10
41.154128
 20
17.388561
 30
0.0
 10
40.214079
 20
16.952735
 30
0.0
 10
39.219808
 20
16.798498
 30
0.0
 10
38.223530
 20
16.926542
 30
0.0
 10
37.277462
 20
17.337552
 30
0.0
 10
36.463196
 20
18.016463
 30
0.0
 10
35.882307
 20
18.887686
 30
0.0
 10
35.561837
 20
19.894863
 30
0.0
 10
35.528828
 20
20.981631
 30
0.0
 10
35.574264
 20
21.256944
 30
0.0
 10
35.650528
 20
21.569067
 30
0.0
 10
35.746313
 20
21.877271
 30
0.0
 10
35.850313
 20
22.140830
 30
0.0
 10
36.503334
 20
23.132778
 30
0.0
 10
37.396808
 20
23.855826
 30
0.0
 10
38.462291
 20
24.270226
 30
0.0
 10
39.631335
 20
24.336240
 30
0.0
 10
39.894311
 20
24.293211
 30
0.0
 10
40.202559
 20
24.218798
 30
0.0
 10
40.502989
 20
24.127450
 30
0.0
 10
40.742512
 20
24.033629
 30
0.0
 10
41.293017
 20
23.716104
 30
0.0
 10
41.779914
 20
23.315662
 30
0.0
 10
42.192639
 20
22.842569
 30
0.0
 10
42.520628
 20
22.307081
 30
0.0
 10
42.780376
 20
21.619084
 30
0.0
 10
42.902310
 20
20.886230
 30
0.0
 10
42.884129
 20
20.141141
 30
0.0
 10
42.723573
 20
19.416434
 30
0.0
 10
42.723567
 20
19.416453
 30
0.0
 10
42.723563
 20
19.416474
 30
0.0
 10
42.723557
 20
19.416492
 30
0.0
  0
LWPOLYLINE
  5
11e
100
AcDbEntity
  8
uros_logo
 62
1
100
AcDbPolyline
 90
32
 70
1
 10
38.723629
 20
17.643867
 30
0.0
 10
38.696867
 20
17.712203
 30
0.0
 10
38.641852
 20
17.768049
 30
0.0
 10
38.556477
 20
17.812912
 30
0.0
 10
38.438636
 20
17.848299
 30
0.0
 10
38.278846
 20
17.895456
 30
0.0
 10
38.102427
 20
17.965656
 30
0.0
 10
37.918213
 20
18.054980
 30
0.0
 10
37.735034
 20
18.159505
 30
0.0
 10
37.598525
 20
18.238491
 30
0.0
 10
37.503573
 20
18.277125
 30
0.0
 10
37.432588
 20
18.279849
 30
0.0
 10
37.367981
 20
18.250766
 30
0.0
 10
37.308087
 20
18.192290
 30
0.0
 10
37.274746
 20
18.116645
 30
0.0
 10
37.270439
 20
18.034509
 30
0.0
 10
37.297652
 20
17.956556
 30
0.0
 10
37.452085
 20
17.820611
 30
0.0
 10
37.731591
 20
17.661829
 30
0.0
 10
38.067612
 20
17.514329
 30
0.0
 10
38.391590
 20
17.412216
 30
0.0
 10
38.504299
 20
17.393028
 30
0.0
 10
38.586959
 20
17.396842
 30
0.0
 10
38.647770
 20
17.425532
 30
0.0
 10
38.694931
 20
17.480951
 30
0.0
 10
38.720856
 20
17.524077
 30
0.0
 10
38.732261
 20
17.554489
 30
0.0
 10
38.732018
 20
17.588757
 30
0.0
 10
38.722996
 20
17.643461
 30
0.0
 10
38.723154
 20
17.643589
 30
0.0
 10
38.723311
 20
17.643719
 30
0.0
 10
38.723469
 20
17.643846
 30
0.0
  0
LWPOLYLINE
  5
11f
100
AcDbEntity
  8
uros_logo
 62
1
100
AcDbPolyline
 90
48
 70
1
 10
37.829259
 20
23.236722
 30
0.0
 10
37.815130
 20
23.261266
 30
0.0
 10
37.798619
 20
23.293055
 30
0.0
 10
37.774794
 20
23.319112
 30
0.0
 10
37.748772
 20
23.339268
 30
0.0
 10
37.672298
 20
23.369871
 30
0.0
 10
37.589209
 20
23.362698
 30
0.0
 10
37.484847
 20
23.313417
 30
0.0
 10
37.344555
 20
23.217665
 30
0.0
 10
36.749470
 20
22.648360
 30
0.0
 10
36.317079
 20
21.956756
 30
0.0
 10
36.064784
 20
21.180156
 30
0.0
 10
36.009986
 20
20.355872
 30
0.0
 10
36.025084
 20
20.162462
 30
0.0
 10
36.045812
 20
20.036250
 30
0.0
 10
36.077018
 20
19.958202
 30
0.0
 10
36.123537
 20
19.909296
 30
0.0
 10
36.182275
 20
19.876357
 30
0.0
 10
36.240271
 20
19.864796
 30
0.0
 10
36.299570
 20
19.874541
 30
0.0
 10
36.362216
 20
19.905531
 30
0.0
 10
36.414543
 20
19.954453
 30
0.0
 10
36.443374
 20
20.026042
 30
0.0
 10
36.451196
 20
20.132277
 30
0.0
 10
36.440497
 20
20.285146
 30
0.0
 10
36.424824
 20
20.511352
 30
0.0
 10
36.430540
 20
20.724392
 30
0.0
 10
36.459714
 20
20.950341
 30
0.0
 10
36.514423
 20
21.215289
 30
0.0
 10
36.560498
 20
21.404889
 30
0.0
 10
36.600636
 20
21.542880
 30
0.0
 10
36.645322
 20
21.660848
 30
0.0
 10
36.705042
 20
21.790390
 30
0.0
 10
36.807443
 20
21.984151
 30
0.0
 10
36.921659
 20
22.167713
 30
0.0
 10
37.047065
 20
22.340141
 30
0.0
 10
37.183037
 20
22.500491
 30
0.0
 10
37.285429
 20
22.608512
 30
0.0
 10
37.382351
 20
22.699805
 30
0.0
 10
37.496517
 20
22.794377
 30
0.0
 10
37.650639
 20
22.912218
 30
0.0
 10
37.758863
 20
23.001397
 30
0.0
 10
37.819939
 20
23.076563
 30
0.0
 10
37.850252
 20
23.162464
 30
0.0
 10
37.829242
 20
23.236734
 30
0.0
 10
37.829247
 20
23.236731
 30
0.0
 10
37.829252
 20
23.236725
 30
0.0
 10
37.829257
 20
23.236722
 30
0.0
  0
LWPOLYLINE
  5
120
100
AcDbEntity
  8
uros_logo
 62
7
100
AcDbPolyline
 90
24
 70
1
 10
65.806636
 20
22.136105
 30
0.0
 10
62.732478
 20
22.136105
 30
0.0
 10
59.658321
 20
22.136105
 30
0.0
 10
59.561639
 20
22.154117
 30
0.0
 10
59.455124
 20
22.208176
 30
0.0
 10
59.376468
 20
22.299956
 30
0.0
 10
59.350249
 20
22.417939
 30
0.0
 10
59.350249
 20
23.093075
 30
0.0
 10
59.350249
 20
23.768191
 30
0.0
 10
59.376468
 20
23.884540
 30
0.0
 10
59.455124
 20
23.971398
 30
0.0
 10
59.561639
 20
24.030379
 30
0.0
 10
59.658321
 20
24.050067
 30
0.0
 10
62.732478
 20
24.050067
 30
0.0
 10
65.806636
 20
24.050067
 30
0.0
 10
65.900042
 20
24.032054
 30
0.0
 10
65.996724
 20
23.977975
 30
0.0
 10
66.070466
 20
23.889483
 30
0.0
 10
66.095045
 20
23.768212
 30
0.0
 10
66.095045
 20
23.093096
 30
0.0
 10
66.095045
 20
22.417960
 30
0.0
 10
66.070464
 20
22.296689
 30
0.0
 10
65.996724
 20
22.208197
 30
0.0
 10
65.900044
 20
22.154117
 30
0.0
  0
LWPOLYLINE
  5
121
100
AcDbEntity
  8
uros_logo
 62
7
100
AcDbPolyline
 90
32
 70
1
 10
66.776733
 20
20.497421
 30
0.0
 10
65.691930
 20
18.085285
 30
0.0
 10
64.607126
 20
15.673149
 30
0.0
 10
64.549773
 20
15.581389
 30
0.0
 10
64.456367
 20
15.489630
 30
0.0
 10
64.344936
 20
15.420805
 30
0.0
 10
64.220398
 20
15.397850
 30
0.0
 10
63.394505
 20
15.397850
 30
0.0
 10
62.568611
 20
15.397850
 30
0.0
 10
62.462096
 20
15.424073
 30
0.0
 10
62.404743
 20
15.502742
 30
0.0
 10
62.396553
 20
15.597768
 30
0.0
 10
62.424412
 20
15.673149
 30
0.0
 10
63.148706
 20
17.265943
 30
0.0
 10
63.873003
 20
18.858737
 30
0.0
 10
61.414987
 20
18.858737
 30
0.0
 10
58.956972
 20
18.858737
 30
0.0
 10
58.863566
 20
18.876749
 30
0.0
 10
58.766884
 20
18.930829
 30
0.0
 10
58.693146
 20
19.019321
 30
0.0
 10
58.668563
 20
19.140571
 30
0.0
 10
58.668563
 20
19.815707
 30
0.0
 10
58.668563
 20
20.490844
 30
0.0
 10
58.693144
 20
20.612094
 30
0.0
 10
58.766884
 20
20.700586
 30
0.0
 10
58.863570
 20
20.754665
 30
0.0
 10
58.956972
 20
20.772678
 30
0.0
 10
62.794753
 20
20.772678
 30
0.0
 10
66.632534
 20
20.772678
 30
0.0
 10
66.734133
 20
20.746455
 30
0.0
 10
66.789847
 20
20.667807
 30
0.0
 10
66.802958
 20
20.572759
 30
0.0
  0
LWPOLYLINE
  5
122
100
AcDbEntity
  8
uros_logo
 62
7
100
AcDbPolyline
 90
24
 70
1
 10
74.373642
 20
18.465455
 30
0.0
 10
74.349061
 20
18.344205
 30
0.0
 10
74.275320
 20
18.229490
 30
0.0
 10
74.185192
 20
18.136076
 30
0.0
 10
74.098344
 20
18.078729
 30
0.0
 10
71.125783
 20
16.656363
 30
0.0
 10
68.153223
 20
15.233998
 30
0.0
 10
68.077845
 20
15.207754
 30
0.0
 10
67.982801
 20
15.220740
 30
0.0
 10
67.904145
 20
15.273165
 30
0.0
 10
67.877926
 20
15.378036
 30
0.0
 10
67.877926
 20
16.203934
 30
0.0
 10
67.877926
 20
17.029831
 30
0.0
 10
67.900867
 20
17.151081
 30
0.0
 10
67.969692
 20
17.265796
 30
0.0
 10
68.061457
 20
17.359189
 30
0.0
 10
68.153223
 20
17.416557
 30
0.0
 10
71.125783
 20
18.838923
 30
0.0
 10
74.098344
 20
20.261309
 30
0.0
 10
74.173723
 20
20.287532
 30
0.0
 10
74.268766
 20
20.274546
 30
0.0
 10
74.347423
 20
20.222100
 30
0.0
 10
74.373642
 20
20.117229
 30
0.0
 10
74.373642
 20
19.291332
 30
0.0
  0
LWPOLYLINE
  5
123
100
AcDbEntity
  8
uros_logo
 62
7
100
AcDbPolyline
 90
24
 70
1
 10
70.644013
 20
24.050067
 30
0.0
 10
70.739057
 20
24.030379
 30
0.0
 10
70.840654
 20
23.971398
 30
0.0
 10
70.924226
 20
23.884540
 30
0.0
 10
70.952083
 20
23.768191
 30
0.0
 10
70.952083
 20
23.093054
 30
0.0
 10
70.952083
 20
22.417939
 30
0.0
 10
70.924226
 20
22.299956
 30
0.0
 10
70.840654
 20
22.208176
 30
0.0
 10
70.739057
 20
22.154096
 30
0.0
 10
70.644013
 20
22.136084
 30
0.0
 10
69.339626
 20
22.136084
 30
0.0
 10
68.035239
 20
22.136084
 30
0.0
 10
67.941833
 20
22.154096
 30
0.0
 10
67.845152
 20
22.208176
 30
0.0
 10
67.771409
 20
22.296668
 30
0.0
 10
67.746830
 20
22.417939
 30
0.0
 10
67.746830
 20
23.093054
 30
0.0
 10
67.746830
 20
23.768191
 30
0.0
 10
67.771411
 20
23.889462
 30
0.0
 10
67.845152
 20
23.977954
 30
0.0
 10
67.941831
 20
24.032033
 30
0.0
 10
68.035239
 20
24.050046
 30
0.0
 10
69.339626
 20
24.050046
 30
0.0
  0
LWPOLYLINE
  5
124
100
AcDbEntity
  8
uros_logo
 62
7
100
AcDbPolyline
 90
24
 70
1
 10
84.009063
 20
25.937827
 30
0.0
 10
84.172929
 20
25.901781
 30
0.0
 10
84.297469
 20
25.793622
 30
0.0
 10
84.376126
 20
25.660894
 30
0.0
 10
84.402344
 20
25.537990
 30
0.0
 10
84.402344
 20
24.600665
 30
0.0
 10
84.402344
 20
23.663341
 30
0.0
 10
84.376126
 20
23.535535
 30
0.0
 10
84.297469
 20
23.401153
 30
0.0
 10
84.172929
 20
23.297916
 30
0.0
 10
84.009063
 20
23.263504
 30
0.0
 10
83.006191
 20
23.263504
 30
0.0
 10
82.003322
 20
23.263504
 30
0.0
 10
81.839454
 20
23.297916
 30
0.0
 10
81.714914
 20
23.401153
 30
0.0
 10
81.636257
 20
23.535535
 30
0.0
 10
81.610038
 20
23.663341
 30
0.0
 10
81.610038
 20
24.600665
 30
0.0
 10
81.610038
 20
25.537990
 30
0.0
 10
81.636257
 20
25.660894
 30
0.0
 10
81.714914
 20
25.793622
 30
0.0
 10
81.839454
 20
25.901781
 30
0.0
 10
82.003322
 20
25.937827
 30
0.0
 10
83.006191
 20
25.937827
 30
0.0
  0
LWPOLYLINE
  5
125
100
AcDbEntity
  8
uros_logo
 62
7
100
AcDbPolyline
 90
24
 70
1
 10
83.248716
 20
24.856297
 30
0.0
 10
83.006191
 20
24.856297
 30
0.0
 10
82.763667
 20
24.856297
 30
0.0
 10
82.704676
 20
24.843102
 30
0.0
 10
82.658792
 20
24.803789
 30
0.0
 10
82.634213
 20
24.757898
 30
0.0
 10
82.626023
 20
24.712008
 30
0.0
 10
82.626023
 20
24.597293
 30
0.0
 10
82.626023
 20
24.482599
 30
0.0
 10
82.634213
 20
24.439997
 30
0.0
 10
82.658792
 20
24.390840
 30
0.0
 10
82.704676
 20
24.356427
 30
0.0
 10
82.763667
 20
24.344908
 30
0.0
 10
83.006191
 20
24.344908
 30
0.0
 10
83.248716
 20
24.344908
 30
0.0
 10
83.306070
 20
24.356427
 30
0.0
 10
83.347036
 20
24.390840
 30
0.0
 10
83.376532
 20
24.439997
 30
0.0
 10
83.386355
 20
24.482599
 30
0.0
 10
83.386355
 20
24.597293
 30
0.0
 10
83.386355
 20
24.712008
 30
0.0
 10
83.376532
 20
24.757898
 30
0.0
 10
83.347036
 20
24.803789
 30
0.0
 10
83.306070
 20
24.843102
 30
0.0
  0
LWPOLYLINE
  5
126
100
AcDbEntity
  8
uros_logo
 62
7
100
AcDbPolyline
 90
36
 70
1
 10
81.059444
 20
22.136105
 30
0.0
 10
78.686641
 20
22.136105
 30
0.0
 10
76.313835
 20
22.136105
 30
0.0
 10
76.220432
 20
22.154117
 30
0.0
 10
76.123748
 20
22.208197
 30
0.0
 10
76.050005
 20
22.296689
 30
0.0
 10
76.025427
 20
22.417960
 30
0.0
 10
76.025427
 20
23.093075
 30
0.0
 10
76.025427
 20
23.768212
 30
0.0
 10
76.050007
 20
23.889483
 30
0.0
 10
76.123748
 20
23.977975
 30
0.0
 10
76.220427
 20
24.032054
 30
0.0
 10
76.313835
 20
24.050067
 30
0.0
 10
78.876726
 20
24.050067
 30
0.0
 10
81.439616
 20
24.050067
 30
0.0
 10
81.439616
 20
23.696120
 30
0.0
 10
81.439616
 20
23.342172
 30
0.0
 10
81.495332
 20
23.250392
 30
0.0
 10
81.583820
 20
23.158633
 30
0.0
 10
81.700166
 20
23.089808
 30
0.0
 10
81.826344
 20
23.066873
 30
0.0
 10
82.737450
 20
23.066873
 30
0.0
 10
83.648554
 20
23.066873
 30
0.0
 10
81.983657
 20
19.370001
 30
0.0
 10
80.318761
 20
15.673149
 30
0.0
 10
80.261407
 20
15.581389
 30
0.0
 10
80.168004
 20
15.489630
 30
0.0
 10
80.056573
 20
15.420805
 30
0.0
 10
79.932033
 20
15.397850
 30
0.0
 10
79.106141
 20
15.397850
 30
0.0
 10
78.280248
 20
15.397850
 30
0.0
 10
78.178650
 20
15.424073
 30
0.0
 10
78.122935
 20
15.502742
 30
0.0
 10
78.109823
 20
15.597789
 30
0.0
 10
78.136042
 20
15.673149
 30
0.0
 10
79.597742
 20
18.904627
 30
0.0
  0
LWPOLYLINE
  5
127
100
AcDbEntity
  8
uros_logo
 62
7
100
AcDbPolyline
 90
24
 70
1
 10
84.920166
 20
19.514206
 30
0.0
 10
84.920166
 20
21.769025
 30
0.0
 10
84.920166
 20
24.023844
 30
0.0
 10
84.938200
 20
24.118892
 30
0.0
 10
84.992277
 20
24.220495
 30
0.0
 10
85.084043
 20
24.304065
 30
0.0
 10
85.202028
 20
24.331922
 30
0.0
 10
85.877162
 20
24.331922
 30
0.0
 10
86.552297
 20
24.331922
 30
0.0
 10
86.668643
 20
24.304065
 30
0.0
 10
86.755493
 20
24.220495
 30
0.0
 10
86.814484
 20
24.118892
 30
0.0
 10
86.834152
 20
24.023844
 30
0.0
 10
86.834152
 20
21.769025
 30
0.0
 10
86.834152
 20
19.514206
 30
0.0
 10
86.816118
 20
19.420813
 30
0.0
 10
86.762043
 20
19.324131
 30
0.0
 10
86.673553
 20
19.250384
 30
0.0
 10
86.552290
 20
19.225816
 30
0.0
 10
85.877156
 20
19.225816
 30
0.0
 10
85.202021
 20
19.225816
 30
0.0
 10
85.080759
 20
19.250405
 30
0.0
 10
84.992271
 20
19.324131
 30
0.0
 10
84.938194
 20
19.420813
 30
0.0
  0
LWPOLYLINE
  5
128
100
AcDbEntity
  8
uros_logo
 62
7
100
AcDbPolyline
 90
34
 70
1
 10
89.193837
 20
18.091840
 30
0.0
 10
89.229888
 20
18.195078
 30
0.0
 10
89.259384
 20
18.321250
 30
0.0
 10
89.280687
 20
18.449076
 30
0.0
 10
89.292165
 20
18.557235
 30
0.0
 10
89.295433
 20
18.603125
 30
0.0
 10
89.298700
 20
18.648995
 30
0.0
 10
89.298700
 20
21.352809
 30
0.0
 10
89.298700
 20
24.056623
 30
0.0
 10
89.316733
 20
24.143481
 30
0.0
 10
89.370809
 20
24.233607
 30
0.0
 10
89.457659
 20
24.307353
 30
0.0
 10
89.574005
 20
24.331922
 30
0.0
 10
90.367127
 20
24.331922
 30
0.0
 10
91.160246
 20
24.331922
 30
0.0
 10
91.274952
 20
24.307353
 30
0.0
 10
91.356886
 20
24.233607
 30
0.0
 10
91.410962
 20
24.143481
 30
0.0
 10
91.428995
 20
24.056623
 30
0.0
 10
91.428995
 20
21.352809
 30
0.0
 10
91.428995
 20
18.648995
 30
0.0
 10
91.392943
 20
18.332727
 30
0.0
 10
91.324120
 20
18.091840
 30
0.0
 10
90.783358
 20
16.882505
 30
0.0
 10
90.242595
 20
15.673149
 30
0.0
 10
90.101669
 20
15.466674
 30
0.0
 10
89.914858
 20
15.397850
 30
0.0
 10
89.118461
 20
15.397850
 30
0.0
 10
88.322064
 20
15.397850
 30
0.0
 10
88.208995
 20
15.424073
 30
0.0
 10
88.131977
 20
15.502742
 30
0.0
 10
88.100842
 20
15.594501
 30
0.0
 10
88.112320
 20
15.673149
 30
0.0
 10
88.653085
 20
16.882505
 30
0.0
  0
LWPOLYLINE
  5
129
100
AcDbEntity
  8
GMO_detective
 62
7
100
AcDbPolyline
 90
52
 70
1
 10
21.933539
 20
8.887348
 30
0.0
 10
21.173342
 20
8.814825
 30
0.0
 10
20.479833
 20
8.521852
 30
0.0
 10
19.982464
 20
8.003640
 30
0.0
 10
19.810672
 20
7.255398
 30
0.0
 10
19.808740
 20
6.293215
 30
0.0
 10
19.814053
 20
5.278697
 30
0.0
 10
20.072224
 20
4.391575
 30
0.0
 10
20.828875
 20
3.811556
 30
0.0
 10
21.795699
 20
3.649181
 30
0.0
 10
22.782397
 20
3.616876
 30
0.0
 10
23.776076
 20
3.636190
 30
0.0
 10
24.763846
 20
3.628782
 30
0.0
 10
24.763846
 20
4.490106
 30
0.0
 10
24.763846
 20
5.351431
 30
0.0
 10
24.763846
 20
6.212755
 30
0.0
 10
24.763846
 20
7.074053
 30
0.0
 10
24.115178
 20
7.074053
 30
0.0
 10
23.466510
 20
7.074053
 30
0.0
 10
22.817842
 20
7.074053
 30
0.0
 10
22.169173
 20
7.074053
 30
0.0
 10
22.147724
 20
6.564095
 30
0.0
 10
22.431819
 20
6.359704
 30
0.0
 10
22.891707
 20
6.331129
 30
0.0
 10
23.397627
 20
6.348592
 30
0.0
 10
23.799478
 20
6.203680
 30
0.0
 10
23.859797
 20
5.717217
 30
0.0
 10
23.794684
 20
5.105342
 30
0.0
 10
23.820234
 20
4.584113
 30
0.0
 10
23.489802
 20
4.353475
 30
0.0
 10
22.950656
 20
4.326170
 30
0.0
 10
22.341268
 20
4.373954
 30
0.0
 10
21.800114
 20
4.368663
 30
0.0
 10
21.182123
 20
4.498546
 30
0.0
 10
20.847769
 20
4.941300
 30
0.0
 10
20.727998
 20
5.546137
 30
0.0
 10
20.753755
 20
6.162246
 30
0.0
 10
20.732630
 20
6.790208
 30
0.0
 10
20.799792
 20
7.437987
 30
0.0
 10
21.076531
 20
7.941066
 30
0.0
 10
21.684140
 20
8.134820
 30
0.0
 10
22.452935
 20
8.162416
 30
0.0
 10
23.223084
 20
8.165062
 30
0.0
 10
23.993687
 20
8.159506
 30
0.0
 10
24.763845
 20
8.162151
 30
0.0
 10
24.773399
 20
8.697747
 30
0.0
 10
24.439417
 20
8.889782
 30
0.0
 10
23.923009
 20
8.899307
 30
0.0
 10
23.385287
 20
8.887136
 30
0.0
 10
23.022347
 20
8.887136
 30
0.0
 10
22.659407
 20
8.887136
 30
0.0
 10
22.296467
 20
8.887401
 30
0.0
  0
LWPOLYLINE
  5
12a
100
AcDbEntity
  8
GMO_detective
 62
7
100
AcDbPolyline
 90
50
 70
1
 10
25.235662
 20
8.887348
 30
0.0
 10
25.235662
 20
7.572686
 30
0.0
 10
25.235662
 20
6.258052
 30
0.0
 10
25.235662
 20
4.943390
 30
0.0
 10
25.235662
 20
3.628755
 30
0.0
 10
25.861984
 20
3.588724
 30
0.0
 10
26.145449
 20
3.891619
 30
0.0
 10
26.209911
 20
4.413483
 30
0.0
 10
26.179273
 20
5.030465
 30
0.0
 10
26.185829
 20
5.821463
 30
0.0
 10
26.171852
 20
6.633019
 30
0.0
 10
26.176312
 20
7.426107
 30
0.0
 10
26.238184
 20
8.161808
 30
0.0
 10
26.909870
 20
7.982552
 30
0.0
 10
27.357442
 20
7.457593
 30
0.0
 10
27.704805
 20
6.791266
 30
0.0
 10
28.075849
 20
6.187937
 30
0.0
 10
28.353532
 20
5.947087
 30
0.0
 10
28.631238
 20
6.297818
 30
0.0
 10
28.908998
 20
6.871832
 30
0.0
 10
29.186842
 20
7.300854
 30
0.0
 10
29.391939
 20
7.709846
 30
0.0
 10
29.798537
 20
8.057244
 30
0.0
 10
30.208829
 20
8.174560
 30
0.0
 10
30.425009
 20
7.893361
 30
0.0
 10
30.425009
 20
6.827197
 30
0.0
 10
30.425009
 20
5.761058
 30
0.0
 10
30.425009
 20
4.694894
 30
0.0
 10
30.425009
 20
3.628755
 30
0.0
 10
31.060544
 20
3.591370
 30
0.0
 10
31.340433
 20
3.909584
 30
0.0
 10
31.398514
 20
4.449625
 30
0.0
 10
31.368619
 20
5.077640
 30
0.0
 10
31.368619
 20
6.030060
 30
0.0
 10
31.368619
 20
6.982507
 30
0.0
 10
31.368619
 20
7.934927
 30
0.0
 10
31.368619
 20
8.887348
 30
0.0
 10
30.573787
 20
8.900312
 30
0.0
 10
29.759461
 20
8.858746
 30
0.0
 10
29.042133
 20
8.604720
 30
0.0
 10
28.538303
 20
7.980383
 30
0.0
 10
28.253016
 20
7.749481
 30
0.0
 10
27.977548
 20
8.078543
 30
0.0
 10
27.650634
 20
8.561461
 30
0.0
 10
27.211011
 20
8.792151
 30
0.0
 10
26.725884
 20
8.878564
 30
0.0
 10
26.230217
 20
8.894174
 30
0.0
 10
25.731108
 20
8.882532
 30
0.0
 10
25.235662
 20
8.887295
 30
0.0
 10
25.235662
 20
8.887268
 30
0.0
  0
LWPOLYLINE
  5
12b
100
AcDbEntity
  8
GMO_detective
 62
7
100
AcDbPolyline
 90
22
 70
1
 10
33.963291
 20
8.887348
 30
0.0
 10
33.203117
 20
8.814799
 30
0.0
 10
32.509790
 20
8.521799
 30
0.0
 10
32.012497
 20
8.003560
 30
0.0
 10
31.840426
 20
7.255398
 30
0.0
 10
31.827964
 20
6.292633
 30
0.0
 10
31.843918
 20
5.278802
 30
0.0
 10
32.102186
 20
4.391681
 30
0.0
 10
32.858693
 20
3.811688
 30
0.0
 10
33.789216
 20
3.629999
 30
0.0
 10
34.777578
 20
3.608568
 30
0.0
 10
35.729821
 20
3.743717
 30
0.0
 10
36.581665
 20
4.142153
 30
0.0
 10
36.991505
 20
4.832847
 30
0.0
 10
37.052507
 20
5.696209
 30
0.0
 10
37.020791
 20
6.554094
 30
0.0
 10
37.005710
 20
7.387240
 30
0.0
 10
36.694497
 20
8.292141
 30
0.0
 10
35.895325
 20
8.738440
 30
0.0
 10
34.917121
 20
8.883935
 30
0.0
 10
33.963270
 20
8.887374
 30
0.0
 10
33.963275
 20
8.887374
 30
0.0
  0
LWPOLYLINE
  5
12c
100
AcDbEntity
  8
GMO_detective
 62
7
100
AcDbPolyline
 90
44
 70
1
 10
39.066337
 20
8.887348
 30
0.0
 10
39.056839
 20
8.351672
 30
0.0
 10
39.390984
 20
8.159691
 30
0.0
 10
39.907580
 20
8.150166
 30
0.0
 10
40.445417
 20
8.162337
 30
0.0
 10
41.177693
 20
8.158103
 30
0.0
 10
41.976057
 20
8.167364
 30
0.0
 10
42.660725
 20
7.980568
 30
0.0
 10
43.051919
 20
7.388245
 30
0.0
 10
43.062370
 20
6.696122
 30
0.0
 10
43.102177
 20
5.982753
 30
0.0
 10
43.063328
 20
5.288222
 30
0.0
 10
42.837816
 20
4.652693
 30
0.0
 10
42.185877
 20
4.387342
 30
0.0
 10
41.469285
 20
4.334796
 30
0.0
 10
40.729992
 20
4.366572
 30
0.0
 10
40.009955
 20
4.354137
 30
0.0
 10
40.009955
 20
5.034195
 30
0.0
 10
40.009955
 20
5.714254
 30
0.0
 10
40.009955
 20
6.394312
 30
0.0
 10
40.009955
 20
7.074397
 30
0.0
 10
39.384200
 20
7.114640
 30
0.0
 10
39.101400
 20
6.811983
 30
0.0
 10
39.036963
 20
6.290913
 30
0.0
 10
39.066343
 20
5.676048
 30
0.0
 10
39.091610
 20
5.122460
 30
0.0
 10
39.035077
 20
4.487090
 30
0.0
 10
39.061297
 20
3.934455
 30
0.0
 10
39.334794
 20
3.629126
 30
0.0
 10
40.417797
 20
3.640503
 30
0.0
 10
41.525805
 20
3.609758
 30
0.0
 10
42.597582
 20
3.717047
 30
0.0
 10
43.571894
 20
4.142550
 30
0.0
 10
43.944671
 20
4.873117
 30
0.0
 10
44.042267
 20
5.696712
 30
0.0
 10
44.010576
 20
6.554491
 30
0.0
 10
43.995494
 20
7.387584
 30
0.0
 10
43.696648
 20
8.232319
 30
0.0
 10
42.990356
 20
8.699176
 30
0.0
 10
42.085187
 20
8.885205
 30
0.0
 10
41.189732
 20
8.887850
 30
0.0
 10
40.658885
 20
8.887850
 30
0.0
 10
40.128039
 20
8.887850
 30
0.0
 10
39.597192
 20
8.887718
 30
0.0
  0
LWPOLYLINE
  5
12d
100
AcDbEntity
  8
GMO_detective
 62
7
100
AcDbPolyline
 90
36
 70
1
 10
46.614713
 20
8.887348
 30
0.0
 10
45.854536
 20
8.814799
 30
0.0
 10
45.161208
 20
8.521799
 30
0.0
 10
44.663911
 20
8.003560
 30
0.0
 10
44.491845
 20
7.255398
 30
0.0
 10
44.489993
 20
6.293294
 30
0.0
 10
44.495443
 20
5.278802
 30
0.0
 10
44.753713
 20
4.391681
 30
0.0
 10
45.510215
 20
3.811688
 30
0.0
 10
46.477137
 20
3.649181
 30
0.0
 10
47.463948
 20
3.616849
 30
0.0
 10
48.457747
 20
3.636164
 30
0.0
 10
49.445637
 20
3.628755
 30
0.0
 10
49.455003
 20
4.164166
 30
0.0
 10
49.120787
 20
4.355963
 30
0.0
 10
48.604220
 20
4.365223
 30
0.0
 10
48.066555
 20
4.353317
 30
0.0
 10
47.334419
 20
4.357550
 30
0.0
 10
46.536269
 20
4.348290
 30
0.0
 10
45.851694
 20
4.535138
 30
0.0
 10
45.460299
 20
5.127223
 30
0.0
 10
45.449557
 20
5.819399
 30
0.0
 10
45.409808
 20
6.532742
 30
0.0
 10
45.448795
 20
7.227299
 30
0.0
 10
45.674251
 20
7.863172
 30
0.0
 10
46.450592
 20
8.139556
 30
0.0
 10
47.294131
 20
8.185594
 30
0.0
 10
48.160696
 20
8.144980
 30
0.0
 10
49.006117
 20
8.161384
 30
0.0
 10
49.433106
 20
8.293014
 30
0.0
 10
49.439800
 20
8.657928
 30
0.0
 10
49.128989
 20
8.955928
 30
0.0
 10
48.603450
 20
8.886924
 30
0.0
 10
48.106287
 20
8.886924
 30
0.0
 10
47.609125
 20
8.886924
 30
0.0
 10
47.111957
 20
8.887189
 30
0.0
  0
LWPOLYLINE
  5
12e
100
AcDbEntity
  8
GMO_detective
 62
7
100
AcDbPolyline
 90
16
 70
1
 10
49.917352
 20
8.887348
 30
0.0
 10
49.906001
 20
8.355615
 30
0.0
 10
50.230775
 20
8.160008
 30
0.0
 10
50.737838
 20
8.146779
 30
0.0
 10
51.273349
 20
8.162654
 30
0.0
 10
52.290598
 20
8.162654
 30
0.0
 10
53.307849
 20
8.162654
 30
0.0
 10
54.325100
 20
8.162654
 30
0.0
 10
55.342351
 20
8.162654
 30
0.0
 10
55.353702
 20
8.694414
 30
0.0
 10
55.028928
 20
8.890020
 30
0.0
 10
54.521863
 20
8.903249
 30
0.0
 10
53.986354
 20
8.887374
 30
0.0
 10
52.969103
 20
8.887374
 30
0.0
 10
51.951852
 20
8.887374
 30
0.0
 10
50.934600
 20
8.887348
 30
0.0
  0
LWPOLYLINE
  5
12f
100
AcDbEntity
  8
GMO_detective
 62
7
100
AcDbPolyline
 90
36
 70
1
 10
57.937532
 20
8.887348
 30
0.0
 10
57.177223
 20
8.814852
 30
0.0
 10
56.483721
 20
8.521932
 30
0.0
 10
55.986278
 20
8.003719
 30
0.0
 10
55.814148
 20
7.255398
 30
0.0
 10
55.812296
 20
6.293294
 30
0.0
 10
55.817746
 20
5.278802
 30
0.0
 10
56.076009
 20
4.391681
 30
0.0
 10
56.832521
 20
3.811688
 30
0.0
 10
57.799446
 20
3.649181
 30
0.0
 10
58.786257
 20
3.616849
 30
0.0
 10
59.780055
 20
3.636164
 30
0.0
 10
60.767943
 20
3.628755
 30
0.0
 10
60.777362
 20
4.164060
 30
0.0
 10
60.443310
 20
4.355910
 30
0.0
 10
59.926931
 20
4.365435
 30
0.0
 10
59.389382
 20
4.353264
 30
0.0
 10
58.657153
 20
4.357497
 30
0.0
 10
57.858935
 20
4.348237
 30
0.0
 10
57.174249
 20
4.535085
 30
0.0
 10
56.782610
 20
5.127170
 30
0.0
 10
56.771894
 20
5.819346
 30
0.0
 10
56.732088
 20
6.532715
 30
0.0
 10
56.771093
 20
7.227273
 30
0.0
 10
56.996801
 20
7.862934
 30
0.0
 10
57.773136
 20
8.139503
 30
0.0
 10
58.616765
 20
8.185567
 30
0.0
 10
59.483447
 20
8.144874
 30
0.0
 10
60.328941
 20
8.161278
 30
0.0
 10
60.755542
 20
8.292961
 30
0.0
 10
60.762157
 20
8.657848
 30
0.0
 10
60.451499
 20
8.955822
 30
0.0
 10
59.926275
 20
8.886819
 30
0.0
 10
59.429112
 20
8.886819
 30
0.0
 10
58.931950
 20
8.886819
 30
0.0
 10
58.434795
 20
8.886819
 30
0.0
  0
LWPOLYLINE
  5
130
100
AcDbEntity
  8
GMO_detective
 62
7
100
AcDbPolyline
 90
36
 70
1
 10
63.362523
 20
8.887348
 30
0.0
 10
62.602349
 20
8.814799
 30
0.0
 10
61.909019
 20
8.521799
 30
0.0
 10
61.411722
 20
8.003560
 30
0.0
 10
61.239655
 20
7.255398
 30
0.0
 10
61.237803
 20
6.293294
 30
0.0
 10
61.243227
 20
5.278802
 30
0.0
 10
61.501490
 20
4.391681
 30
0.0
 10
62.258002
 20
3.811688
 30
0.0
 10
63.224924
 20
3.649181
 30
0.0
 10
64.211735
 20
3.616849
 30
0.0
 10
65.205533
 20
3.636164
 30
0.0
 10
66.193424
 20
3.628755
 30
0.0
 10
66.202790
 20
4.164166
 30
0.0
 10
65.868574
 20
4.355963
 30
0.0
 10
65.352007
 20
4.365223
 30
0.0
 10
64.814342
 20
4.353317
 30
0.0
 10
64.082224
 20
4.357285
 30
0.0
 10
63.284156
 20
4.348290
 30
0.0
 10
62.599613
 20
4.535165
 30
0.0
 10
62.208083
 20
5.127223
 30
0.0
 10
62.197367
 20
5.819399
 30
0.0
 10
62.157563
 20
6.532768
 30
0.0
 10
62.196568
 20
7.227326
 30
0.0
 10
62.422274
 20
7.862987
 30
0.0
 10
63.198484
 20
8.139556
 30
0.0
 10
64.041978
 20
8.185620
 30
0.0
 10
64.908528
 20
8.144927
 30
0.0
 10
65.753901
 20
8.161331
 30
0.0
 10
66.180891
 20
8.292961
 30
0.0
 10
66.187585
 20
8.657875
 30
0.0
 10
65.876773
 20
8.955875
 30
0.0
 10
65.351234
 20
8.886871
 30
0.0
 10
64.854072
 20
8.886871
 30
0.0
 10
64.356909
 20
8.886871
 30
0.0
 10
63.859755
 20
8.886871
 30
0.0
  0
LWPOLYLINE
  5
131
100
AcDbEntity
  8
GMO_detective
 62
7
100
AcDbPolyline
 90
16
 70
1
 10
66.665163
 20
8.887348
 30
0.0
 10
66.653812
 20
8.355615
 30
0.0
 10
66.978585
 20
8.160008
 30
0.0
 10
67.485649
 20
8.146779
 30
0.0
 10
68.021160
 20
8.162654
 30
0.0
 10
69.038538
 20
8.162654
 30
0.0
 10
70.055919
 20
8.162654
 30
0.0
 10
71.073297
 20
8.162654
 30
0.0
 10
72.090678
 20
8.162654
 30
0.0
 10
72.102002
 20
8.694493
 30
0.0
 10
71.777054
 20
8.890046
 30
0.0
 10
71.269792
 20
8.903276
 30
0.0
 10
70.734181
 20
8.887401
 30
0.0
 10
69.716929
 20
8.887401
 30
0.0
 10
68.699678
 20
8.887401
 30
0.0
 10
67.682427
 20
8.887374
 30
0.0
  0
LWPOLYLINE
  5
132
100
AcDbEntity
  8
GMO_detective
 62
7
100
AcDbPolyline
 90
16
 70
1
 10
72.561959
 20
8.887348
 30
0.0
 10
72.561959
 20
7.572686
 30
0.0
 10
72.561959
 20
6.258052
 30
0.0
 10
72.561959
 20
4.943390
 30
0.0
 10
72.561959
 20
3.628755
 30
0.0
 10
73.197496
 20
3.591370
 30
0.0
 10
73.477385
 20
3.909584
 30
0.0
 10
73.535466
 20
4.449625
 30
0.0
 10
73.505571
 20
5.077640
 30
0.0
 10
73.505571
 20
6.030060
 30
0.0
 10
73.505571
 20
6.982507
 30
0.0
 10
73.505571
 20
7.934927
 30
0.0
 10
73.505571
 20
8.887348
 30
0.0
 10
73.269666
 20
8.887348
 30
0.0
 10
73.033764
 20
8.887348
 30
0.0
 10
72.797861
 20
8.887348
 30
0.0
  0
LWPOLYLINE
  5
133
100
AcDbEntity
  8
GMO_detective
 62
7
100
AcDbPolyline
 90
52
 70
1
 10
73.741730
 20
8.887348
 30
0.0
 10
73.741730
 20
7.572686
 30
0.0
 10
73.741730
 20
6.258052
 30
0.0
 10
73.741730
 20
4.943390
 30
0.0
 10
73.741730
 20
3.628755
 30
0.0
 10
74.377228
 20
3.591396
 30
0.0
 10
74.657127
 20
3.909611
 30
0.0
 10
74.715227
 20
4.449651
 30
0.0
 10
74.685343
 20
5.077640
 30
0.0
 10
74.685343
 20
5.905283
 30
0.0
 10
74.685343
 20
6.732899
 30
0.0
 10
74.685343
 20
7.560542
 30
0.0
 10
74.685343
 20
8.388158
 30
0.0
 10
75.220857
 20
7.276247
 30
0.0
 10
75.732701
 20
6.149176
 30
0.0
 10
76.267471
 20
5.036762
 30
0.0
 10
76.871771
 20
3.968798
 30
0.0
 10
77.543228
 20
3.649975
 30
0.0
 10
78.272039
 20
3.689107
 30
0.0
 10
78.894217
 20
4.054655
 30
0.0
 10
79.245779
 20
4.715002
 30
0.0
 10
79.756647
 20
5.758201
 30
0.0
 10
80.267846
 20
6.801215
 30
0.0
 10
80.779092
 20
7.844228
 30
0.0
 10
81.290105
 20
8.887348
 30
0.0
 10
80.277762
 20
8.887348
 30
0.0
 10
79.265422
 20
8.887348
 30
0.0
 10
78.253081
 20
8.887348
 30
0.0
 10
77.240741
 20
8.887348
 30
0.0
 10
77.230290
 20
8.353339
 30
0.0
 10
77.561132
 20
8.160617
 30
0.0
 10
78.073958
 20
8.149769
 30
0.0
 10
78.609470
 20
8.160617
 30
0.0
 10
79.186690
 20
8.173052
 30
0.0
 10
79.722040
 20
8.160617
 30
0.0
 10
79.964964
 20
7.968900
 30
0.0
 10
79.664720
 20
7.444575
 30
0.0
 10
79.261847
 20
6.673580
 30
0.0
 10
78.876611
 20
5.886947
 30
0.0
 10
78.475929
 20
5.113941
 30
0.0
 10
78.026730
 20
4.383850
 30
0.0
 10
77.547080
 20
4.497065
 30
0.0
 10
77.261090
 20
4.924076
 30
0.0
 10
77.053834
 20
5.470123
 30
0.0
 10
76.810383
 20
5.940446
 30
0.0
 10
76.456011
 20
6.677072
 30
0.0
 10
76.101562
 20
7.413672
 30
0.0
 10
75.747121
 20
8.150272
 30
0.0
 10
75.392783
 20
8.886924
 30
0.0
 10
74.980017
 20
8.886924
 30
0.0
 10
74.567251
 20
8.886924
 30
0.0
 10
74.154485
 20
8.887136
 30
0.0
  0
LWPOLYLINE
  5
134
100
AcDbEntity
  8
GMO_detective
 62
7
100
AcDbPolyline
 90
24
 70
1
 10
75.628955
 20
8.887348
 30
0.0
 10
76.161252
 20
7.797291
 30
0.0
 10
76.681277
 20
6.696413
 30
0.0
 10
77.211925
 20
5.604901
 30
0.0
 10
77.776109
 20
4.542891
 30
0.0
 10
78.113953
 20
4.876398
 30
0.0
 10
78.354012
 20
5.348229
 30
0.0
 10
78.564400
 20
5.861283
 30
0.0
 10
78.813254
 20
6.318509
 30
0.0
 10
79.061404
 20
6.852650
 30
0.0
 10
79.412604
 20
7.450899
 30
0.0
 10
79.520586
 20
7.898415
 30
0.0
 10
79.039081
 20
7.980436
 30
0.0
 10
78.517326
 20
7.954507
 30
0.0
 10
77.905813
 20
8.018218
 30
0.0
 10
77.411347
 20
7.964878
 30
0.0
 10
77.240741
 20
7.587741
 30
0.0
 10
76.987349
 20
8.116193
 30
0.0
 10
76.709336
 20
8.604323
 30
0.0
 10
76.319433
 20
8.909070
 30
0.0
 10
75.730378
 20
8.887374
 30
0.0
 10
75.705031
 20
8.887374
 30
0.0
 10
75.679684
 20
8.887374
 30
0.0
 10
75.654337
 20
8.887374
 30
0.0
  0
LWPOLYLINE
  5
135
100
AcDbEntity
  8
GMO_detective
 62
7
100
AcDbPolyline
 90
36
 70
1
 10
83.884778
 20
8.887348
 30
0.0
 10
83.124580
 20
8.814825
 30
0.0
 10
82.431073
 20
8.521852
 30
0.0
 10
81.933704
 20
8.003640
 30
0.0
 10
81.761910
 20
7.255398
 30
0.0
 10
81.760058
 20
6.293215
 30
0.0
 10
81.765376
 20
5.278697
 30
0.0
 10
82.023546
 20
4.391575
 30
0.0
 10
82.780199
 20
3.811556
 30
0.0
 10
83.747023
 20
3.649155
 30
0.0
 10
84.733720
 20
3.616849
 30
0.0
 10
85.727400
 20
3.636164
 30
0.0
 10
86.715171
 20
3.628755
 30
0.0
 10
86.724590
 20
4.164060
 30
0.0
 10
86.390538
 20
4.355910
 30
0.0
 10
85.874159
 20
4.365435
 30
0.0
 10
85.336610
 20
4.353264
 30
0.0
 10
84.604389
 20
4.357497
 30
0.0
 10
83.806165
 20
4.348237
 30
0.0
 10
83.121471
 20
4.535085
 30
0.0
 10
82.729835
 20
5.127170
 30
0.0
 10
82.719120
 20
5.819346
 30
0.0
 10
82.679316
 20
6.532715
 30
0.0
 10
82.718321
 20
7.227273
 30
0.0
 10
82.944026
 20
7.862934
 30
0.0
 10
83.720364
 20
8.139503
 30
0.0
 10
84.563993
 20
8.185567
 30
0.0
 10
85.430672
 20
8.144874
 30
0.0
 10
86.276169
 20
8.161278
 30
0.0
 10
86.702770
 20
8.292961
 30
0.0
 10
86.709384
 20
8.657848
 30
0.0
 10
86.398727
 20
8.955822
 30
0.0
 10
85.873502
 20
8.886819
 30
0.0
 10
85.376340
 20
8.886819
 30
0.0
 10
84.879177
 20
8.886819
 30
0.0
 10
84.382017
 20
8.886819
 30
0.0
  0
LWPOLYLINE
  5
136
100
AcDbEntity
  8
GMO_detective
 62
7
100
AcDbPolyline
 90
20
 70
1
 10
33.963291
 20
8.161808
 30
0.0
 10
34.647252
 20
8.176624
 30
0.0
 10
35.362243
 20
8.094841
 30
0.0
 10
35.908602
 20
7.786364
 30
0.0
 10
36.086675
 20
7.121122
 30
0.0
 10
36.069583
 20
6.443604
 30
0.0
 10
36.114916
 20
5.726160
 30
0.0
 10
36.041894
 20
5.057029
 30
0.0
 10
35.669731
 20
4.524343
 30
0.0
 10
35.035261
 20
4.374669
 30
0.0
 10
34.367751
 20
4.328578
 30
0.0
 10
33.703579
 20
4.394433
 30
0.0
 10
33.079109
 20
4.580594
 30
0.0
 10
32.807253
 20
5.222579
 30
0.0
 10
32.756225
 20
5.935604
 30
0.0
 10
32.799021
 20
6.672812
 30
0.0
 10
32.808626
 20
7.387293
 30
0.0
 10
32.924638
 20
7.758847
 30
0.0
 10
33.206673
 20
7.998004
 30
0.0
 10
33.578396
 20
8.121829
 30
0.0
  0
LWPOLYLINE
  5
137
100
AcDbEntity
  8
GMO_detective
 62
7
100
AcDbPolyline
 90
42
 70
1
 10
21.933539
 20
7.980436
 30
0.0
 10
21.392002
 20
7.894658
 30
0.0
 10
21.081600
 20
7.534745
 30
0.0
 10
20.961265
 20
7.024655
 30
0.0
 10
20.989927
 20
6.488292
 30
0.0
 10
20.978545
 20
5.890493
 30
0.0
 10
21.001876
 20
5.252371
 30
0.0
 10
21.218621
 20
4.747943
 30
0.0
 10
21.787472
 20
4.551251
 30
0.0
 10
22.254475
 20
4.548606
 30
0.0
 10
22.769499
 20
4.515242
 30
0.0
 10
23.242791
 20
4.528735
 30
0.0
 10
23.584599
 20
4.668488
 30
0.0
 10
23.569653
 20
5.150162
 30
0.0
 10
23.616658
 20
5.693775
 30
0.0
 10
23.525582
 20
6.099302
 30
0.0
 10
23.096394
 20
6.166717
 30
0.0
 10
22.570901
 20
6.240245
 30
0.0
 10
22.210834
 20
5.986351
 30
0.0
 10
22.150239
 20
5.641282
 30
0.0
 10
22.523165
 20
5.441177
 30
0.0
 10
22.475443
 20
5.248058
 30
0.0
 10
22.142286
 20
5.328359
 30
0.0
 10
21.852166
 20
5.634111
 30
0.0
 10
21.933537
 20
6.117373
 30
0.0
 10
21.896951
 20
6.629870
 30
0.0
 10
21.989949
 20
7.058601
 30
0.0
 10
22.275783
 20
7.301012
 30
0.0
 10
22.817721
 20
7.254552
 30
0.0
 10
23.368362
 20
7.281142
 30
0.0
 10
24.008854
 20
7.217854
 30
0.0
 10
24.540310
 20
7.263653
 30
0.0
 10
24.763855
 20
7.617322
 30
0.0
 10
24.569921
 20
7.968477
 30
0.0
 10
24.072131
 20
8.015784
 30
0.0
 10
23.465680
 20
7.954427
 30
0.0
 10
22.945773
 20
7.979563
 30
0.0
 10
22.692714
 20
7.979563
 30
0.0
 10
22.439655
 20
7.979536
 30
0.0
 10
22.186596
 20
7.979536
 30
0.0
 10
21.933537
 20
7.979510
 30
0.0
 10
21.933538
 20
7.979510
 30
0.0
  0
LWPOLYLINE
  5
138
100
AcDbEntity
  8
GMO_detective
 62
7
100
AcDbPolyline
 90
40
 70
1
 10
26.415435
 20
7.980436
 30
0.0
 10
26.415435
 20
6.892522
 30
0.0
 10
26.415435
 20
5.804609
 30
0.0
 10
26.415435
 20
4.716669
 30
0.0
 10
26.415435
 20
3.628755
 30
0.0
 10
27.001746
 20
3.582877
 30
0.0
 10
27.299590
 20
3.825473
 30
0.0
 10
27.391133
 20
4.274365
 30
0.0
 10
27.358528
 20
4.847399
 30
0.0
 10
27.418332
 20
5.121719
 30
0.0
 10
27.657348
 20
4.781756
 30
0.0
 10
27.950491
 20
4.213167
 30
0.0
 10
28.200821
 20
3.804068
 30
0.0
 10
28.470008
 20
3.896937
 30
0.0
 10
28.765447
 20
4.405228
 30
0.0
 10
29.038203
 20
4.941935
 30
0.0
 10
29.245753
 20
5.126482
 30
0.0
 10
29.312327
 20
4.685818
 30
0.0
 10
29.213109
 20
4.109080
 30
0.0
 10
29.298598
 20
3.702177
 30
0.0
 10
29.717558
 20
3.628755
 30
0.0
 10
30.154924
 20
3.782637
 30
0.0
 10
30.228741
 20
4.300030
 30
0.0
 10
30.164915
 20
4.955085
 30
0.0
 10
30.189363
 20
5.521875
 30
0.0
 10
30.189363
 20
6.136502
 30
0.0
 10
30.189363
 20
6.751155
 30
0.0
 10
30.189363
 20
7.365782
 30
0.0
 10
30.189363
 20
7.980436
 30
0.0
 10
29.760388
 20
7.679340
 30
0.0
 10
29.452953
 20
7.209493
 30
0.0
 10
29.186441
 20
6.683978
 30
0.0
 10
28.880239
 20
6.215903
 30
0.0
 10
28.490730
 20
5.650330
 30
0.0
 10
28.255566
 20
5.487691
 30
0.0
 10
27.943244
 20
5.772885
 30
0.0
 10
27.631261
 20
6.369891
 30
0.0
 10
27.350778
 20
6.795473
 30
0.0
 10
27.102787
 20
7.290270
 30
0.0
 10
26.815079
 20
7.727494
 30
0.0
  0
LWPOLYLINE
  5
139
100
AcDbEntity
  8
GMO_detective
 62
7
100
AcDbPolyline
 90
22
 70
1
 10
33.963291
 20
7.980436
 30
0.0
 10
33.421951
 20
7.894499
 30
0.0
 10
33.111754
 20
7.534534
 30
0.0
 10
32.991548
 20
7.024523
 30
0.0
 10
33.020197
 20
6.488292
 30
0.0
 10
33.025304
 20
5.892318
 30
0.0
 10
33.032156
 20
5.252371
 30
0.0
 10
33.248898
 20
4.747943
 30
0.0
 10
33.817746
 20
4.551225
 30
0.0
 10
34.447822
 20
4.528206
 30
0.0
 10
35.128566
 20
4.555802
 30
0.0
 10
35.662082
 20
4.796626
 30
0.0
 10
35.850524
 20
5.394955
 30
0.0
 10
35.846899
 20
6.008232
 30
0.0
 10
35.871717
 20
6.637490
 30
0.0
 10
35.837924
 20
7.247699
 30
0.0
 10
35.614880
 20
7.799593
 30
0.0
 10
35.223652
 20
7.944029
 30
0.0
 10
34.807386
 20
7.984484
 30
0.0
 10
34.381970
 20
7.977605
 30
0.0
 10
33.963301
 20
7.980515
 30
0.0
 10
33.963296
 20
7.980515
 30
0.0
  0
LWPOLYLINE
  5
13a
100
AcDbEntity
  8
GMO_detective
 62
7
100
AcDbPolyline
 90
40
 70
1
 10
39.066337
 20
7.980436
 30
0.0
 10
39.062025
 20
7.436902
 30
0.0
 10
39.412576
 20
7.248228
 30
0.0
 10
39.947966
 20
7.244524
 30
0.0
 10
40.498161
 20
7.255372
 30
0.0
 10
41.061083
 20
7.285031
 30
0.0
 10
41.585900
 20
7.232353
 30
0.0
 10
41.916590
 20
6.976713
 30
0.0
 10
41.897169
 20
6.397169
 30
0.0
 10
41.945554
 20
5.911712
 30
0.0
 10
41.835897
 20
5.456946
 30
0.0
 10
41.580016
 20
5.221705
 30
0.0
 10
41.189729
 20
5.394743
 30
0.0
 10
41.169938
 20
5.912691
 30
0.0
 10
41.225689
 20
6.506151
 30
0.0
 10
41.145504
 20
6.963695
 30
0.0
 10
40.717919
 20
7.073841
 30
0.0
 10
40.281417
 20
6.916308
 30
0.0
 10
40.207263
 20
6.396455
 30
0.0
 10
40.270485
 20
5.739204
 30
0.0
 10
40.246117
 20
5.169556
 30
0.0
 10
40.270961
 20
4.659096
 30
0.0
 10
40.661822
 20
4.514660
 30
0.0
 10
41.221482
 20
4.539001
 30
0.0
 10
41.752731
 20
4.535032
 30
0.0
 10
42.267813
 20
4.562046
 30
0.0
 10
42.651888
 20
4.821735
 30
0.0
 10
42.858398
 20
5.244116
 30
0.0
 10
42.840803
 20
5.759233
 30
0.0
 10
42.843978
 20
6.418680
 30
0.0
 10
42.847761
 20
7.136838
 30
0.0
 10
42.648670
 20
7.717493
 30
0.0
 10
42.043224
 20
7.964402
 30
0.0
 10
41.299838
 20
7.981071
 30
0.0
 10
40.555359
 20
7.981071
 30
0.0
 10
39.810597
 20
7.976837
 30
0.0
 10
39.066361
 20
7.979483
 30
0.0
 10
39.066361
 20
7.979483
 30
0.0
 10
39.066361
 20
7.979510
 30
0.0
 10
39.066358
 20
7.979510
 30
0.0
  0
LWPOLYLINE
  5
13b
100
AcDbEntity
  8
GMO_detective
 62
7
100
AcDbPolyline
 90
30
 70
1
 10
46.614713
 20
7.980436
 30
0.0
 10
46.061773
 20
7.888943
 30
0.0
 10
45.756074
 20
7.514240
 30
0.0
 10
45.643790
 20
6.987799
 30
0.0
 10
45.671100
 20
6.441117
 30
0.0
 10
46.172800
 20
6.344650
 30
0.0
 10
46.763517
 20
6.337241
 30
0.0
 10
47.383054
 20
6.358673
 30
0.0
 10
47.971218
 20
6.348618
 30
0.0
 10
48.530033
 20
6.321896
 30
0.0
 10
48.755371
 20
6.680485
 30
0.0
 10
48.613986
 20
7.054527
 30
0.0
 10
48.072643
 20
7.074106
 30
0.0
 10
47.461498
 20
7.049499
 30
0.0
 10
46.904188
 20
7.109719
 30
0.0
 10
46.759876
 20
7.197428
 30
0.0
 10
47.387751
 20
7.255372
 30
0.0
 10
47.954435
 20
7.282042
 30
0.0
 10
48.608784
 20
7.221055
 30
0.0
 10
49.167063
 20
7.256086
 30
0.0
 10
49.445536
 20
7.570993
 30
0.0
 10
49.305995
 20
7.954771
 30
0.0
 10
48.844303
 20
8.016393
 30
0.0
 10
48.262262
 20
7.957682
 30
0.0
 10
47.761676
 20
7.980436
 30
0.0
 10
47.474934
 20
7.980436
 30
0.0
 10
47.188194
 20
7.980436
 30
0.0
 10
46.901452
 20
7.980409
 30
0.0
 10
46.614713
 20
7.980409
 30
0.0
 10
46.614713
 20
7.980383
 30
0.0
  0
LWPOLYLINE
  5
13c
100
AcDbEntity
  8
GMO_detective
 62
7
100
AcDbPolyline
 90
24
 70
1
 10
49.917352
 20
7.980436
 30
0.0
 10
49.895947
 20
7.470795
 30
0.0
 10
50.179967
 20
7.266564
 30
0.0
 10
50.639654
 20
7.238015
 30
0.0
 10
51.145293
 20
7.255478
 30
0.0
 10
51.553072
 20
7.077625
 30
0.0
 10
51.608904
 20
6.600872
 30
0.0
 10
51.540438
 20
5.973281
 30
0.0
 10
51.568420
 20
5.442156
 30
0.0
 10
51.584375
 20
4.853300
 30
0.0
 10
51.532638
 20
4.196710
 30
0.0
 10
51.650295
 20
3.709533
 30
0.0
 10
52.174435
 20
3.628835
 30
0.0
 10
52.507405
 20
3.887095
 30
0.0
 10
52.546608
 20
4.439121
 30
0.0
 10
52.484116
 20
5.092853
 30
0.0
 10
52.512019
 20
5.656178
 30
0.0
 10
52.512019
 20
6.237255
 30
0.0
 10
52.512019
 20
6.818360
 30
0.0
 10
52.512019
 20
7.399437
 30
0.0
 10
52.512019
 20
7.980515
 30
0.0
 10
51.863351
 20
7.980515
 30
0.0
 10
51.214683
 20
7.980515
 30
0.0
 10
50.566015
 20
7.980489
 30
0.0
  0
LWPOLYLINE
  5
13d
100
AcDbEntity
  8
GMO_detective
 62
7
100
AcDbPolyline
 90
24
 70
1
 10
52.747670
 20
7.980436
 30
0.0
 10
52.747670
 20
6.892522
 30
0.0
 10
52.747670
 20
5.804609
 30
0.0
 10
52.747670
 20
4.716669
 30
0.0
 10
52.747670
 20
3.628755
 30
0.0
 10
53.382289
 20
3.590841
 30
0.0
 10
53.661991
 20
3.907891
 30
0.0
 10
53.720432
 20
4.446185
 30
0.0
 10
53.691280
 20
5.072057
 30
0.0
 10
53.680459
 20
5.663718
 30
0.0
 10
53.660509
 20
6.328722
 30
0.0
 10
53.687571
 20
6.914588
 30
0.0
 10
53.959732
 20
7.255398
 30
0.0
 10
54.419088
 20
7.265982
 30
0.0
 10
54.926905
 20
7.228067
 30
0.0
 10
55.296790
 20
7.328106
 30
0.0
 10
55.342351
 20
7.752444
 30
0.0
 10
55.001703
 20
7.988744
 30
0.0
 10
54.444250
 20
8.008323
 30
0.0
 10
53.815891
 20
7.956941
 30
0.0
 10
53.262512
 20
7.980489
 30
0.0
 10
53.133803
 20
7.980489
 30
0.0
 10
53.005094
 20
7.980489
 30
0.0
 10
52.876385
 20
7.980489
 30
0.0
  0
LWPOLYLINE
  5
13e
100
AcDbEntity
  8
GMO_detective
 62
7
100
AcDbPolyline
 90
30
 70
1
 10
57.937532
 20
7.980436
 30
0.0
 10
57.384516
 20
7.889049
 30
0.0
 10
57.078845
 20
7.514346
 30
0.0
 10
56.966615
 20
6.987878
 30
0.0
 10
56.993922
 20
6.441117
 30
0.0
 10
57.403989
 20
6.269826
 30
0.0
 10
58.086085
 20
6.337162
 30
0.0
 10
58.705487
 20
6.358593
 30
0.0
 10
59.293521
 20
6.348539
 30
0.0
 10
59.871318
 20
6.391110
 30
0.0
 10
60.078124
 20
6.680274
 30
0.0
 10
59.936921
 20
7.054315
 30
0.0
 10
59.395462
 20
7.074159
 30
0.0
 10
58.790958
 20
7.025343
 30
0.0
 10
58.226983
 20
7.109904
 30
0.0
 10
58.082394
 20
7.197640
 30
0.0
 10
58.710067
 20
7.255557
 30
0.0
 10
59.281319
 20
7.251853
 30
0.0
 10
59.931079
 20
7.221293
 30
0.0
 10
60.489361
 20
7.256324
 30
0.0
 10
60.767853
 20
7.571231
 30
0.0
 10
60.629024
 20
7.954903
 30
0.0
 10
60.166598
 20
8.016604
 30
0.0
 10
59.584549
 20
7.957867
 30
0.0
 10
59.083990
 20
7.980621
 30
0.0
 10
58.797375
 20
7.980621
 30
0.0
 10
58.510759
 20
7.980621
 30
0.0
 10
58.224147
 20
7.980594
 30
0.0
 10
57.937532
 20
7.980594
 30
0.0
 10
57.937532
 20
7.980568
 30
0.0
  0
LWPOLYLINE
  5
13f
100
AcDbEntity
  8
GMO_detective
 62
7
100
AcDbPolyline
 90
40
 70
1
 10
63.362523
 20
7.980436
 30
0.0
 10
62.988797
 20
7.894552
 30
0.0
 10
62.510766
 20
7.534586
 30
0.0
 10
62.390328
 20
7.024523
 30
0.0
 10
62.418911
 20
6.488292
 30
0.0
 10
62.407507
 20
5.890598
 30
0.0
 10
62.431002
 20
5.252556
 30
0.0
 10
62.647839
 20
4.748128
 30
0.0
 10
63.216463
 20
4.551251
 30
0.0
 10
63.959979
 20
4.534318
 30
0.0
 10
64.704360
 20
4.534318
 30
0.0
 10
65.449016
 20
4.538287
 30
0.0
 10
66.193363
 20
4.538287
 30
0.0
 10
66.197729
 20
5.081979
 30
0.0
 10
65.847272
 20
5.270865
 30
0.0
 10
65.311909
 20
5.274834
 30
0.0
 10
64.761550
 20
5.263721
 30
0.0
 10
64.198765
 20
5.234167
 30
0.0
 10
63.673956
 20
5.286475
 30
0.0
 10
63.343185
 20
5.541798
 30
0.0
 10
63.362552
 20
6.121209
 30
0.0
 10
63.325934
 20
6.633786
 30
0.0
 10
63.419165
 20
7.062491
 30
0.0
 10
63.705256
 20
7.304849
 30
0.0
 10
64.247242
 20
7.258388
 30
0.0
 10
64.797522
 20
7.214864
 30
0.0
 10
65.438401
 20
7.221743
 30
0.0
 10
65.969846
 20
7.267543
 30
0.0
 10
66.193376
 20
7.621211
 30
0.0
 10
65.994500
 20
7.972498
 30
0.0
 10
65.501676
 20
8.019673
 30
0.0
 10
64.895230
 20
7.958290
 30
0.0
 10
64.375295
 20
7.983425
 30
0.0
 10
64.125192
 20
8.003005
 30
0.0
 10
63.868917
 20
7.983425
 30
0.0
 10
63.552433
 20
7.983425
 30
0.0
 10
63.362542
 20
7.983399
 30
0.0
 10
63.362542
 20
7.983425
 30
0.0
 10
63.362542
 20
7.983425
 30
0.0
 10
63.362539
 20
7.983425
 30
0.0
  0
LWPOLYLINE
  5
140
100
AcDbEntity
  8
GMO_detective
 62
7
100
AcDbPolyline
 90
24
 70
1
 10
66.665163
 20
7.980436
 30
0.0
 10
66.643758
 20
7.470795
 30
0.0
 10
66.927777
 20
7.266564
 30
0.0
 10
67.387464
 20
7.238015
 30
0.0
 10
67.893104
 20
7.255478
 30
0.0
 10
68.299155
 20
7.102416
 30
0.0
 10
68.356712
 20
6.600872
 30
0.0
 10
68.288246
 20
5.973281
 30
0.0
 10
68.316228
 20
5.442156
 30
0.0
 10
68.332183
 20
4.853273
 30
0.0
 10
68.280459
 20
4.196710
 30
0.0
 10
68.398122
 20
3.709533
 30
0.0
 10
68.922254
 20
3.628835
 30
0.0
 10
69.255224
 20
3.887095
 30
0.0
 10
69.294427
 20
4.439121
 30
0.0
 10
69.231935
 20
5.092853
 30
0.0
 10
69.259838
 20
5.656178
 30
0.0
 10
69.259838
 20
6.237255
 30
0.0
 10
69.259838
 20
6.818360
 30
0.0
 10
69.259838
 20
7.399437
 30
0.0
 10
69.259838
 20
7.980515
 30
0.0
 10
68.611170
 20
7.980515
 30
0.0
 10
67.962502
 20
7.980515
 30
0.0
 10
67.313833
 20
7.980489
 30
0.0
  0
LWPOLYLINE
  5
141
100
AcDbEntity
  8
GMO_detective
 62
7
100
AcDbPolyline
 90
24
 70
1
 10
69.495481
 20
7.980436
 30
0.0
 10
69.495481
 20
6.892522
 30
0.0
 10
69.495481
 20
5.804609
 30
0.0
 10
69.495481
 20
4.716669
 30
0.0
 10
69.495481
 20
3.628755
 30
0.0
 10
70.130100
 20
3.590841
 30
0.0
 10
70.409802
 20
3.907891
 30
0.0
 10
70.468235
 20
4.446185
 30
0.0
 10
70.439091
 20
5.072057
 30
0.0
 10
70.463750
 20
5.660332
 30
0.0
 10
70.408312
 20
6.328722
 30
0.0
 10
70.435374
 20
6.914588
 30
0.0
 10
70.707534
 20
7.255398
 30
0.0
 10
71.167018
 20
7.265982
 30
0.0
 10
71.674965
 20
7.228067
 30
0.0
 10
72.044979
 20
7.328079
 30
0.0
 10
72.090670
 20
7.752418
 30
0.0
 10
71.767026
 20
7.995067
 30
0.0
 10
71.192325
 20
8.008296
 30
0.0
 10
70.563821
 20
7.956888
 30
0.0
 10
70.010315
 20
7.980436
 30
0.0
 10
69.881606
 20
7.980436
 30
0.0
 10
69.752897
 20
7.980436
 30
0.0
 10
69.624188
 20
7.980436
 30
0.0
  0
LWPOLYLINE
  5
142
100
AcDbEntity
  8
GMO_detective
 62
7
100
AcDbPolyline
 90
30
 70
1
 10
83.884778
 20
7.980436
 30
0.0
 10
83.331762
 20
7.889049
 30
0.0
 10
83.026092
 20
7.514346
 30
0.0
 10
82.913861
 20
6.987878
 30
0.0
 10
82.941168
 20
6.441117
 30
0.0
 10
83.442874
 20
6.344650
 30
0.0
 10
84.033590
 20
6.337241
 30
0.0
 10
84.653125
 20
6.358673
 30
0.0
 10
85.241286
 20
6.348618
 30
0.0
 10
85.800102
 20
6.321896
 30
0.0
 10
86.025437
 20
6.680485
 30
0.0
 10
85.884051
 20
7.054527
 30
0.0
 10
85.342709
 20
7.074106
 30
0.0
 10
84.731712
 20
7.049499
 30
0.0
 10
84.174272
 20
7.109719
 30
0.0
 10
84.029690
 20
7.197402
 30
0.0
 10
84.657314
 20
7.255398
 30
0.0
 10
85.223990
 20
7.282068
 30
0.0
 10
85.878328
 20
7.221082
 30
0.0
 10
86.436604
 20
7.256113
 30
0.0
 10
86.715099
 20
7.571020
 30
0.0
 10
86.576357
 20
7.954665
 30
0.0
 10
86.114104
 20
8.016393
 30
0.0
 10
85.532211
 20
7.957708
 30
0.0
 10
85.031755
 20
7.980462
 30
0.0
 10
84.745010
 20
7.980462
 30
0.0
 10
84.458265
 20
7.980462
 30
0.0
 10
84.171520
 20
7.980436
 30
0.0
 10
83.884778
 20
7.980436
 30
0.0
 10
83.884778
 20
7.980409
 30
0.0
  0
LWPOLYLINE
  5
143
100
AcDbEntity
  8
GMO_detective
 62
7
100
AcDbPolyline
 90
14
 70
1
 10
34.199453
 20
7.255398
 30
0.0
 10
34.722343
 20
7.243227
 30
0.0
 10
34.908001
 20
6.885167
 30
0.0
 10
34.916256
 20
6.362165
 30
0.0
 10
34.906943
 20
5.855250
 30
0.0
 10
34.892708
 20
5.410724
 30
0.0
 10
34.499149
 20
5.224325
 30
0.0
 10
34.073580
 20
5.317167
 30
0.0
 10
33.963336
 20
5.710391
 30
0.0
 10
33.983550
 20
6.112769
 30
0.0
 10
33.937087
 20
6.588066
 30
0.0
 10
33.962778
 20
7.010764
 30
0.0
 10
34.199455
 20
7.255292
 30
0.0
 10
34.199442
 20
7.255292
 30
0.0
  0
LWPOLYLINE
  5
144
100
AcDbEntity
  8
GMO_detective
 62
7
100
AcDbPolyline
 90
8
 70
1
 10
77.397837
 20
7.255398
 30
0.0
 10
77.995618
 20
7.325777
 30
0.0
 10
78.120337
 20
6.965097
 30
0.0
 10
77.949612
 20
6.620822
 30
0.0
 10
77.661058
 20
6.740228
 30
0.0
 10
77.593541
 20
6.868101
 30
0.0
 10
77.529245
 20
6.997694
 30
0.0
 10
77.414596
 20
7.142924
 30
0.0
  0
LWPOLYLINE
  5
145
100
AcDbEntity
  8
GMO_detective
 62
7
100
AcDbPolyline
 90
26
 70
1
 10
45.671100
 20
6.167114
 30
0.0
 10
45.645674
 20
5.599292
 30
0.0
 10
45.742842
 20
5.041154
 30
0.0
 10
46.040038
 20
4.638008
 30
0.0
 10
46.614707
 20
4.535165
 30
0.0
 10
47.322415
 20
4.535165
 30
0.0
 10
48.030124
 20
4.535165
 30
0.0
 10
48.737832
 20
4.535165
 30
0.0
 10
49.445542
 20
4.535165
 30
0.0
 10
49.449907
 20
5.078857
 30
0.0
 10
49.099451
 20
5.267743
 30
0.0
 10
48.564088
 20
5.271712
 30
0.0
 10
48.013728
 20
5.260599
 30
0.0
 10
47.395688
 20
5.272241
 30
0.0
 10
46.875459
 20
5.312484
 30
0.0
 10
46.772468
 20
5.408342
 30
0.0
 10
47.413881
 20
5.441971
 30
0.0
 10
47.972895
 20
5.395140
 30
0.0
 10
48.494444
 20
5.487241
 30
0.0
 10
48.773085
 20
5.737987
 30
0.0
 10
48.603368
 20
6.167008
 30
0.0
 10
47.870300
 20
6.167008
 30
0.0
 10
47.137233
 20
6.167008
 30
0.0
 10
46.404165
 20
6.167008
 30
0.0
 10
45.671097
 20
6.166982
 30
0.0
 10
45.671097
 20
6.167035
 30
0.0
  0
LWPOLYLINE
  5
146
100
AcDbEntity
  8
GMO_detective
 62
7
100
AcDbPolyline
 90
26
 70
1
 10
56.993922
 20
6.167114
 30
0.0
 10
56.968522
 20
5.599266
 30
0.0
 10
57.065611
 20
5.041048
 30
0.0
 10
57.362757
 20
4.637876
 30
0.0
 10
57.937532
 20
4.535165
 30
0.0
 10
58.645110
 20
4.535165
 30
0.0
 10
59.352690
 20
4.535165
 30
0.0
 10
60.060270
 20
4.535165
 30
0.0
 10
60.767850
 20
4.535165
 30
0.0
 10
60.772269
 20
5.078804
 30
0.0
 10
60.421987
 20
5.267716
 30
0.0
 10
59.886815
 20
5.271685
 30
0.0
 10
59.336558
 20
5.260837
 30
0.0
 10
58.720346
 20
5.236231
 30
0.0
 10
58.198131
 20
5.312643
 30
0.0
 10
58.095160
 20
5.408528
 30
0.0
 10
58.736698
 20
5.442183
 30
0.0
 10
59.295712
 20
5.395351
 30
0.0
 10
59.817261
 20
5.487453
 30
0.0
 10
60.095902
 20
5.738198
 30
0.0
 10
59.926187
 20
6.167220
 30
0.0
 10
59.193122
 20
6.167220
 30
0.0
 10
58.460057
 20
6.167220
 30
0.0
 10
57.726992
 20
6.167220
 30
0.0
 10
56.993930
 20
6.167194
 30
0.0
 10
56.993930
 20
6.167114
 30
0.0
  0
LWPOLYLINE
  5
147
100
AcDbEntity
  8
GMO_detective
 62
7
100
AcDbPolyline
 90
26
 70
1
 10
82.941168
 20
6.167114
 30
0.0
 10
82.915768
 20
5.599266
 30
0.0
 10
83.012857
 20
5.041048
 30
0.0
 10
83.310008
 20
4.637876
 30
0.0
 10
83.884778
 20
4.535165
 30
0.0
 10
84.592359
 20
4.535165
 30
0.0
 10
85.299936
 20
4.535165
 30
0.0
 10
86.007516
 20
4.535165
 30
0.0
 10
86.715097
 20
4.535165
 30
0.0
 10
86.719515
 20
5.078804
 30
0.0
 10
86.369231
 20
5.267716
 30
0.0
 10
85.834058
 20
5.271685
 30
0.0
 10
85.283802
 20
5.260837
 30
0.0
 10
84.667625
 20
5.236231
 30
0.0
 10
84.145414
 20
5.312669
 30
0.0
 10
84.042433
 20
5.408528
 30
0.0
 10
84.683941
 20
5.442183
 30
0.0
 10
85.242956
 20
5.395351
 30
0.0
 10
85.764505
 20
5.487453
 30
0.0
 10
86.043145
 20
5.738198
 30
0.0
 10
85.873428
 20
6.167220
 30
0.0
 10
85.140363
 20
6.167220
 30
0.0
 10
84.407301
 20
6.167220
 30
0.0
 10
83.674236
 20
6.167220
 30
0.0
 10
82.941174
 20
6.167194
 30
0.0
 10
82.941174
 20
6.167114
 30
0.0
  0
LWPOLYLINE
  5
148
100
AcDbEntity
  8
grapes
 62
1
100
AcDbPolyline
 90
52
 70
1
 10
30.668790
 20
28.645843
 30
0.0
 10
30.966502
 20
28.763318
 30
0.0
 10
31.232940
 20
28.912543
 30
0.0
 10
31.478433
 20
29.100265
 30
0.0
 10
31.713299
 20
29.333257
 30
0.0
 10
31.943124
 20
29.617552
 30
0.0
 10
32.110073
 20
29.900312
 30
0.0
 10
32.226836
 20
30.207890
 30
0.0
 10
32.306103
 20
30.566718
 30
0.0
 10
32.341583
 20
30.905808
 30
0.0
 10
32.291365
 20
31.106679
 30
0.0
 10
32.128390
 20
31.207671
 30
0.0
 10
31.825596
 20
31.247094
 30
0.0
 10
31.444985
 20
31.309879
 30
0.0
 10
31.022670
 20
31.445531
 30
0.0
 10
30.614537
 20
31.632327
 30
0.0
 10
30.276469
 20
31.848571
 30
0.0
 10
30.222801
 20
31.890772
 30
0.0
 10
30.169130
 20
31.932999
 30
0.0
 10
30.115462
 20
31.975200
 30
0.0
 10
30.061791
 20
32.017428
 30
0.0
 10
29.969102
 20
31.953637
 30
0.0
 10
29.876414
 20
31.889899
 30
0.0
 10
29.783722
 20
31.826108
 30
0.0
 10
29.691033
 20
31.762343
 30
0.0
 10
29.382579
 20
31.569885
 30
0.0
 10
29.076303
 20
31.428810
 30
0.0
 10
28.722386
 20
31.320225
 30
0.0
 10
28.270994
 20
31.225292
 30
0.0
 10
28.144724
 20
31.202273
 30
0.0
 10
28.018454
 20
31.179255
 30
0.0
 10
27.892185
 20
31.156236
 30
0.0
 10
27.765915
 20
31.133217
 30
0.0
 10
27.772080
 20
31.020610
 30
0.0
 10
27.778244
 20
30.907977
 30
0.0
 10
27.784409
 20
30.795344
 30
0.0
 10
27.790574
 20
30.682711
 30
0.0
 10
27.809016
 20
30.486179
 30
0.0
 10
27.841451
 20
30.284143
 30
0.0
 10
27.883213
 20
30.100284
 30
0.0
 10
27.929644
 20
29.958441
 30
0.0
 10
28.112707
 20
29.642714
 30
0.0
 10
28.386712
 20
29.312805
 30
0.0
 10
28.705297
 20
29.017662
 30
0.0
 10
29.022098
 20
28.806128
 30
0.0
 10
29.385294
 20
28.684446
 30
0.0
 10
29.849365
 20
28.610548
 30
0.0
 10
30.311481
 20
28.594408
 30
0.0
 10
30.668825
 20
28.646029
 30
0.0
 10
30.668806
 20
28.646002
 30
0.0
 10
30.668790
 20
28.645976
 30
0.0
 10
30.668772
 20
28.645923
 30
0.0
  0
LWPOLYLINE
  5
149
100
AcDbEntity
  8
grapes
 62
1
100
AcDbPolyline
 90
56
 70
1
 10
32.519021
 20
31.934534
 30
0.0
 10
33.021811
 20
32.102650
 30
0.0
 10
33.471904
 20
32.370647
 30
0.0
 10
33.849009
 20
32.723257
 30
0.0
 10
34.132831
 20
33.145320
 30
0.0
 10
34.264757
 20
33.508196
 30
0.0
 10
34.339904
 20
33.937138
 30
0.0
 10
34.352366
 20
34.373833
 30
0.0
 10
34.296242
 20
34.759966
 30
0.0
 10
34.273197
 20
34.845188
 30
0.0
 10
34.250152
 20
34.930437
 30
0.0
 10
34.227107
 20
35.015659
 30
0.0
 10
34.204062
 20
35.100884
 30
0.0
 10
34.048442
 20
35.127025
 30
0.0
 10
33.892819
 20
35.153165
 30
0.0
 10
33.737197
 20
35.179280
 30
0.0
 10
33.581577
 20
35.205421
 30
0.0
 10
33.276801
 20
35.269056
 30
0.0
 10
32.995760
 20
35.354019
 30
0.0
 10
32.733905
 20
35.461926
 30
0.0
 10
32.486699
 20
35.594443
 30
0.0
 10
32.368605
 20
35.665560
 30
0.0
 10
32.250511
 20
35.736675
 30
0.0
 10
32.132420
 20
35.807792
 30
0.0
 10
32.014326
 20
35.878907
 30
0.0
 10
31.894628
 20
35.806816
 30
0.0
 10
31.774933
 20
35.734751
 30
0.0
 10
31.655236
 20
35.662660
 30
0.0
 10
31.535541
 20
35.590596
 30
0.0
 10
31.336918
 20
35.478648
 30
0.0
 10
31.150030
 20
35.386986
 30
0.0
 10
30.995884
 20
35.325063
 30
0.0
 10
30.895488
 20
35.302256
 30
0.0
 10
30.814986
 20
35.293948
 30
0.0
 10
30.776391
 20
35.260600
 30
0.0
 10
30.775068
 20
35.190289
 30
0.0
 10
30.806421
 20
35.071004
 30
0.0
 10
30.834197
 20
34.924748
 30
0.0
 10
30.856581
 20
34.697550
 30
0.0
 10
30.871265
 20
34.420479
 30
0.0
 10
30.875922
 20
34.124595
 30
0.0
 10
30.865921
 20
33.758836
 30
0.0
 10
30.834835
 20
33.472477
 30
0.0
 10
30.776690
 20
33.230225
 30
0.0
 10
30.685525
 20
32.996756
 30
0.0
 10
30.585909
 20
32.766172
 30
0.0
 10
30.546939
 20
32.623112
 30
0.0
 10
30.564931
 20
32.525454
 30
0.0
 10
30.636228
 20
32.431024
 30
0.0
 10
30.990693
 20
32.175067
 30
0.0
 10
31.480857
 20
31.991657
 30
0.0
 10
32.019414
 20
31.903816
 30
0.0
 10
32.519066
 20
31.934534
 30
0.0
 10
32.519037
 20
31.934534
 30
0.0
 10
32.519010
 20
31.934534
 30
0.0
 10
32.518984
 20
31.934534
 30
0.0
  0
LWPOLYLINE
  5
14a
100
AcDbEntity
  8
grapes
 62
1
100
AcDbPolyline
 90
52
 70
1
 10
28.580212
 20
31.968083
 30
0.0
 10
28.871008
 20
32.102703
 30
0.0
 10
29.202888
 20
32.261559
 30
0.0
 10
29.498218
 20
32.472670
 30
0.0
 10
29.726432
 20
32.691083
 30
0.0
 10
29.785201
 20
32.774665
 30
0.0
 10
29.864126
 20
32.906216
 30
0.0
 10
29.952868
 20
33.067797
 30
0.0
 10
30.041098
 20
33.241337
 30
0.0
 10
30.176340
 20
33.624851
 30
0.0
 10
30.243174
 20
34.053528
 30
0.0
 10
30.238226
 20
34.480936
 30
0.0
 10
30.158160
 20
34.860693
 30
0.0
 10
30.094388
 20
35.001636
 30
0.0
 10
29.996272
 20
35.092335
 30
0.0
 10
29.821465
 20
35.156822
 30
0.0
 10
29.527605
 20
35.219198
 30
0.0
 10
29.273703
 20
35.281406
 30
0.0
 10
29.005673
 20
35.372071
 30
0.0
 10
28.745283
 20
35.482900
 30
0.0
 10
28.514315
 20
35.605584
 30
0.0
 10
28.396295
 20
35.676651
 30
0.0
 10
28.278272
 20
35.747745
 30
0.0
 10
28.160252
 20
35.818812
 30
0.0
 10
28.042227
 20
35.889882
 30
0.0
 10
27.982310
 20
35.847220
 30
0.0
 10
27.922392
 20
35.804562
 30
0.0
 10
27.862475
 20
35.761900
 30
0.0
 10
27.802557
 20
35.719241
 30
0.0
 10
27.483393
 20
35.524894
 30
0.0
 10
27.125425
 20
35.365158
 30
0.0
 10
26.744724
 20
35.246084
 30
0.0
 10
26.357373
 20
35.173758
 30
0.0
 10
26.077814
 20
35.134163
 30
0.0
 10
25.923832
 20
35.078106
 30
0.0
 10
25.842324
 20
34.968166
 30
0.0
 10
25.780187
 20
34.767004
 30
0.0
 10
25.722897
 20
34.377431
 30
0.0
 10
25.734539
 20
33.939149
 30
0.0
 10
25.809376
 20
33.509413
 30
0.0
 10
25.941707
 20
33.145373
 30
0.0
 10
26.149522
 20
32.833006
 30
0.0
 10
26.437862
 20
32.522597
 30
0.0
 10
26.762224
 20
32.256003
 30
0.0
 10
27.078107
 20
32.075134
 30
0.0
 10
27.436162
 20
31.964167
 30
0.0
 10
27.829267
 20
31.907652
 30
0.0
 10
28.236132
 20
31.886750
 30
0.0
 10
28.580135
 20
31.968136
 30
0.0
 10
28.580154
 20
31.968162
 30
0.0
 10
28.580175
 20
31.968162
 30
0.0
 10
28.580191
 20
31.968189
 30
0.0
  0
LWPOLYLINE
  5
14b
100
AcDbEntity
  8
grapes
 62
1
100
AcDbPolyline
 90
48
 70
1
 10
34.554590
 20
35.924891
 30
0.0
 10
35.341807
 20
36.308825
 30
0.0
 10
35.918336
 20
36.932075
 30
0.0
 10
36.229116
 20
37.707831
 30
0.0
 10
36.219088
 20
38.549274
 30
0.0
 10
36.043156
 20
39.081343
 30
0.0
 10
35.768545
 20
39.531166
 30
0.0
 10
35.389358
 20
39.906213
 30
0.0
 10
34.899659
 20
40.213894
 30
0.0
 10
34.832320
 20
40.247930
 30
0.0
 10
34.764983
 20
40.281966
 30
0.0
 10
34.697644
 20
40.316002
 30
0.0
 10
34.630308
 20
40.350038
 30
0.0
 10
34.523834
 20
40.243570
 30
0.0
 10
34.417361
 20
40.137104
 30
0.0
 10
34.310887
 20
40.030634
 30
0.0
 10
34.204411
 20
39.924168
 30
0.0
 10
34.002624
 20
39.742124
 30
0.0
 10
33.768060
 20
39.561310
 30
0.0
 10
33.529824
 20
39.402629
 30
0.0
 10
33.317030
 20
39.286985
 30
0.0
 10
33.137844
 20
39.203020
 30
0.0
 10
32.991101
 20
39.130593
 30
0.0
 10
32.891951
 20
39.077441
 30
0.0
 10
32.855534
 20
39.051300
 30
0.0
 10
32.862228
 20
39.006458
 30
0.0
 10
32.880510
 20
38.902149
 30
0.0
 10
32.907596
 20
38.753980
 30
0.0
 10
32.940716
 20
38.577561
 30
0.0
 10
32.980113
 20
38.147915
 30
0.0
 10
32.943934
 20
37.694578
 30
0.0
 10
32.834989
 20
37.236473
 30
0.0
 10
32.656096
 20
36.792515
 30
0.0
 10
32.606458
 20
36.691844
 30
0.0
 10
32.556819
 20
36.591173
 30
0.0
 10
32.507181
 20
36.490502
 30
0.0
 10
32.457542
 20
36.389828
 30
0.0
 10
32.544095
 20
36.339218
 30
0.0
 10
32.630646
 20
36.288611
 30
0.0
 10
32.717196
 20
36.238002
 30
0.0
 10
32.803747
 20
36.187392
 30
0.0
 10
33.094759
 20
36.047396
 30
0.0
 10
33.436977
 20
35.926437
 30
0.0
 10
33.769960
 20
35.842826
 30
0.0
 10
34.033268
 20
35.814870
 30
0.0
 10
34.113439
 20
35.824844
 30
0.0
 10
34.238455
 20
35.848842
 30
0.0
 10
34.391204
 20
35.883354
 30
0.0
  0
LWPOLYLINE
  5
14c
100
AcDbEntity
  8
grapes
 62
1
100
AcDbPolyline
 90
32
 70
1
 10
30.724424
 20
35.958835
 30
0.0
 10
31.475764
 20
36.377112
 30
0.0
 10
32.006206
 20
36.988587
 30
0.0
 10
32.280639
 20
37.734069
 30
0.0
 10
32.263971
 20
38.554354
 30
0.0
 10
32.207016
 20
38.798332
 30
0.0
 10
32.149081
 20
38.933618
 30
0.0
 10
32.067462
 20
38.991697
 30
0.0
 10
31.939457
 20
39.004080
 30
0.0
 10
31.603378
 20
39.045892
 30
0.0
 10
31.208807
 20
39.159501
 30
0.0
 10
30.806003
 20
39.327165
 30
0.0
 10
30.445244
 20
39.531164
 30
0.0
 10
30.343265
 20
39.599450
 30
0.0
 10
30.241284
 20
39.667739
 30
0.0
 10
30.139306
 20
39.736025
 30
0.0
 10
30.037328
 20
39.804312
 30
0.0
 10
29.935812
 20
39.736171
 30
0.0
 10
29.834297
 20
39.668025
 30
0.0
 10
29.732785
 20
39.599884
 30
0.0
 10
29.631272
 20
39.531738
 30
0.0
 10
29.270293
 20
39.327429
 30
0.0
 10
28.866359
 20
39.159586
 30
0.0
 10
28.469767
 20
39.045905
 30
0.0
 10
28.130828
 20
39.004080
 30
0.0
 10
27.952420
 20
38.957735
 30
0.0
 10
27.840406
 20
38.799869
 30
0.0
 10
27.784378
 20
38.502245
 30
0.0
 10
27.773926
 20
38.036628
 30
0.0
 10
28.050472
 20
37.018223
 30
0.0
 10
28.739658
 20
36.258335
 30
0.0
 10
29.683609
 20
35.868144
 30
0.0
  0
LWPOLYLINE
  5
14d
100
AcDbEntity
  8
grapes
 62
1
100
AcDbPolyline
 90
52
 70
1
 10
26.602270
 20
35.883421
 30
0.0
 10
26.735178
 20
35.920071
 30
0.0
 10
26.900058
 20
35.995691
 30
0.0
 10
27.075927
 20
36.079805
 30
0.0
 10
27.241783
 20
36.170041
 30
0.0
 10
27.335030
 20
36.224691
 30
0.0
 10
27.428278
 20
36.279338
 30
0.0
 10
27.521525
 20
36.333985
 30
0.0
 10
27.614772
 20
36.388632
 30
0.0
 10
27.551695
 20
36.515896
 30
0.0
 10
27.488616
 20
36.643161
 30
0.0
 10
27.425539
 20
36.770425
 30
0.0
 10
27.362460
 20
36.897690
 30
0.0
 10
27.235603
 20
37.178106
 30
0.0
 10
27.157463
 20
37.426124
 30
0.0
 10
27.116961
 20
37.689540
 30
0.0
 10
27.102991
 20
38.016142
 30
0.0
 10
27.104578
 20
38.270123
 30
0.0
 10
27.115321
 20
38.511219
 30
0.0
 10
27.133101
 20
38.712207
 30
0.0
 10
27.156066
 20
38.845861
 30
0.0
 10
27.175698
 20
38.973676
 30
0.0
 10
27.126092
 20
39.073154
 30
0.0
 10
26.971273
 20
39.180694
 30
0.0
 10
26.675287
 20
39.332681
 30
0.0
 10
26.431197
 20
39.468225
 30
0.0
 10
26.192982
 20
39.628766
 30
0.0
 10
25.978442
 20
39.801216
 30
0.0
 10
25.805378
 20
39.972483
 30
0.0
 10
25.723217
 20
40.065823
 30
0.0
 10
25.641056
 20
40.159165
 30
0.0
 10
25.558892
 20
40.252505
 30
0.0
 10
25.476731
 20
40.345845
 30
0.0
 10
25.369004
 20
40.292158
 30
0.0
 10
25.261276
 20
40.238472
 30
0.0
 10
25.153543
 20
40.184785
 30
0.0
 10
25.045815
 20
40.131096
 30
0.0
 10
24.520342
 20
39.777877
 30
0.0
 10
24.136763
 20
39.317748
 30
0.0
 10
23.901781
 20
38.761697
 30
0.0
 10
23.822094
 20
38.120745
 30
0.0
 10
23.903662
 20
37.468068
 30
0.0
 10
24.144933
 20
36.903879
 30
0.0
 10
24.541361
 20
36.435526
 30
0.0
 10
25.088405
 20
36.070367
 30
0.0
 10
25.437015
 20
35.942777
 30
0.0
 10
25.845682
 20
35.864132
 30
0.0
 10
26.254111
 20
35.860799
 30
0.0
 10
26.602005
 20
35.883368
 30
0.0
 10
26.602026
 20
35.883368
 30
0.0
 10
26.602045
 20
35.883368
 30
0.0
 10
26.602066
 20
35.883368
 30
0.0
  0
LWPOLYLINE
  5
14e
100
AcDbEntity
  8
grapes
 62
1
100
AcDbPolyline
 90
28
 70
1
 10
32.741239
 20
39.763804
 30
0.0
 10
33.532158
 20
40.140721
 30
0.0
 10
34.086970
 20
40.920580
 30
0.0
 10
34.346458
 20
41.782982
 30
0.0
 10
34.251396
 20
42.682131
 30
0.0
 10
33.756829
 20
43.506861
 30
0.0
 10
32.988820
 20
44.040784
 30
0.0
 10
32.071984
 20
44.230379
 30
0.0
 10
31.130948
 20
44.022145
 30
0.0
 10
30.765395
 20
43.832859
 30
0.0
 10
30.588235
 20
43.664436
 30
0.0
 10
30.568947
 20
43.458789
 30
0.0
 10
30.677037
 20
43.157828
 30
0.0
 10
30.836356
 20
42.656257
 30
0.0
 10
30.903565
 20
42.112367
 30
0.0
 10
30.877107
 20
41.568042
 30
0.0
 10
30.755412
 20
41.065170
 30
0.0
 10
30.601827
 20
40.607893
 30
0.0
 10
30.576638
 20
40.337214
 30
0.0
 10
30.700297
 20
40.160118
 30
0.0
 10
30.993241
 20
39.983588
 30
0.0
 10
31.409449
 20
39.815744
 30
0.0
 10
31.876258
 20
39.718544
 30
0.0
 10
32.338546
 20
39.726297
 30
0.0
 10
32.741181
 20
39.763817
 30
0.0
 10
32.741194
 20
39.763817
 30
0.0
 10
32.741202
 20
39.763817
 30
0.0
 10
32.741215
 20
39.763817
 30
0.0
  0
LWPOLYLINE
  5
14f
100
AcDbEntity
  8
grapes
 62
1
100
AcDbPolyline
 90
16
 70
1
 10
28.659151
 20
39.788040
 30
0.0
 10
29.332036
 20
40.144730
 30
0.0
 10
29.830887
 20
40.636278
 30
0.0
 10
30.140989
 20
41.242708
 30
0.0
 10
30.247624
 20
41.944057
 30
0.0
 10
29.869410
 20
43.215134
 30
0.0
 10
28.925202
 20
44.015305
 30
0.0
 10
27.700637
 20
44.213134
 30
0.0
 10
26.481353
 20
43.677186
 30
0.0
 10
25.952807
 20
42.990799
 30
0.0
 10
25.722661
 20
42.152168
 30
0.0
 10
25.801862
 20
41.284957
 30
0.0
 10
26.201359
 20
40.512823
 30
0.0
 10
26.709445
 20
40.083047
 30
0.0
 10
27.354604
 20
39.799480
 30
0.0
 10
28.037586
 20
39.691388
 30
0.0
  0
LWPOLYLINE
  5
150
100
AcDbEntity
  8
grapes
 62
1
100
AcDbPolyline
 90
168
 70
1
 10
30.389234
 20
44.369352
 30
0.0
 10
30.456187
 20
44.426621
 30
0.0
 10
30.523137
 20
44.483890
 30
0.0
 10
30.590090
 20
44.541154
 30
0.0
 10
30.657040
 20
44.598423
 30
0.0
 10
30.616254
 20
44.705230
 30
0.0
 10
30.575466
 20
44.812037
 30
0.0
 10
30.534678
 20
44.918841
 30
0.0
 10
30.493893
 20
45.025648
 30
0.0
 10
30.404776
 20
45.234166
 30
0.0
 10
30.282681
 20
45.486076
 30
0.0
 10
30.143693
 20
45.749635
 30
0.0
 10
30.003898
 20
45.993102
 30
0.0
 10
29.922176
 20
46.128153
 30
0.0
 10
29.840454
 20
46.263207
 30
0.0
 10
29.758732
 20
46.398258
 30
0.0
 10
29.677010
 20
46.533310
 30
0.0
 10
29.867854
 20
46.559159
 30
0.0
 10
30.058698
 20
46.585009
 30
0.0
 10
30.249542
 20
46.610859
 30
0.0
 10
30.440386
 20
46.636709
 30
0.0
 10
30.900123
 20
46.709826
 30
0.0
 10
31.327632
 20
46.801520
 30
0.0
 10
31.741789
 20
46.916429
 30
0.0
 10
32.161487
 20
47.059195
 30
0.0
 10
32.209353
 20
47.054777
 30
0.0
 10
32.242021
 20
46.997362
 30
0.0
 10
32.260727
 20
46.882639
 30
0.0
 10
32.266680
 20
46.706294
 30
0.0
 10
32.487964
 20
45.885620
 30
0.0
 10
33.025714
 20
45.295306
 30
0.0
 10
33.690781
 20
45.064483
 30
0.0
 10
34.294007
 20
45.322283
 30
0.0
 10
34.388778
 20
45.429590
 30
0.0
 10
34.466385
 20
45.528713
 30
0.0
 10
34.518818
 20
45.608607
 30
0.0
 10
34.538080
 20
45.658235
 30
0.0
 10
34.568819
 20
45.663817
 30
0.0
 10
34.652512
 20
45.623664
 30
0.0
 10
34.776376
 20
45.545131
 30
0.0
 10
34.927631
 20
45.435564
 30
0.0
 10
35.301757
 20
45.178514
 30
0.0
 10
35.645159
 20
45.011059
 30
0.0
 10
35.992724
 20
44.920156
 30
0.0
 10
36.379341
 20
44.892753
 30
0.0
 10
36.935947
 20
44.980846
 30
0.0
 10
37.467334
 20
45.240450
 30
0.0
 10
37.962970
 20
45.664548
 30
0.0
 10
38.412332
 20
46.246128
 30
0.0
 10
38.618184
 20
46.696184
 30
0.0
 10
38.629375
 20
47.067373
 30
0.0
 10
38.455671
 20
47.322141
 30
0.0
 10
38.106818
 20
47.422926
 30
0.0
 10
37.842455
 20
47.458793
 30
0.0
 10
37.572595
 20
47.537128
 30
0.0
 10
37.355444
 20
47.637077
 30
0.0
 10
37.249203
 20
47.737780
 30
0.0
 10
37.256770
 20
47.781042
 30
0.0
 10
37.312116
 20
47.812157
 30
0.0
 10
37.414787
 20
47.830942
 30
0.0
 10
37.564375
 20
47.837239
 30
0.0
 10
38.260102
 20
47.926115
 30
0.0
 10
38.835205
 20
48.209709
 30
0.0
 10
39.324073
 20
48.713470
 30
0.0
 10
39.761114
 20
49.462847
 30
0.0
 10
40.002433
 20
50.039154
 30
0.0
 10
40.132484
 20
50.530840
 30
0.0
 10
40.151428
 20
50.938999
 30
0.0
 10
40.059488
 20
51.264730
 30
0.0
 10
39.724774
 20
51.655374
 30
0.0
 10
39.193795
 20
51.954060
 30
0.0
 10
38.507366
 20
52.144388
 30
0.0
 10
37.706297
 20
52.209946
 30
0.0
 10
37.204722
 20
52.181506
 30
0.0
 10
36.783902
 20
52.089460
 30
0.0
 10
36.399563
 20
51.919452
 30
0.0
 10
36.007427
 20
51.657118
 30
0.0
 10
35.888232
 20
51.573576
 30
0.0
 10
35.782674
 20
51.513113
 30
0.0
 10
35.702204
 20
51.481408
 30
0.0
 10
35.658277
 20
51.484133
 30
0.0
 10
35.649096
 20
51.530216
 30
0.0
 10
35.663384
 20
51.616478
 30
0.0
 10
35.698343
 20
51.730600
 30
0.0
 10
35.751178
 20
51.860260
 30
0.0
 10
35.878765
 20
52.357388
 30
0.0
 10
35.771527
 20
52.741195
 30
0.0
 10
35.438118
 20
52.999462
 30
0.0
 10
34.887181
 20
53.119972
 30
0.0
 10
33.992160
 20
53.027109
 30
0.0
 10
33.210835
 20
52.647154
 30
0.0
 10
32.611519
 20
52.029442
 30
0.0
 10
32.262523
 20
51.223310
 30
0.0
 10
32.238578
 20
51.010542
 30
0.0
 10
32.253395
 20
50.768295
 30
0.0
 10
32.305195
 20
50.511697
 30
0.0
 10
32.392190
 20
50.255866
 30
0.0
 10
32.412140
 20
50.188794
 30
0.0
 10
32.407007
 20
50.143085
 30
0.0
 10
32.375884
 20
50.116971
 30
0.0
 10
32.317858
 20
50.108663
 30
0.0
 10
32.265368
 20
50.115145
 30
0.0
 10
32.222360
 20
50.132793
 30
0.0
 10
32.193284
 20
50.158907
 30
0.0
 10
32.182595
 20
50.190792
 30
0.0
 10
32.166826
 20
50.233022
 30
0.0
 10
32.123871
 20
50.287304
 30
0.0
 10
32.060278
 20
50.346642
 30
0.0
 10
31.982597
 20
50.404022
 30
0.0
 10
31.652415
 20
50.477606
 30
0.0
 10
31.366398
 20
50.287421
 30
0.0
 10
31.165074
 20
49.882912
 30
0.0
 10
31.088956
 20
49.313542
 30
0.0
 10
31.119796
 20
48.927007
 30
0.0
 10
31.217943
 20
48.598848
 30
0.0
 10
31.391841
 20
48.309907
 30
0.0
 10
31.649939
 20
48.041032
 30
0.0
 10
31.723874
 20
47.976317
 30
0.0
 10
31.797809
 20
47.911603
 30
0.0
 10
31.871747
 20
47.846891
 30
0.0
 10
31.945682
 20
47.782177
 30
0.0
 10
31.780752
 20
47.732702
 30
0.0
 10
31.615824
 20
47.683225
 30
0.0
 10
31.450896
 20
47.633751
 30
0.0
 10
31.285968
 20
47.584277
 30
0.0
 10
30.931191
 20
47.490432
 30
0.0
 10
30.586645
 20
47.428773
 30
0.0
 10
30.216517
 20
47.394488
 30
0.0
 10
29.784995
 20
47.382767
 30
0.0
 10
29.574680
 20
47.381974
 30
0.0
 10
29.364366
 20
47.381180
 30
0.0
 10
29.154051
 20
47.380386
 30
0.0
 10
28.943739
 20
47.379592
 30
0.0
 10
28.756393
 20
47.531071
 30
0.0
 10
28.569047
 20
47.682551
 30
0.0
 10
28.381703
 20
47.834033
 30
0.0
 10
28.194357
 20
47.985512
 30
0.0
 10
27.412500
 20
48.532011
 30
0.0
 10
26.463319
 20
49.086223
 30
0.0
 10
25.591740
 20
49.515798
 30
0.0
 10
25.042717
 20
49.688396
 30
0.0
 10
24.854794
 20
49.650069
 30
0.0
 10
24.689488
 20
49.549405
 30
0.0
 10
24.571899
 20
49.407890
 30
0.0
 10
24.527126
 20
49.247002
 30
0.0
 10
24.560987
 20
49.047573
 30
0.0
 10
24.691723
 20
48.877141
 30
0.0
 10
24.963059
 20
48.697667
 30
0.0
 10
25.418719
 20
48.471093
 30
0.0
 10
26.213567
 20
48.061024
 30
0.0
 10
26.970559
 20
47.597178
 30
0.0
 10
27.645580
 20
47.108887
 30
0.0
 10
28.194508
 20
46.625485
 30
0.0
 10
28.615693
 20
46.159318
 30
0.0
 10
28.999997
 20
45.651858
 30
0.0
 10
29.307509
 20
45.160715
 30
0.0
 10
29.498319
 20
44.743504
 30
0.0
 10
29.600204
 20
44.523802
 30
0.0
 10
29.741214
 20
44.330974
 30
0.0
 10
29.895543
 20
44.193825
 30
0.0
 10
30.037386
 20
44.141173
 30
0.0
 10
30.091163
 20
44.159058
 30
0.0
 10
30.175443
 20
44.208102
 30
0.0
 10
30.278670
 20
44.280806
 30
0.0
 10
30.389292
 20
44.369698
 30
0.0
 10
30.389268
 20
44.369476
 30
0.0
 10
30.389247
 20
44.369259
 30
0.0
 10
30.389224
 20
44.369040
 30
0.0
  0
LWPOLYLINE
  5
151
100
AcDbEntity
  8
outer
 62
1
100
AcDbPolyline
 90
132
 70
1
 10
29.119211
 20
57.541217
 30
0.0
 10
27.341550
 20
57.145427
 30
0.0
 10
25.731795
 20
56.265020
 30
0.0
 10
24.113601
 20
55.415788
 30
0.0
 10
22.310622
 20
55.113499
 30
0.0
 10
20.767506
 20
54.920773
 30
0.0
 10
19.286097
 20
54.480547
 30
0.0
 10
17.814575
 20
53.990123
 30
0.0
 10
16.301125
 20
53.646689
 30
0.0
 10
14.176833
 20
52.352728
 30
0.0
 10
12.439209
 20
50.572128
 30
0.0
 10
10.997855
 20
48.501134
 30
0.0
 10
9.762370
 20
46.335997
 30
0.0
 10
9.457851
 20
45.691670
 30
0.0
 10
9.158745
 20
45.044772
 30
0.0
 10
8.859562
 20
44.397998
 30
0.0
 10
8.554807
 20
43.754053
 30
0.0
 10
6.603344
 20
44.273041
 30
0.0
 10
4.551599
 20
44.525609
 30
0.0
 10
2.570412
 20
44.270956
 30
0.0
 10
0.830629
 20
43.268275
 30
0.0
 10
0.305598
 20
42.085165
 30
0.0
 10
0.504755
 20
40.812408
 30
0.0
 10
1.001934
 20
39.515389
 30
0.0
 10
1.370977
 20
38.259503
 30
0.0
 10
1.247763
 20
36.735027
 30
0.0
 10
0.786523
 20
35.254429
 30
0.0
 10
0.262662
 20
33.775266
 30
0.0
 10
-0.048417
 20
32.255103
 30
0.0
 10
-0.227016
 20
30.376588
 30
0.0
 10
-0.159746
 20
28.493020
 30
0.0
 10
0.163308
 20
26.639588
 30
0.0
 10
0.752056
 20
24.851534
 30
0.0
 10
-1.141479
 20
23.856172
 30
0.0
 10
-2.874708
 20
22.564847
 30
0.0
 10
-4.211656
 20
20.931601
 30
0.0
 10
-4.916336
 20
18.910555
 30
0.0
 10
-4.596294
 20
17.788616
 30
0.0
 10
-3.670702
 20
17.165020
 30
0.0
 10
-2.487181
 20
16.783729
 30
0.0
 10
-1.393349
 20
16.388706
 30
0.0
 10
0.233221
 20
15.115373
 30
0.0
 10
1.436906
 20
13.433814
 30
0.0
 10
2.488579
 20
11.604538
 30
0.0
 10
3.659117
 20
9.888081
 30
0.0
 10
5.060736
 20
8.050100
 30
0.0
 10
6.725782
 20
6.447837
 30
0.0
 10
8.664172
 20
5.239644
 30
0.0
 10
10.885806
 20
4.583875
 30
0.0
 10
12.371304
 20
4.370515
 30
0.0
 10
13.838077
 20
4.082013
 30
0.0
 10
15.262593
 20
3.650610
 30
0.0
 10
16.621318
 20
3.008493
 30
0.0
 10
19.481164
 20
2.186724
 30
0.0
 10
22.459770
 20
2.084806
 30
0.0
 10
25.365313
 20
2.716419
 30
0.0
 10
28.005971
 20
4.095136
 30
0.0
 10
28.676155
 20
4.526857
 30
0.0
 10
29.350181
 20
4.924949
 30
0.0
 10
30.065628
 20
5.154157
 30
0.0
 10
30.860081
 20
5.079201
 30
0.0
 10
32.722099
 20
4.900025
 30
0.0
 10
34.600685
 20
4.504844
 30
0.0
 10
36.218908
 20
3.658812
 30
0.0
 10
37.299834
 20
2.127113
 30
0.0
 10
37.649817
 20
1.212687
 30
0.0
 10
38.145328
 20
0.344536
 30
0.0
 10
38.852628
 20
-0.251041
 30
0.0
 10
39.837984
 20
-0.347666
 30
0.0
 10
40.570670
 20
-0.295649
 30
0.0
 10
41.069058
 20
0.134193
 30
0.0
 10
41.282714
 20
0.786840
 30
0.0
 10
41.161189
 20
1.507195
 30
0.0
 10
41.087433
 20
1.915050
 30
0.0
 10
40.984301
 20
2.334811
 30
0.0
 10
40.899563
 20
2.747402
 30
0.0
 10
40.880990
 20
3.133800
 30
0.0
 10
43.156027
 20
3.351631
 30
0.0
 10
45.430258
 20
3.635000
 30
0.0
 10
47.633639
 20
4.179009
 30
0.0
 10
49.696118
 20
5.178737
 30
0.0
 10
52.285798
 20
6.743826
 30
0.0
 10
54.867567
 20
8.324950
 30
0.0
 10
57.507746
 20
9.796773
 30
0.0
 10
60.272670
 20
11.033938
 30
0.0
 10
61.527392
 20
11.596522
 30
0.0
 10
62.764324
 20
12.329920
 30
0.0
 10
63.624117
 20
13.332902
 30
0.0
 10
63.747423
 20
14.704237
 30
0.0
 10
62.733979
 20
16.744121
 30
0.0
 10
61.254350
 20
18.471718
 30
0.0
 10
59.462264
 20
19.915310
 30
0.0
 10
57.511455
 20
21.103210
 30
0.0
 10
57.457919
 20
21.573903
 30
0.0
 10
57.605602
 20
22.096297
 30
0.0
 10
57.817109
 20
22.628956
 30
0.0
 10
57.955042
 20
23.130341
 30
0.0
 10
58.893961
 20
25.569534
 30
0.0
 10
60.112581
 20
27.888844
 30
0.0
 10
61.682822
 20
29.959923
 30
0.0
 10
63.676607
 20
31.654420
 30
0.0
 10
64.295420
 20
32.281879
 30
0.0
 10
64.398851
 20
33.068988
 30
0.0
 10
64.149087
 20
33.893694
 30
0.0
 10
63.708315
 20
34.634103
 30
0.0
 10
62.274824
 20
36.347801
 30
0.0
 10
60.370153
 20
37.449859
 30
0.0
 10
58.204081
 20
38.062333
 30
0.0
 10
55.986384
 20
38.307260
 30
0.0
 10
55.919653
 20
40.216863
 30
0.0
 10
55.681499
 20
42.108726
 30
0.0
 10
55.178889
 20
43.934123
 30
0.0
 10
54.318774
 20
45.644323
 30
0.0
 10
53.616713
 20
46.843213
 30
0.0
 10
52.685136
 20
47.882467
 30
0.0
 10
51.525735
 20
48.579065
 30
0.0
 10
50.140202
 20
48.749985
 30
0.0
 10
49.667326
 20
48.987441
 30
0.0
 10
49.410556
 20
49.501606
 30
0.0
 10
49.219072
 20
50.101374
 30
0.0
 10
48.942056
 20
50.595612
 30
0.0
 10
47.592189
 20
52.721057
 30
0.0
 10
45.721903
 20
54.420063
 30
0.0
 10
43.492265
 20
55.633333
 30
0.0
 10
41.064343
 20
56.301567
 30
0.0
 10
39.323081
 20
56.401781
 30
0.0
 10
37.572217
 20
56.400458
 30
0.0
 10
35.826568
 20
56.404268
 30
0.0
 10
34.100964
 20
56.519597
 30
0.0
 10
32.902891
 20
56.987693
 30
0.0
 10
31.668722
 20
57.333201
 30
0.0
 10
30.405236
 20
57.527292
 30
0.0
  0
LWPOLYLINE
  5
152
100
AcDbEntity
  8
outer
 62
1
100
AcDbPolyline
 90
138
 70
1
 10
29.187611
 20
56.343948
 30
0.0
 10
30.514924
 20
56.327676
 30
0.0
 10
31.804294
 20
56.056775
 30
0.0
 10
33.064465
 20
55.647682
 30
0.0
 10
34.304177
 20
55.216845
 30
0.0
 10
36.397507
 20
55.194091
 30
0.0
 10
38.504905
 20
55.228759
 30
0.0
 10
40.594951
 20
55.128466
 30
0.0
 10
42.636227
 20
54.700820
 30
0.0
 10
44.474771
 20
53.804912
 30
0.0
 10
46.092753
 20
52.574417
 30
0.0
 10
47.393193
 20
51.027341
 30
0.0
 10
48.279113
 20
49.181693
 30
0.0
 10
48.594213
 20
48.374761
 30
0.0
 10
49.184911
 20
47.824568
 30
0.0
 10
49.955671
 20
47.535826
 30
0.0
 10
50.810963
 20
47.513257
 30
0.0
 10
51.940964
 20
46.954791
 30
0.0
 10
52.762397
 20
45.975539
 30
0.0
 10
53.399508
 20
44.800456
 30
0.0
 10
53.976546
 20
43.654488
 30
0.0
 10
54.499593
 20
42.104170
 30
0.0
 10
54.701890
 20
40.482042
 30
0.0
 10
54.755931
 20
38.830616
 30
0.0
 10
54.834214
 20
37.192396
 30
0.0
 10
57.094035
 20
37.008738
 30
0.0
 10
59.354584
 20
36.541952
 30
0.0
 10
61.346497
 20
35.554829
 30
0.0
 10
62.800406
 20
33.810165
 30
0.0
 10
63.083004
 20
33.350954
 30
0.0
 10
63.200569
 20
32.981596
 30
0.0
 10
63.073731
 20
32.666451
 30
0.0
 10
62.623122
 20
32.369906
 30
0.0
 10
60.296482
 20
30.192941
 30
0.0
 10
58.529426
 20
27.557321
 30
0.0
 10
57.217006
 20
24.635581
 30
0.0
 10
56.254259
 20
21.600176
 30
0.0
 10
56.431286
 20
20.555073
 30
0.0
 10
57.201337
 20
19.849905
 30
0.0
 10
58.211209
 20
19.299255
 30
0.0
 10
59.107702
 20
18.717753
 30
0.0
 10
60.258152
 20
17.756337
 30
0.0
 10
61.314334
 20
16.649400
 30
0.0
 10
62.144988
 20
15.393635
 30
0.0
 10
62.618830
 20
13.985708
 30
0.0
 10
61.966497
 20
13.223735
 30
0.0
 10
61.068531
 20
12.698987
 30
0.0
 10
60.075190
 20
12.282295
 30
0.0
 10
59.136750
 20
11.844542
 30
0.0
 10
56.040041
 20
10.395208
 30
0.0
 10
53.104858
 20
8.644857
 30
0.0
 10
50.190497
 20
6.856671
 30
0.0
 10
47.156256
 20
5.293778
 30
0.0
 10
45.413002
 20
4.818930
 30
0.0
 10
43.610444
 20
4.621657
 30
0.0
 10
41.803253
 20
4.460552
 30
0.0
 10
40.046102
 20
4.094237
 30
0.0
 10
39.645714
 20
3.361950
 30
0.0
 10
39.720903
 20
2.500520
 30
0.0
 10
39.936507
 20
1.626389
 30
0.0
 10
39.957356
 20
0.856055
 30
0.0
 10
39.258639
 20
0.915904
 30
0.0
 10
38.860399
 20
1.447849
 30
0.0
 10
38.595916
 20
2.172595
 30
0.0
 10
38.298490
 20
2.810796
 30
0.0
 10
37.073401
 20
4.499869
 30
0.0
 10
35.313203
 20
5.517324
 30
0.0
 10
33.271628
 20
6.041570
 30
0.0
 10
31.202415
 20
6.250881
 30
0.0
 10
30.405093
 20
6.342665
 30
0.0
 10
29.633489
 20
6.325203
 30
0.0
 10
28.909280
 20
6.122082
 30
0.0
 10
28.254148
 20
5.656601
 30
0.0
 10
26.604275
 20
4.609671
 30
0.0
 10
24.838149
 20
3.790178
 30
0.0
 10
22.969662
 20
3.305884
 30
0.0
 10
21.012728
 20
3.264504
 30
0.0
 10
18.849432
 20
3.498977
 30
0.0
 10
16.814699
 20
4.244890
 30
0.0
 10
14.793516
 20
5.061606
 30
0.0
 10
12.670860
 20
5.508461
 30
0.0
 10
10.699841
 20
5.834798
 30
0.0
 10
8.834442
 20
6.517528
 30
0.0
 10
7.173206
 20
7.581047
 30
0.0
 10
5.814658
 20
9.049802
 30
0.0
 10
4.425369
 20
10.848703
 30
0.0
 10
3.221726
 20
12.779235
 30
0.0
 10
2.013906
 20
14.703285
 30
0.0
 10
0.612065
 20
16.482739
 30
0.0
 10
-0.357815
 20
17.215926
 30
0.0
 10
-1.475320
 20
17.688630
 30
0.0
 10
-2.627180
 20
18.081960
 30
0.0
 10
-3.700145
 20
18.576969
 30
0.0
 10
-3.181776
 20
20.311100
 30
0.0
 10
-2.051619
 20
21.707227
 30
0.0
 10
-0.556586
 20
22.805142
 30
0.0
 10
1.056390
 20
23.644558
 30
0.0
 10
1.523366
 20
23.869930
 30
0.0
 10
1.889560
 20
24.219736
 30
0.0
 10
2.054277
 20
24.661987
 30
0.0
 10
1.916820
 20
25.164748
 30
0.0
 10
1.140636
 20
27.767612
 30
0.0
 10
0.980502
 20
30.462975
 30
0.0
 10
1.356168
 20
33.152173
 30
0.0
 10
2.187396
 20
35.736646
 30
0.0
 10
2.569058
 20
37.279820
 30
0.0
 10
2.417692
 20
38.820340
 30
0.0
 10
1.977092
 20
40.346453
 30
0.0
 10
1.491055
 20
41.846410
 30
0.0
 10
1.813236
 20
42.572982
 30
0.0
 10
2.522806
 20
43.007671
 30
0.0
 10
3.401418
 20
43.227244
 30
0.0
 10
4.230725
 20
43.308473
 30
0.0
 10
5.439111
 20
43.276803
 30
0.0
 10
6.617107
 20
43.024621
 30
0.0
 10
7.785888
 20
42.717056
 30
0.0
 10
8.966631
 20
42.519245
 30
0.0
 10
9.583393
 20
43.121836
 30
0.0
 10
9.988515
 20
43.915594
 30
0.0
 10
10.322644
 20
44.771712
 30
0.0
 10
10.726424
 20
45.561384
 30
0.0
 10
11.789657
 20
47.498819
 30
0.0
 10
13.021308
 20
49.359347
 30
0.0
 10
14.484716
 20
51.015628
 30
0.0
 10
16.243215
 20
52.340325
 30
0.0
 10
17.285303
 20
52.621616
 30
0.0
 10
18.330528
 20
52.895576
 30
0.0
 10
19.364702
 20
53.208041
 30
0.0
 10
20.373643
 20
53.604845
 30
0.0
 10
21.973257
 20
53.851802
 30
0.0
 10
23.581177
 20
54.092297
 30
0.0
 10
25.124637
 20
54.524703
 30
0.0
 10
26.530869
 20
55.347385
 30
0.0
 10
27.143718
 20
55.741884
 30
0.0
 10
27.784086
 20
56.064477
 30
0.0
 10
28.462036
 20
56.277646
 30
0.0
 10
29.187621
 20
56.343879
 30
0.0
 10
29.187621
 20
56.343877
 30
0.0
  0
ENDSEC
  0
SECTION
  2
OBJECTS
  0
DICTIONARY
  5
C
330
0
100
AcDbDictionary
  3
ACAD_GROUP
350
D
  3
ACAD_MLINESTYLE
350
17
  0
DICTIONARY
  5
D
330
C
100
AcDbDictionary
  0
DICTIONARY
  5
1A
330
C
100
AcDbDictionary
  0
DICTIONARY
  5
17
330
C
100
AcDbDictionary
  3
STANDARD
350
18
  0
DICTIONARY
  5
19
330
C
100
AcDbDictionary
  0
ENDSEC
  0
EOF
